<?xml version="1.0" standalone="no"?>
<!DOCTYPE svg PUBLIC "-//W3C//DTD SVG 1.1//EN" "http://www.w3.org/Graphics/SVG/1.1/DTD/svg11.dtd" >
<svg>
<metadata>
Created by FontForge 20120731 at Thu Oct 20 17:21:48 2016
 By www
Copyright (c) 2009 by Hannes von Dhren. All rights reserved.
</metadata>
<defs>
<font id="BreviaW01-Light" horiz-adv-x="622" >
  <font-face 
    font-family="BreviaW01-Light"
    font-weight="300"
    font-stretch="normal"
    units-per-em="1000"
    panose-1="2 0 5 3 3 0 0 2 0 4"
    ascent="800"
    descent="-200"
    x-height="550"
    cap-height="680"
    bbox="-16.0476 -161 1201.08 936"
    underline-thickness="50"
    underline-position="-100"
    unicode-range="U+0002-2122"
  />
<missing-glyph horiz-adv-x="0" 
 />
    <glyph glyph-name=".notdef" horiz-adv-x="0" 
 />
    <glyph glyph-name=".null" horiz-adv-x="0" 
 />
    <glyph glyph-name="uni000D" unicode="&#xd;" horiz-adv-x="0" 
 />
    <glyph glyph-name="uni0002" horiz-adv-x="0" 
 />
    <glyph glyph-name="uni0009" unicode="&#x9;" horiz-adv-x="0" 
 />
    <glyph glyph-name="uni000A" unicode="&#xa;" horiz-adv-x="0" 
 />
    <glyph glyph-name="space" unicode=" " horiz-adv-x="356" 
 />
    <glyph glyph-name="exclam" unicode="!" horiz-adv-x="317" 
d="M167 273q-2 37 -5 89t-5.5 105.5t-4 102t-0.5 79.5q0 25 8.5 33t23.5 8q5 0 11 -1.5t11 -7t8 -17t3 -31.5q0 -26 -1.5 -66t-4.5 -88t-6.5 -100.5t-7.5 -104.5zM116 49q-1 22 3.5 34.5t12.5 19t18.5 8t22.5 1.5t23.5 -1.5t19.5 -8t13.5 -19t5.5 -34.5q0 -20 -4.5 -32
t-12.5 -18t-18.5 -7.5t-22.5 -1.5q-13 0 -24 1.5t-19.5 7.5t-13 18t-4.5 32z" />
    <glyph glyph-name="quotedbl" unicode="&#x22;" horiz-adv-x="495" 
d="M343 684q1 1 5 3q3 1 7 2t10 1q5 0 10 -2t9.5 -9.5t7.5 -22.5t3 -40q0 -22 -1.5 -51t-4 -60t-6.5 -61t-9 -53.5t-10.5 -38t-11.5 -14.5q-2 0 -6 2q-2 1 -3 2v342zM123 338q-2 0 -6 2q-2 1 -3 2v342q1 1 5 3q3 1 7 2t10 1q5 0 10 -2t9.5 -9.5t7.5 -22.5t3 -40
q0 -22 -1.5 -51t-4 -60t-6.5 -61t-9 -53.5t-10.5 -38t-11.5 -14.5z" />
    <glyph glyph-name="numbersign" unicode="#" horiz-adv-x="664" 
d="M147 174l-58 -1q-11 0 -13 2.5t-2 13.5v11q0 15 2.5 17.5t13.5 2.5h67l58 287h-76q-10 0 -12 2.5t-2 13.5v12q0 11 4.5 13t12.5 2h84q3 19 7 38.5t7 35.5t5.5 27t2.5 14q2 10 8 12.5t12 2.5h9q20 0 17 -16l-23 -114q48 -2 97.5 -1t95.5 1q8 33 13.5 65t9.5 50q3 15 18 15
h14q17 0 14 -15q-5 -31 -11 -58.5t-12 -56.5h67q11 1 16 -2.5t5 -14.5v-12q0 -10 -3.5 -13t-12.5 -3h-82l-57 -284h83q10 1 12.5 -2t2.5 -14v-19q0 -9 -3.5 -10.5t-12.5 -1.5l-92 1q-14 -71 -21.5 -106.5t-10.5 -49.5q-2 -12 -6.5 -15.5t-17.5 -3.5h-5q-11 0 -14 4t0 18
l29 152h-194q-14 -71 -22 -111t-10 -45q-2 -8 -7 -13t-17 -5h-3q-21 0 -17 22zM397 220l58 285h-195l-57 -285h194z" />
    <glyph glyph-name="dollar" unicode="$" horiz-adv-x="546" 
d="M95 38q-12 10 -17 18t-4 23q0 8 3.5 14t8.5 10t12 6q16 -20 41 -35q21 -14 52 -24.5t76 -10.5q78 0 124 37.5t46 100.5q0 45 -32.5 78.5t-86.5 50.5l-109 33q-30 9 -58 22t-50 33t-35 48t-13 66q0 34 13.5 66t39.5 57t62.5 40.5t83.5 17.5v69q0 7 4 11.5t17 4.5
q9 -1 13.5 -6t5.5 -10q0 -5 -0.5 -25t-0.5 -43q49 -2 80.5 -11.5t58.5 -25.5q13 -8 22 -20t3 -27q-2 -6 -6 -10.5t-8 -6.5q-4 -3 -9 -4q-17 16 -41 28q-20 11 -50 19.5t-70 8.5q-42 0 -72.5 -10.5t-50.5 -29t-29.5 -43t-9.5 -52.5q0 -27 11 -46.5t28 -32.5t38 -22t41 -15
l110 -33q76 -23 117 -68t39 -114q-4 -84 -58.5 -130t-142.5 -54v-37.5v-36v-27v-11.5q0 -8 -3 -11.5t-15 -3.5h-8q-13 0 -15.5 5.5t-1.5 13.5q1 3 1 14.5v26.5v32.5v34.5q-54 0 -95.5 16t-59.5 31z" />
    <glyph glyph-name="percent" unicode="%" horiz-adv-x="886" 
d="M241 326q-45 0 -76 13.5t-51 37.5t-29.5 57.5t-10.5 73.5q-1 38 9 71.5t31 58t52 38.5t72 14t71.5 -14t50.5 -38.5t30.5 -57.5t11.5 -72t-10 -72.5t-32 -58t-51.5 -38t-67.5 -13.5zM268 35q13 26 37 75.5t52.5 110t59 127t58 126t49 107t31.5 70.5q4 9 9.5 19t17.5 10h19
q24 0 7 -35q-9 -18 -30.5 -63t-49.5 -105t-60 -128t-61 -131.5t-53 -115t-36 -78.5q-8 -17 -14.5 -20.5t-19.5 -3.5h-8q-18 0 -18.5 7.5t10.5 27.5zM240 368q31 0 51.5 12.5t33.5 32.5t18.5 45t5.5 51q0 25 -5.5 50t-18.5 45t-34 32t-52 12q-33 0 -55 -12t-35 -32t-18.5 -45
t-5.5 -50q0 -26 5.5 -51t18.5 -45t35.5 -32.5t55.5 -12.5zM483 172q-1 38 9.5 71.5t31.5 58t52 38.5t72 14t71.5 -14t50.5 -38.5t30.5 -57.5t11.5 -72t-10 -72.5t-32 -58t-51.5 -38t-67.5 -13.5q-45 0 -76 13.5t-51.5 37.5t-30 57.5t-10.5 73.5zM535 173q0 -26 5.5 -51
t18.5 -45t35.5 -32.5t55.5 -12.5q31 0 51.5 12.5t33.5 32.5t18.5 45t5.5 51q0 25 -5.5 50t-18.5 45t-34.5 32t-52.5 12q-33 0 -55 -12t-34.5 -32t-18 -45t-5.5 -50z" />
    <glyph glyph-name="ampersand" unicode="&#x26;" horiz-adv-x="684" 
d="M55 183q0 53 23.5 86.5t52.5 52.5q33 22 77 32v6q-23 22 -40 41t-28 39t-16.5 41.5t-5.5 47.5q0 32 12.5 61.5t37.5 51.5t62.5 35t88.5 13q39 0 68 -7.5t50 -17.5t33.5 -20l17.5 -14q11 -10 16.5 -24.5t-10.5 -28.5q-6 -4 -11 -6l-6 -2q-18 19 -42 35q-20 14 -50 25
t-69 11q-29 0 -55 -6.5t-45.5 -20.5t-31 -35t-11.5 -50q0 -35 15.5 -67t53.5 -67l259 -234q33 47 51.5 94t26.5 75q2 8 6.5 13t14.5 2l26 -9q10 -3 8.5 -10t-5.5 -18q-12 -35 -33.5 -83.5t-56.5 -96.5l94 -85q9 -8 10 -14.5t-7 -14.5l-12 -12q-14 -14 -28 1l-91 84
q-41 -42 -95.5 -69.5t-128.5 -27.5q-52 0 -94 15t-71 41.5t-45 61.5t-16 75zM111 183q0 -31 12 -57t34.5 -45.5t53.5 -30.5t70 -11q62 0 108 23.5t79 58.5l-216 200q-33 0 -59 -11t-44 -30t-28 -44t-10 -53z" />
    <glyph glyph-name="quotesingle" unicode="'" horiz-adv-x="304" 
d="M141 338q-2 0 -6 2q-2 1 -3 2v342q1 1 5 3q3 1 7 2t10 1q5 0 10 -2t9.5 -9.5t7.5 -22.5t3 -40q0 -22 -1.5 -51t-4 -60t-6.5 -61t-9 -53.5t-10.5 -38t-11.5 -14.5z" />
    <glyph glyph-name="parenleft" unicode="(" horiz-adv-x="364" 
d="M261 -84q-5 3 -32 33t-58.5 81t-56.5 121.5t-25 155.5q0 58 12 109.5t30.5 94t40.5 76.5t41.5 58t33.5 37.5t17 15.5q10 8 17 7t14 -7l7 -7q2 -2 3.5 -9.5t-6.5 -15.5q-1 -1 -13 -11.5t-29.5 -31t-37 -50.5t-36.5 -69.5t-28.5 -88.5t-11.5 -107q0 -85 23 -150t51 -109.5
t52.5 -69l28.5 -28.5q5 -4 7.5 -13t-7.5 -19l-7 -7q-5 -5 -9.5 -6t-8 0.5t-6.5 4.5t-6 5z" />
    <glyph glyph-name="parenright" unicode=")" horiz-adv-x="364" 
d="M62 -53l15.5 15.5t30.5 34t37.5 52t36.5 69.5t28 87t11 103q0 58 -11 106.5t-27.5 87.5t-36.5 68.5t-37 50t-29.5 32t-14.5 14.5q-7 9 -6 15.5t5 9.5l10 10q12 11 32 -7q3 -3 16.5 -17t32 -38t40 -58t39 -76.5t29.5 -92.5t12 -106q0 -55 -12 -104.5t-30 -92t-40 -77
t-41 -59.5t-33 -40t-17 -18q-5 -5 -12 -9.5t-18 6.5l-10 10q-7 7 -6 13t6 11z" />
    <glyph glyph-name="asterisk" unicode="*" horiz-adv-x="473" 
d="M150 378q-11 7 -5.5 24.5t18.5 38.5t27 40t19 29l-3 4q-14 0 -37 -2.5t-45 -3t-38.5 3.5t-16.5 18q0 17 16.5 22t39 4t45.5 -4.5t36 -3.5l2 3q-9 15 -25.5 35t-30 39.5t-19 35.5t6.5 24l3 2q13 9 26.5 -2.5t25 -32t21 -44t16.5 -39.5h5q4 13 10.5 35.5t15 44t19.5 35.5
t25 10l6 -2q15 -5 11 -22.5t-15.5 -39t-25.5 -43.5t-21 -35l3 -3q15 0 38.5 3t46 3t38.5 -5t16 -21q0 -15 -15 -19t-36.5 -3t-45 5t-40.5 4l-2 -4q7 -9 23.5 -28.5t31 -40t21.5 -39t-5 -25.5l-5 -3q-10 -6 -24 7t-27 33.5t-24 42t-15 33.5h-6q-2 -11 -10.5 -32.5
t-20.5 -42.5t-25.5 -34.5t-23.5 -7.5z" />
    <glyph glyph-name="plus" unicode="+" horiz-adv-x="600" 
d="M277 159q-1 32 -0.5 71t0.5 86h-57t-48 -0.5t-35.5 -0.5h-18.5q-10 0 -13.5 3.5t-3.5 14.5v13q1 11 6.5 14t14.5 3q6 0 20.5 -0.5t35 -0.5t46 -0.5t53.5 -0.5l-1 166q0 23 18 23h12q17 0 17 -24q0 -8 -0.5 -54.5t-0.5 -110.5q62 0 107 1t50 0q20 2 20 -21v-10
q0 -19 -20 -17q-3 0 -16.5 0.5t-34.5 0.5h-48.5h-57.5q0 -48 0.5 -88.5t0.5 -70.5q1 -12 -3 -15.5t-12 -3.5h-15q-17 0 -16 22z" />
    <glyph glyph-name="comma" unicode="," horiz-adv-x="343" 
d="M115 54q0 25 16.5 39t40.5 14q31 0 50 -22t19 -70q0 -50 -11 -83.5t-26.5 -54t-33.5 -29t-33 -8.5t-21.5 4.5t-8.5 9.5q-3 6 -1 15q26 2 46 16q17 12 32 37.5t15 74.5q-42 -6 -63 7.5t-21 49.5z" />
    <glyph glyph-name="hyphen" unicode="-" horiz-adv-x="462" 
d="M104 315q-9 0 -12 3.5t-3 14.5v13q0 10 3 13t14 3h254q14 0 14 -20v-11q0 -10 -3 -13t-14 -3h-253z" />
    <glyph glyph-name="period" unicode="." horiz-adv-x="301" 
d="M90 50q-1 21 3.5 33.5t12.5 18.5t19.5 8t24.5 2t24 -2t19.5 -8t13 -18.5t4.5 -33.5t-4.5 -33t-12.5 -18t-19 -7.5t-24 -1.5t-24 1.5t-19.5 7.5t-13 18t-4.5 33z" />
    <glyph glyph-name="slash" unicode="/" horiz-adv-x="356" 
d="M59 0q-29 0 -13 39q10 25 27 74t37 109.5t41.5 126.5t40.5 125.5t34 106.5t23 70q4 9 7 19t21 10h7q13 0 17.5 -6t-2.5 -28q-6 -18 -21 -62.5t-35 -104t-42.5 -127.5t-43 -130.5t-36.5 -114t-23 -79.5q-5 -22 -13.5 -25t-19.5 -3h-6z" />
    <glyph glyph-name="zero" unicode="0" horiz-adv-x="642" 
d="M315 -10q-65 0 -111 26.5t-75 73.5t-42.5 111t-13.5 139q0 74 15 138t45.5 111t78.5 74t114 27q64 0 109.5 -27t75 -74t43.5 -111t14 -138q1 -73 -15 -136.5t-48 -111t-79.5 -75t-110.5 -27.5zM316 38q50 0 87 25t61 67t36 96.5t12 113.5q0 60 -11 114.5t-34 96.5
t-58 66.5t-83 24.5q-51 0 -88 -24.5t-61 -66t-35.5 -96t-11.5 -114.5q0 -56 10 -110.5t32.5 -97.5t57.5 -69t86 -26z" />
    <glyph glyph-name="one" unicode="1" horiz-adv-x="441" 
d="M274 36v45v95t-0.5 123t-0.5 129v112.5t1 74.5l-179 -102q-8 -4 -17.5 -5.5t-17.5 12.5l-4 5q-6 10 -3 17.5t10 11.5l224 126h21q14 0 15.5 -8.5t1.5 -20.5q0 -3 -0.5 -30t0 -69.5t0.5 -95.5t0.5 -108t0.5 -108.5t0.5 -96t0.5 -70.5v-33q0 -6 1 -13t0 -13t-5 -10t-13 -4
h-17q-14 0 -16.5 12t-2.5 24z" />
    <glyph glyph-name="two" unicode="2" horiz-adv-x="563" 
d="M70 57q55 60 117.5 116t115 110t87.5 108t35 110q0 62 -40 101t-123 39q-35 0 -65.5 -10t-52.5 -21q-26 -13 -47 -30q-2 2 -5 4q-2 2 -4.5 4t-4.5 6q-13 23 12 42q5 4 19.5 13t36 18t50 16t61.5 7q49 0 89.5 -12.5t69 -37t44.5 -59.5t16 -80q0 -41 -19 -82.5t-49.5 -82.5
t-69 -80t-77 -74.5t-73.5 -67t-59 -57.5v-8h39h64h75h72h55t24 1q18 1 16 -21v-13q-1 -10 -3.5 -13t-14.5 -3h-371q-20 0 -20 21v36z" />
    <glyph glyph-name="three" unicode="3" horiz-adv-x="583" 
d="M84 44q-8 5 -15 14t-5 25q1 7 4 11t7 7t9 5q22 -19 52 -34q26 -13 62 -23t81 -10q49 0 83 12.5t55 33.5t31 48.5t10 57.5q0 25 -9 49t-27 42.5t-45 29.5t-63 11h-117q-9 0 -9 14v25q0 10 10 10h108q27 0 51 9t42 26.5t28.5 43t10.5 57.5q0 60 -41 96.5t-116 36.5
q-49 0 -83.5 -10.5t-56.5 -22.5q-26 -14 -42 -32q-2 1 -5 3q-4 3 -9 11q-9 14 -4.5 25t12.5 19t25.5 17.5t41.5 18t54.5 14.5t64.5 6q58 0 99 -15t67 -40t37.5 -57.5t11.5 -66.5q0 -50 -17.5 -80.5t-37.5 -47.5q-25 -20 -55 -29v-6q36 -9 65 -29q25 -17 45.5 -48.5
t20.5 -82.5q0 -43 -17.5 -79.5t-49 -62.5t-74.5 -41t-95 -15q-39 0 -71.5 6.5t-58 15.5t-42 18t-23.5 14z" />
    <glyph glyph-name="four" unicode="4" 
d="M109 242q-12 0 -17 6t-4 22q0 9 1.5 40t3.5 72.5t4.5 88t4.5 86t3.5 67t1.5 30.5q0 12 2 19t15 7h20q10 0 14 -6.5t3 -15.5q0 -5 -1.5 -30.5t-4 -61.5t-5.5 -79t-5.5 -82t-4 -70t-1.5 -44h262v30.5v45.5v51.5t-0.5 48.5t-0.5 37v16q0 12 2 21t16 9h13q11 0 18 -7t6 -18
v-234h107q5 1 9.5 -3.5t3.5 -13.5v-16q0 -10 -2.5 -13t-9.5 -3q-2 0 -18.5 0.5t-36 0.5h-36h-17.5v-205q2 -14 1.5 -26t-18.5 -12h-19q-14 0 -16.5 12t-1.5 24v53v49.5v50v54.5h-35h-54t-63.5 -0.5t-62.5 -0.5h-50h-27z" />
    <glyph glyph-name="five" unicode="5" horiz-adv-x="591" 
d="M77 62q-8 17 -2 28.5t19 16.5q18 -19 46 -34q24 -13 61.5 -23.5t90.5 -10.5q42 0 73.5 13t52.5 35t32 52t11 64q0 35 -12.5 64.5t-41.5 51t-75 33.5t-113 12q-32 0 -58 -3.5t-38 -3.5q-8 0 -14 6t-6 19q0 2 1 30.5t2 68.5t2 83t1 75q0 19 7.5 30t33.5 11h308
q10 0 12.5 -5.5t2.5 -16.5v-9q0 -14 -8 -16t-27 -2h-66h-75h-73h-61q0 -24 -1 -58t-2 -66.5t-1.5 -58.5t-0.5 -36q69 5 134 -1t115 -28.5t80.5 -66t30.5 -113.5q0 -46 -15.5 -85t-44.5 -67.5t-71 -44.5t-95 -16q-51 0 -89 7.5t-64.5 18.5t-41.5 23.5t-20 22.5z" />
    <glyph glyph-name="six" unicode="6" horiz-adv-x="617" 
d="M73 313q0 72 19.5 140t57.5 120.5t94.5 84.5t130.5 32q44 0 78 -8.5t54 -17.5q31 -15 17 -42q-3 -5 -5.5 -8t-4.5 -5q-3 -3 -5 -4q-17 10 -37 18q-17 7 -42 12.5t-55 5.5q-60 0 -107 -26.5t-78.5 -70.5t-48 -102.5t-16.5 -122.5h8q16 30 42 54q23 20 58.5 37t89.5 17
q41 0 81 -12.5t71.5 -38.5t51 -66t19.5 -95q0 -48 -18 -89.5t-48.5 -71.5t-71 -47t-85.5 -17q-119 0 -184.5 82.5t-65.5 240.5zM141 211q0 -41 14.5 -73t40 -54t58.5 -33.5t69 -11.5q40 0 71 14.5t52 39t32 56t11 66.5q0 42 -15 72.5t-39.5 50t-55.5 29t-64 9.5
q-45 0 -78 -15t-54 -38.5t-31.5 -53t-10.5 -58.5z" />
    <glyph glyph-name="seven" unicode="7" horiz-adv-x="542" 
d="M102 26q17 39 43 89t56.5 105t63.5 113t64 111.5t58.5 100t46.5 80.5v6h-355q-17 0 -15 21l1 12q1 10 3.5 13t13.5 3h395q8 0 13.5 -6t5.5 -15v-28q-24 -39 -53 -89.5t-60.5 -106.5t-64 -115t-61.5 -114.5t-54 -104.5t-41 -85q-6 -13 -13 -14.5t-12 -1.5h-20q-11 0 -15 9
t0 17z" />
    <glyph glyph-name="eight" unicode="8" horiz-adv-x="612" 
d="M64 191q-1 50 20 82.5t47 51.5q30 22 68 32v6q-29 14 -52 35q-20 18 -35.5 45.5t-15.5 67.5q0 34 13.5 66.5t40 57.5t66.5 40t93 15q56 0 96.5 -15t66.5 -40t38.5 -57.5t12.5 -66.5q0 -40 -17 -67.5t-37 -45.5q-24 -21 -53 -35v-6q37 -10 66 -32q25 -19 46 -51t21 -83
q0 -44 -17.5 -81t-49 -63.5t-75.5 -41.5t-98 -15q-57 0 -102 15t-76.5 41.5t-49 63.5t-17.5 81zM309 382q38 0 67.5 10.5t49.5 28t30 41t10 49.5q0 58 -41 94t-116 36q-81 0 -118.5 -36t-37.5 -94q0 -26 9.5 -49.5t28.5 -41t48.5 -28t69.5 -10.5zM121 191q1 -68 46.5 -110
t141.5 -42q97 0 140 42.5t43 109.5q0 30 -10.5 55.5t-32.5 45t-56.5 30.5t-83.5 11q-48 0 -83.5 -11t-58.5 -30.5t-34.5 -45t-11.5 -55.5z" />
    <glyph glyph-name="nine" unicode="9" horiz-adv-x="618" 
d="M103 56q4 11 11 16q3 3 6 4q16 -12 36 -21q17 -8 42 -14t55 -6q70 0 116.5 29.5t74 76.5t38.5 105t11 115h-8q-18 -31 -44 -55q-23 -20 -58.5 -37t-84.5 -17q-51 0 -93 15t-72 43.5t-46 69t-16 90.5q1 39 15 78.5t42 71t71 51t102 19.5q121 0 182.5 -84t61.5 -246
q0 -69 -15 -135.5t-49.5 -118.5t-90.5 -84t-137 -32q-55 0 -89 11t-49 22q-8 5 -12 13.5t0 19.5zM310 303q40 0 71 13t52 34.5t32 49.5t11 59q0 43 -13.5 77t-37.5 57.5t-56 35.5t-68 12q-44 0 -76 -14t-54 -37t-33 -54.5t-11 -65.5q0 -41 13 -72t37 -52t58 -32t75 -11z" />
    <glyph glyph-name="colon" unicode=":" horiz-adv-x="301" 
d="M151 438q-12 0 -22.5 2t-18.5 8.5t-12.5 18.5t-4.5 32q-2 40 14.5 50.5t42.5 10.5q12 0 22.5 -2t18.5 -8.5t12.5 -18.5t4.5 -32t-4.5 -32t-12 -18.5t-18 -8.5t-22.5 -2zM93 51q-2 40 14.5 50.5t42.5 10.5q12 0 23 -2t19 -8.5t12.5 -18.5t4.5 -32t-4.5 -32t-12 -18.5
t-18 -8.5t-22.5 -2t-23 2t-19 8.5t-12.5 18.5t-4.5 32z" />
    <glyph glyph-name="semicolon" unicode=";" horiz-adv-x="300" 
d="M151 438q-12 0 -22.5 2t-18.5 8.5t-12.5 18.5t-4.5 32q-2 40 14.5 50.5t42.5 10.5q12 0 22.5 -2t18.5 -8.5t12.5 -18.5t4.5 -32t-4.5 -32t-12 -18.5t-18 -8.5t-22.5 -2zM103 53q0 26 16 40t41 14q33 0 51 -23t18 -69q0 -48 -10 -81t-25 -54t-33.5 -30.5t-35.5 -9.5
q-14 0 -21 4.5t-9 9.5q-3 6 -1 15q26 2 46 16q17 12 32 38t15 74q-41 -6 -62.5 7.5t-21.5 48.5z" />
    <glyph glyph-name="less" unicode="&#x3c;" horiz-adv-x="600" 
d="M141 233q-15 12 -16.5 17t-1.5 16v19q0 10 1.5 14.5t16.5 16.5q10 7 34 26t54.5 43.5t63.5 51.5t61 49.5t47.5 39t23.5 19.5q17 14 27 10.5t14 -10.5l5 -9q5 -10 1 -17.5t-19 -19.5q-5 -3 -23 -17t-44 -34t-56.5 -44t-60.5 -47.5t-56.5 -44t-42.5 -33.5v-8
q16 -13 42.5 -33t57 -43.5t61.5 -47t57 -43t44.5 -33.5t22.5 -17q16 -12 20 -21t-1 -16l-6 -10q-5 -9 -15 -12t-27 11q-4 3 -23.5 19t-48 39t-61.5 49.5t-63.5 50.5t-54.5 43t-34 26z" />
    <glyph glyph-name="equal" unicode="=" horiz-adv-x="600" 
d="M152 428q-20 -1 -20 17v14q0 11 6 14t16 2h28h55h68h66.5h51.5h23q11 0 16 -3.5t5 -14.5v-13q0 -10 -6.5 -13.5t-15.5 -3.5q-3 0 -24.5 0.5t-52.5 0.5h-66.5h-67h-54.5h-28zM153 208q-19 -1 -19 17v14q-1 11 5.5 14t16.5 2h28.5h55h67h66h51.5h23q11 0 16 -3.5t5 -14.5
v-13q0 -10 -6 -13.5t-15 -3.5q-3 0 -25 0.5t-53 0.5h-66.5h-67h-54.5h-28z" />
    <glyph glyph-name="greater" unicode="&#x3e;" horiz-adv-x="600" 
d="M125 17q-5 7 -1 16t20 21q4 3 22.5 17t44.5 33.5t57 43t61.5 47t57 43.5t42.5 33v8q-17 13 -43 33.5t-56 44t-60.5 47.5t-56.5 44t-44 34t-23 17q-15 12 -19 19.5t1 17.5l5 9q4 7 14 10.5t27 -10.5q4 -3 23.5 -19.5t47.5 -39t61 -49.5t63.5 -51.5t54.5 -43t34 -26.5
q15 -12 16.5 -16.5t1.5 -14.5v-19q0 -11 -1.5 -16t-16.5 -17q-10 -8 -34 -26.5t-54.5 -42.5t-63.5 -50.5t-61.5 -49.5t-48 -39t-23.5 -19q-17 -14 -27 -11t-15 12z" />
    <glyph glyph-name="question" unicode="?" horiz-adv-x="487" 
d="M221 284q0 23 24.5 50.5t54.5 59t54.5 66t24.5 72.5q0 47 -31 78t-95 31q-38 0 -66 -10.5t-48 -22.5q-23 -14 -39 -32q-12 6 -18 15q-5 8 -5.5 17.5t11.5 22.5q10 11 27 21.5t38.5 19t47 13.5t52.5 5q88 0 136 -43.5t46 -114.5q-2 -44 -26.5 -82t-54.5 -70.5t-55 -61
t-27 -53.5q-2 -2 -6 -4q-6 -3 -15 -3q-30 0 -30 26zM178 49q-1 22 3.5 34.5t12.5 19t18.5 8t22.5 1.5t23.5 -1.5t20 -8t13.5 -19t6 -34.5q0 -20 -4.5 -32t-12.5 -18t-19 -7.5t-23 -1.5q-13 0 -24 1.5t-19.5 7.5t-13 18t-4.5 32z" />
    <glyph glyph-name="at" unicode="@" horiz-adv-x="1037" 
d="M99 280q0 88 29 166t85.5 136.5t138.5 93t189 34.5q80 0 152 -25.5t126 -72.5t86 -115t32 -153q0 -77 -19 -132.5t-47.5 -91.5t-62 -53t-62.5 -17q-28 0 -44 8.5t-23.5 22.5t-9 31t-1.5 35h-6q-3 -7 -17 -23t-38 -32.5t-57.5 -29t-75.5 -12.5q-47 0 -84.5 17t-64 47.5
t-41 72.5t-14.5 92q0 69 25 121.5t64.5 88t89.5 53.5t100 18q49 0 82 -13.5t52.5 -36.5t27.5 -54.5t8 -68.5v-235q0 -27 4.5 -42t21.5 -15q24 0 48.5 14.5t45 44.5t33.5 77t13 113q0 80 -29.5 140.5t-78 101t-110.5 61t-126 20.5q-93 0 -165.5 -31t-122.5 -84t-76 -123
t-26 -149q0 -87 22 -148.5t56.5 -101t76.5 -59t81 -22.5q7 -1 15 -3t8 -18v-10q0 -11 -7.5 -14.5t-14.5 -3.5q-44 0 -94.5 21.5t-94 67.5t-72 118t-28.5 173zM326 279q0 -38 11 -71t31 -58.5t48 -40t63 -14.5q37 0 68.5 13t56 33t41 44.5t24.5 48.5q1 29 1 73v87
q0 25 -6.5 47t-20.5 38.5t-36.5 26t-55.5 9.5q-44 0 -84.5 -16.5t-72 -47t-50 -74t-18.5 -98.5z" />
    <glyph glyph-name="A" unicode="A" horiz-adv-x="661" 
d="M48 0q-19 0 -7 27q1 3 12 30.5t28 70.5t38.5 97t44 110.5t44.5 111.5t39.5 99t29.5 74t14 36q4 12 11 18t24 6h6q22 0 28 -8t12 -25q2 -5 13.5 -34t29 -73t39.5 -99t45 -112t45 -111.5t39.5 -97.5t28.5 -70.5t12 -30.5q2 -6 -1 -12.5t-16 -6.5h-12q-16 0 -19.5 7t-5.5 12
q-5 12 -14 33t-19 44.5t-19 46l-15 37.5h-347q-9 -23 -19 -48t-19 -47t-16 -39.5t-10 -24.5q-5 -15 -12.5 -18t-12.5 -3h-19zM488 227q-24 59 -48.5 122t-46 118.5t-38 98t-23.5 61.5h-6q-7 -17 -22.5 -59t-36.5 -98t-45.5 -119.5t-49.5 -123.5h316z" />
    <glyph glyph-name="B" unicode="B" horiz-adv-x="667" 
d="M113 33q0 7 0.5 37.5t0.5 75t-0.5 99t-0.5 111v110t-0.5 95.5t-0.5 68.5v28.5q1 13 8 17.5t30 4.5h190q65 0 110 -13t73 -35.5t40.5 -53.5t12.5 -66q0 -51 -20.5 -82.5t-44.5 -48.5q-29 -20 -65 -30v-6q43 -6 76 -24q14 -8 28 -19.5t24.5 -28t17 -38t6.5 -48.5
q0 -41 -15 -75.5t-46 -59.5t-79 -38.5t-115 -13.5h-198q-22 0 -27 10.5t-5 22.5zM340 369q87 0 133.5 39.5t46.5 103.5q0 31 -14 53.5t-39 37t-58 21.5t-71 7h-173l1 -262h174zM344 49q40 0 75.5 7.5t62.5 24t43 42.5t16 64q0 66 -51.5 99.5t-145.5 33.5h-178v-271h178z" />
    <glyph glyph-name="C" unicode="C" horiz-adv-x="675" 
d="M74 340q-1 72 19 136t60.5 111.5t101.5 75t144 27.5q36 0 65.5 -5t52.5 -12t39.5 -15.5t26.5 -14.5q15 -10 18.5 -21.5t-13.5 -28.5q-2 -2 -3.5 -3t-3.5 -3l-3 -3q-21 16 -48 28q-23 11 -57 20t-78 9q-65 0 -114.5 -22.5t-83 -62.5t-50.5 -95t-17 -120q0 -66 19 -121.5
t53.5 -95.5t84 -62.5t110.5 -22.5q49 0 84.5 12t55.5 24q8 5 15.5 6t14.5 -10l10 -14q10 -14 -7 -25q-5 -3 -18.5 -10t-35 -14t-51.5 -12.5t-68 -5.5q-81 0 -141.5 26.5t-100.5 73t-60 110.5t-21 140z" />
    <glyph glyph-name="D" unicode="D" horiz-adv-x="725" 
d="M112 36q0 10 0.5 54t1 105.5t1 132.5t0.5 135v112.5v64.5q0 24 9.5 32t29.5 8h122q105 0 177 -25t116 -69.5t63 -105t19 -130.5q0 -78 -19 -142t-63.5 -110.5t-116.5 -72t-177 -25.5h-127q-14 0 -25 9t-11 27zM279 49q90 0 151 22t97.5 61.5t52 95t15.5 122.5
q0 57 -15 108t-51.5 89.5t-97 61t-151.5 22.5h-113v-121.5t-0.5 -154.5t-0.5 -162v-144h113z" />
    <glyph glyph-name="E" unicode="E" 
d="M114 36v36.5v72.5v96t-0.5 107t-0.5 105.5v92.5v66.5v27.5q0 6 0.5 13t3 13t7.5 10t15 4h388q11 0 14 -5.5t3 -12.5v-12q0 -11 -2.5 -15t-13.5 -4h-362l1 -270h87t97.5 0.5t84.5 0.5h47q14 0 14 -17v-18q0 -13 -14 -13h-47.5h-84h-97.5h-88q0 -70 -1 -139t0 -126h55.5h69
h74h69.5t56.5 0.5t35.5 0.5q18 0 18 -20v-14q0 -10 -3.5 -13t-14.5 -3h-388q-14 0 -19 12t-4 24z" />
    <glyph glyph-name="F" unicode="F" horiz-adv-x="589" 
d="M114 40q1 8 1.5 32t0.5 51q-1 38 -1 90.5t-0.5 109.5t-1 112.5t-0.5 100.5v73.5v30.5q0 24 11.5 32t31.5 8h342q7 0 17.5 -2.5t10.5 -16.5v-10q0 -11 -5 -15.5t-19 -4.5h-338l2 -276q18 0 57.5 0.5t85.5 0.5t91 0.5t73 0.5q8 0 16 -2.5t8 -15.5v-12q0 -8 -4.5 -14
t-12.5 -6h-51.5h-87.5t-96 -0.5t-78 -0.5v-86v-86t0.5 -67t0.5 -29q2 -15 -2.5 -26.5t-14.5 -11.5h-15q-15 0 -19.5 6.5t-2.5 33.5z" />
    <glyph glyph-name="G" unicode="G" horiz-adv-x="730" 
d="M74 340q-1 75 20 139.5t61 111t98.5 73t132.5 26.5q43 0 76.5 -5t58 -12.5t41.5 -15t26 -12.5q15 -8 23.5 -21t-8.5 -32q-3 -4 -9 -8q-3 -2 -5 -3q-24 17 -55 30q-26 11 -63.5 20.5t-83.5 9.5q-57 0 -104.5 -19.5t-81 -58t-52.5 -94t-19 -127.5q0 -80 19 -137t52 -94
t78 -54.5t96 -17.5q42 0 74 11.5t55 30.5t39 43t26 49q24 59 25 134l-182 1q-11 0 -13.5 4t-2.5 9v21q0 15 16 15h218q11 0 14.5 -4t3.5 -16q0 -5 -0.5 -28t-1.5 -55.5t-1.5 -69.5t-1 -70t-1 -57.5t0.5 -30.5q1 -26 -15 -26h-27q-17 0 -17 21q0 2 1 14.5t1.5 28t1 29.5
t0.5 19h-9q-20 -35 -49 -61q-25 -23 -63.5 -42t-92.5 -19q-84 0 -141 27t-92 74t-50.5 111t-16.5 138z" />
    <glyph glyph-name="H" unicode="H" horiz-adv-x="789" 
d="M117 36v36.5v72.5t-0.5 96t-1 107t-1 105.5t-0.5 92.5v66.5v27.5q0 6 -1 13t0 13t5 10t14 4h17q14 0 16.5 -11.5t1.5 -23.5q0 -4 -0.5 -29.5t-0.5 -65.5t0.5 -89.5t0.5 -101.5h452v281q0 6 -1 13t0 13t5 10t14 4h17q14 0 16.5 -11.5t1.5 -23.5v-30t0.5 -68.5t0.5 -94
t0.5 -107.5t0.5 -107.5t0.5 -95t1 -70t0.5 -32.5q0 -6 0.5 -13t-0.5 -13t-5 -10t-14 -4h-17q-14 0 -17 12t-2 24v33.5v64.5v84v94h-453q0 -50 0.5 -96.5t1 -83.5t1 -61.5t0.5 -30.5t1 -13t-0.5 -13t-6 -10t-13.5 -4h-16q-14 0 -17.5 12t-1.5 24z" />
    <glyph glyph-name="I" unicode="I" horiz-adv-x="297" 
d="M121 36q0 10 0.5 49.5t0.5 96.5t0.5 123.5t0.5 130.5v118v86q0 6 -0.5 13t0.5 13t5 10t13 4h16q14 0 17 -11.5t2 -23.5q-1 -31 -1.5 -76.5t-0.5 -99.5v-112.5v-115.5t-0.5 -109t-0.5 -92q0 -6 1 -13t0 -13t-5 -10t-13 -4h-16q-14 0 -17 12t-2 24z" />
    <glyph glyph-name="J" unicode="J" horiz-adv-x="535" 
d="M40 76q-6 9 -8.5 16.5t6.5 13.5l17 13q10 7 17 2.5t12 -10.5q6 -7 16.5 -19t27.5 -24t41 -20.5t57 -8.5q69 0 108.5 39t40.5 129v63.5v90t0.5 99t0.5 93v70v30.5q-1 14 1 20.5t17 6.5h17q14 0 16 -11.5t2 -23.5v-31.5v-66t-0.5 -88t-0.5 -95.5v-88.5v-67.5
q1 -111 -53.5 -164.5t-148.5 -53.5q-43 0 -75 10t-54.5 24t-36 28.5t-20.5 23.5z" />
    <glyph glyph-name="K" unicode="K" horiz-adv-x="689" 
d="M113 31v37v74v97.5v109v108v94v67.5v28q0 13 1.5 23.5t15.5 10.5h17q14 0 17.5 -8.5t3.5 -20.5v-24.5t-0.5 -64.5t-1 -91.5t-1.5 -106.5h157q11 13 32.5 38t48 55.5t55 64t53.5 63t43.5 51.5t24.5 30q5 8 11.5 11t14.5 3h25q8 0 12.5 -4.5t-1.5 -12.5q-11 -12 -31 -35
t-45 -52.5t-53 -63t-55 -65.5t-50 -60t-38 -47q13 -18 32 -43.5t40.5 -54t44 -58t42 -54.5t33.5 -43.5t20 -24.5q7 -8 13 -13t13 -7t17 -2.5t25 -0.5q8 -21 -4 -35t-34 -14q-24 0 -40 10t-35 35q-11 14 -28.5 37t-38 50t-43 56.5t-43 56t-37.5 48.5t-27 34h-153
q0 -50 0.5 -98.5t0.5 -87.5t0.5 -65t0.5 -31q1 -13 -2.5 -24t-17.5 -11h-16q-14 0 -16.5 9.5t-2.5 21.5z" />
    <glyph glyph-name="L" unicode="L" horiz-adv-x="591" 
d="M113 622q0 13 -0.5 24t0.5 18.5t5 11.5t14 4h15q11 0 15 -5.5t4 -14t-1.5 -18.5t-1.5 -19v-54q0 -35 0.5 -81.5t0.5 -98t0.5 -103t0.5 -98v-83v-56.5h87.5t104.5 0.5t93.5 1t55.5 0.5q9 0 15.5 -3.5t6.5 -14.5v-12q0 -21 -21 -21h-362q-32 0 -32 35v587z" />
    <glyph glyph-name="M" unicode="M" horiz-adv-x="921" 
d="M98 28q1 10 5 58.5t9.5 116.5t11.5 144.5t11.5 143t9 112t3.5 51.5q-1 16 5.5 21t20.5 5h32q12 0 21 -3.5t16 -22.5q2 -6 12.5 -30.5t26 -61t34.5 -81t39 -89.5q46 -106 103 -238h8q55 131 100 237q19 45 37.5 89t34 80t25.5 61t13 31q8 22 19 25t25 3h22q13 0 20 -3
t10 -8.5t3.5 -11.5t1.5 -12q2 -19 5.5 -64t7.5 -103.5t8.5 -124.5t9 -127.5t8 -113t5.5 -79.5q0 -6 1 -12t0 -10.5t-5 -7.5t-13 -3h-18q-16 0 -17 9.5t-2 20.5q0 5 -2.5 45.5t-6.5 99.5t-9 129t-10 135t-8.5 115.5t-4.5 71.5h-7q-6 -15 -22.5 -55t-37.5 -91.5t-45 -108.5
t-44 -105.5t-34 -82.5t-16 -40q-9 -20 -19 -27t-31 -7h-14q-23 0 -32.5 5.5t-17.5 22.5q-1 4 -15.5 38t-35.5 84t-45.5 109t-47 112t-38.5 93.5t-21 53.5h-5q-1 -37 -5 -90.5t-8.5 -114t-10 -123t-10 -116.5t-8 -95t-3.5 -58q0 -14 -1.5 -22t-15.5 -8h-19q-14 0 -17.5 8
t-1.5 20z" />
    <glyph glyph-name="N" unicode="N" horiz-adv-x="776" 
d="M113 36v58.5v116v143.5t-0.5 141.5t-0.5 109.5v47q2 28 28 28h20l441 -549h8v52.5v93t-0.5 114t-1 114t-1 93.5t-0.5 53q0 6 1 17.5t13 11.5h20q14 0 17.5 -11.5t3.5 -23.5v-71v-116v-136.5t0.5 -132t1 -102t0.5 -47.5t0.5 -13t-0.5 -13t-5 -10t-13 -4h-19q-7 0 -10.5 3
t-5 8t-2.5 10.5t-2 10.5q-2 5 -19 29t-45 60t-63 80.5t-72.5 91.5t-75 93.5t-69 85.5t-54.5 68t-33 41h-10v-63t0.5 -105t0.5 -124t0.5 -119.5t1 -91t0.5 -38.5q-1 -6 -0.5 -13t-1 -13t-5.5 -10t-13 -4h-16q-14 0 -17 12t-2 24z" />
    <glyph glyph-name="O" unicode="O" horiz-adv-x="752" 
d="M74 340q-1 74 18 138t57.5 111t96.5 74t135 27q72 0 127 -26.5t92.5 -73.5t57 -111t20.5 -139t-18.5 -139t-58.5 -111t-95.5 -73.5t-129.5 -26.5q-79 0 -135.5 26.5t-93.5 73t-54.5 111t-18.5 139.5zM131 341q0 -60 13 -115t42.5 -96.5t77 -66t115.5 -24.5q64 0 110 25
t75.5 67t43.5 96.5t14 113.5q0 61 -14 115.5t-43.5 95.5t-75.5 65t-110 24q-68 0 -115 -24t-76.5 -65t-43 -95.5t-13.5 -115.5z" />
    <glyph glyph-name="P" unicode="P" horiz-adv-x="669" 
d="M113 36v36.5v72.5v96v107t0.5 105.5t0.5 92.5v66.5v27.5q0 13 3.5 26.5t23.5 13.5h185q70 0 122 -17t86.5 -47.5t52 -72t18.5 -90.5q1 -51 -18 -94t-55 -73.5t-88.5 -48t-118.5 -17.5h-159v-38.5v-59.5t0.5 -55.5t0.5 -26.5q0 -6 0.5 -13t-0.5 -13t-5 -10t-14 -4h-16
q-14 0 -17 12t-2 24zM326 268q111 0 167 51.5t56 133.5q0 81 -57 129.5t-166 48.5h-159v-40v-64.5v-77v-77v-65v-39.5h159z" />
    <glyph glyph-name="Q" unicode="Q" horiz-adv-x="752" 
d="M73 340q0 73 19 136.5t58 111t98 75t138 27.5q69 0 123 -23.5t91.5 -66t57.5 -101t20 -128.5q0 -49 -8.5 -89.5t-22 -74t-31 -60t-35.5 -47.5q-42 -48 -96 -77q57 -63 108.5 -97.5t105.5 -35.5q4 -22 -7.5 -36t-31.5 -14q-17 0 -38 5.5t-48.5 24t-62.5 54t-79 94.5h-5
q-3 -8 -9 -14q-5 -5 -15 -9.5t-27 -4.5q-48 0 -101.5 20t-98 63t-74 109t-29.5 158zM130 340q0 -81 25.5 -139.5t67 -95.5t95 -54t110.5 -16q54 26 96 72q18 19 35.5 45t31 58.5t22 72t8.5 87.5q0 51 -13 99.5t-41.5 86.5t-73.5 61.5t-110 23.5q-68 0 -116 -24.5t-78.5 -66
t-44.5 -96t-14 -114.5z" />
    <glyph glyph-name="R" unicode="R" horiz-adv-x="695" 
d="M112 28q0 7 0.5 37t0.5 74t0.5 98.5t0.5 110t0.5 108.5t0.5 94.5t-0.5 68t-0.5 28.5q-1 15 7.5 24t26.5 9h201q63 0 110.5 -17t79.5 -46t49 -67.5t18 -82.5q0 -50 -18.5 -88t-46 -64t-60.5 -41.5t-61 -21.5l141 -190q6 -8 11 -12.5t12 -7t17 -3t25 -0.5q8 -21 -4 -35
t-34 -14q-27 0 -42 11.5t-32 34.5l-147 209h-203q0 -10 -0.5 -36.5t-0.5 -59v-64.5t1 -52q1 -21 -4 -27t-15 -6h-13q-14 0 -17 8t-3 20zM349 292q44 0 81 11t64 33t42 54.5t14 76.5q0 30 -13 59.5t-38 53t-62.5 37.5t-87.5 14h-183v-46.5t-0.5 -64.5t-1 -72.5t-1 -69.5
t-0.5 -55.5v-30.5h186z" />
    <glyph glyph-name="S" unicode="S" horiz-adv-x="588" 
d="M99 38q-12 10 -16.5 19t-5.5 22q-1 8 3 13.5t9 9.5t13 7q18 -20 44 -35q22 -14 55.5 -24.5t79.5 -10.5q94 0 146 38t52 100q0 45 -36 79.5t-96 49.5l-122 33q-32 8 -62.5 20.5t-55 31.5t-39.5 47t-15 67q0 38 15.5 71.5t46 59t75 40t102.5 14.5q64 0 103 -10.5t70 -26.5
q13 -8 23.5 -20t4.5 -26q-6 -11 -15 -17q-4 -4 -10 -5q-18 16 -44 28q-22 11 -54.5 19.5t-77.5 8.5q-47 0 -81.5 -10.5t-57 -29t-33.5 -43.5t-11 -53q0 -27 12 -46t31 -32t42 -21.5t45 -14.5l125 -34q81 -23 126 -65t45 -114q0 -43 -18 -77.5t-51 -59t-80 -38t-105 -13.5
q-67 0 -114 16.5t-68 31.5z" />
    <glyph glyph-name="T" unicode="T" horiz-adv-x="591" 
d="M265 35q0 4 0.5 41.5t1 94.5t1 125t0.5 133v119v83h-25.5h-42.5t-50 0.5t-48 0.5h-37h-16q-16 0 -16 19v11q0 10 4 14t16 4h487q17 0 17 -19v-15q1 -10 -2 -12.5t-13 -2.5h-223q-1 -35 -1 -91v-121t0.5 -131.5t1 -120.5t1 -89t0.5 -38q-1 -6 -0.5 -13t-0.5 -13t-5 -10
t-13 -4h-18q-14 0 -16.5 11.5t-2.5 23.5z" />
    <glyph glyph-name="U" unicode="U" horiz-adv-x="748" 
d="M105 317q0 50 0.5 107t0.5 106v83v39q2 28 18 28h18q14 0 15.5 -7t1.5 -19v-35v-72t0.5 -103t0.5 -127q0 -63 10 -114t34.5 -87.5t66 -56.5t104.5 -20q58 0 98.5 19.5t66 55.5t37 88t11.5 117v122t-0.5 103.5t-0.5 74v33.5q0 28 16 28h16q14 0 19 -7t4 -19v-28
t-0.5 -56.5t0 -72.5t0 -75t-0.5 -64v-40q-1 -74 -14 -134.5t-43.5 -103.5t-81.5 -66.5t-128 -23.5q-78 0 -130 23t-83 66t-43.5 103.5t-12.5 134.5z" />
    <glyph glyph-name="V" unicode="V" horiz-adv-x="637" 
d="M264 38q-2 5 -12 34t-26 72.5t-35.5 98t-40 110.5t-40 109.5t-34.5 96t-24.5 69t-10.5 28.5q-6 14 -4 19t13 5h20q11 0 16 -6t9 -17q1 -4 10.5 -29t24 -64.5t32.5 -89.5t37 -103t38 -105t35 -96.5t27.5 -76.5t16.5 -45h6q4 12 15.5 43t27.5 74.5t35 95.5t38 105
t37.5 103.5t33 90.5t24.5 67t12 32q6 15 11 18t17 3h13q19 0 12 -21q-2 -5 -12 -32.5t-25.5 -70t-35 -95.5t-39.5 -108.5t-39 -109.5t-35 -97.5t-26 -72.5t-12 -36q-5 -18 -19 -27.5t-31 -9.5h-9q-23 0 -34 10.5t-17 27.5z" />
    <glyph glyph-name="W" unicode="W" horiz-adv-x="999" 
d="M215 35q-2 7 -10.5 36.5t-21 73t-28 97t-31.5 108.5t-31.5 108.5t-27.5 96t-20 70t-9 32.5q-5 23 24 23h7q14 0 19.5 -6.5t7.5 -14.5q2 -7 13 -46t27.5 -95.5t35.5 -124.5t37 -133t33 -120t22 -86h6q8 27 23.5 77t34 110t38 124.5t37.5 121.5t31.5 101.5t20.5 63.5
q8 28 41 28h12q13 0 23.5 -7.5t14.5 -20.5q2 -7 14.5 -46t30 -95.5t38.5 -124t41 -131.5t36.5 -118t25.5 -84h5q8 32 23 86.5t33 118.5t37 130.5t35 123t27 95.5t13 48q3 13 9 19t18 6h11q11 0 17.5 -5.5t3.5 -16.5l-178 -623q-2 -9 -11 -22t-26 -13h-20q-16 0 -26 6.5
t-16 26.5q-8 25 -22.5 70t-32 101t-36.5 117t-36.5 118.5t-32.5 106t-23 78.5h-4q-10 -30 -25.5 -78.5t-33.5 -106t-37 -118.5t-36 -116.5t-31 -100.5t-21 -69q-7 -23 -16.5 -29t-27.5 -6h-15q-20 0 -28.5 12t-11.5 23z" />
    <glyph glyph-name="X" unicode="X" horiz-adv-x="605" 
d="M36 23l20 28t35.5 49.5t44 62t47 66.5t44.5 62.5t36 49.5q-31 42 -67 91t-68.5 93.5t-58 79.5t-34.5 50q-9 14 -3.5 19.5t16.5 5.5h19q10 0 16 -5t10 -11q4 -7 18 -26.5t33 -46.5t41.5 -58t43 -60t37.5 -52.5t27 -36.5h5q11 14 29.5 39t40 54.5t43.5 60t40.5 57
t31.5 45.5t16 24q4 8 10 12t18 4h22q13 0 13.5 -7.5t-6.5 -18.5l-227 -313q14 -20 35 -49t44.5 -61.5t47.5 -65.5t44.5 -61t35.5 -49t21 -30q6 -11 0.5 -18t-16.5 -7h-18q-10 0 -16 4.5t-11 11.5q-4 5 -16.5 23.5t-30 43.5l-38.5 55t-41.5 59t-39 55.5t-30.5 43.5h-6
q-12 -15 -30 -39.5t-38.5 -53t-42 -59t-40 -56.5t-32 -45.5t-17.5 -25.5q-5 -8 -11 -12.5t-18 -4.5h-16q-12 0 -14.5 7.5t1.5 15.5z" />
    <glyph glyph-name="Y" unicode="Y" horiz-adv-x="620" 
d="M283 36v23.5v44.5v55t0.5 55.5t0.5 46.5v27q-11 16 -33 48.5t-49 71.5t-56 81t-54 77t-42 59.5t-20 29.5q-2 2 -3 6.5t0 8.5t5 7t12 3h17q14 0 21 -6t12 -15q4 -8 18.5 -29.5t34.5 -51.5l43 -64.5l45 -67.5t41 -60.5t30 -43.5h8q10 15 29.5 43t42.5 62t47.5 70.5t45 67
t35 52t17.5 26.5q6 9 11.5 13t19.5 4h16q12 0 14.5 -7t-2.5 -15q-6 -9 -24.5 -36t-44 -64t-54 -79t-55 -80t-47 -68t-29.5 -43v-28t0.5 -46.5t0 -55.5t0 -54t0.5 -43v-21q0 -6 1 -13t0 -13t-5 -10t-13 -4h-16q-14 0 -18.5 12t-2.5 24z" />
    <glyph glyph-name="Z" unicode="Z" horiz-adv-x="589" 
d="M54 56q3 4 20.5 27.5t44.5 60t61 82t70.5 94t72 97t66.5 90t54 72.5t33 46v6h-373q-9 0 -12 5.5t-3 15.5v12q0 10 3.5 13t14.5 3h413q8 0 12 -6t6 -15v-33q-18 -23 -47.5 -62.5t-65.5 -88t-77.5 -104t-82.5 -111t-79.5 -108t-70.5 -95.5v-8h43h71h84.5h84h68.5t38 1
q17 1 17 -18v-16q0 -10 -3.5 -13t-14.5 -3h-431q-18 0 -19 20z" />
    <glyph glyph-name="bracketleft" unicode="[" horiz-adv-x="377" 
d="M108 29v80v104.5t0.5 118.5t0.5 123.5v118v102.5q0 20 5 32t32 12h194q10 0 13 -5.5t3 -16.5v-11q0 -11 -5.5 -13.5t-14.5 -2.5h-174q0 -22 -0.5 -62.5t-1 -92.5t-0.5 -112t-0.5 -121t-0.5 -119.5t-0.5 -107.5t0 -85t0.5 -52h49.5h53t47 0.5t31.5 0.5q8 0 12 -3.5
t4 -14.5v-16q0 -10 -3 -13t-14 -3h-199q-23 0 -28.5 9t-4.5 35q0 5 0.5 21t0.5 34.5v35v24.5z" />
    <glyph glyph-name="backslash" unicode="\" horiz-adv-x="357" 
d="M253 28q-8 27 -24.5 78.5t-36.5 114t-42 130t-41.5 126.5t-34.5 103.5t-21 62.5q-8 22 -3.5 29.5t18.5 7.5h8q14 0 18.5 -10t7.5 -19q8 -23 23.5 -70t34.5 -106.5t40.5 -125.5t41.5 -126.5t36.5 -109.5t26.5 -74q14 -39 -9 -39h-13q-8 0 -15.5 3t-14.5 25z" />
    <glyph glyph-name="bracketright" unicode="]" horiz-adv-x="378" 
d="M38 -80q10 0 30.5 -0.5t45 -0.5h50.5h48v52t0.5 85t0.5 107.5v119.5v121t-0.5 112t-0.5 92.5v62.5h-174q-17 -2 -16 18v11q0 11 3 15.5t13 4.5h204q15 0 19.5 -13.5t3.5 -26.5v-774q0 -12 -7 -24t-20 -12h-199q-11 0 -14 3t-3 13v16q0 11 4 14.5t12 3.5z" />
    <glyph glyph-name="asciicircum" unicode="^" horiz-adv-x="614" 
d="M102 368q-13 9 -13 16.5t11 24.5q2 4 14.5 21t30 42t38 54t39 55.5t32.5 48.5t20 32q7 12 11.5 15t12.5 3h19q8 0 13 -4.5t11 -13.5q6 -10 20.5 -31.5t33 -48.5t38.5 -56t37 -53.5t29 -42t15 -21.5q11 -18 11 -25t-13 -16l-8 -4q-15 -9 -29 14q-5 8 -25.5 39.5
t-46.5 70.5t-52.5 78.5t-43.5 63.5q-11 -16 -26.5 -39.5t-33 -49.5t-35 -52.5t-32 -49t-25.5 -39t-14 -22.5q-7 -11 -15 -15t-16 1z" />
    <glyph glyph-name="underscore" unicode="_" horiz-adv-x="500" 
d="M17 -32q116 -1 212 -1h81.5h74.5t58.5 0.5t33.5 1.5q10 1 16.5 -3t6.5 -15v-14q0 -7 -4 -11t-19 -4h-41h-84.5t-106 -0.5t-105.5 -0.5h-83.5h-38.5q-10 0 -14 4t-4 16v10q0 10 5 13.5t12 3.5z" />
    <glyph glyph-name="grave" unicode="`" horiz-adv-x="623" 
d="M203 716q-5 2 -7.5 8.5t1.5 15.5l8 18q4 9 9.5 11.5t16.5 -3.5q14 -8 41 -22t57 -29.5t57.5 -29.5t41.5 -21t4 -25l-3 -6q-4 -7 -7 -10.5t-14 2.5q-5 2 -37 16t-70 31q-44 19 -98 44z" />
    <glyph glyph-name="a" unicode="a" horiz-adv-x="573" 
d="M57 161q3 73 54 118t143 47q31 0 60 -3.5t52 -9t38.5 -10.5t20.5 -8v64q0 81 -37 117.5t-107 36.5q-40 0 -70.5 -7.5t-52.5 -16.5q-26 -11 -45 -24q-2 1 -7 6.5t-8 13t-2 16t12 16.5q21 16 66 29.5t111 13.5q99 0 147.5 -54t46.5 -147q-1 -34 -2 -82.5t-1 -97.5t1 -91
t3 -63q2 -19 -2 -27t-27 -8q-13 0 -19 8t-7 20.5t1 27.5t4 28h-5q-25 -24 -56 -42q-26 -16 -61.5 -29t-75.5 -13q-48 0 -81.5 14.5t-55 38t-31 54.5t-7.5 64zM110 161q-1 -55 32 -90.5t99 -35.5q32 0 61.5 9t53.5 23.5t42 32.5t27 36v116q-6 2 -20.5 7t-36.5 10t-49.5 8.5
t-59.5 3.5q-66 0 -107 -31t-42 -89z" />
    <glyph glyph-name="b" unicode="b" horiz-adv-x="599" 
d="M95 678q-2 14 1 23t23 9q17 0 22.5 -7.5t4.5 -21.5q0 -7 -1 -61t-1 -139h8q9 10 23.5 24t35.5 26t49.5 20.5t64.5 8.5q52 0 91.5 -19.5t66 -55.5t40 -87t13.5 -113q0 -66 -19 -120.5t-53.5 -93.5t-82 -60t-103.5 -21q-51 0 -86 13.5t-56.5 37t-31 54.5t-9.5 66v517z
M145 147q2 -49 33 -80.5t100 -31.5q47 0 84.5 18t64 51t40.5 79t14 102q0 115 -44.5 172.5t-119.5 57.5q-40 0 -70 -13.5t-51.5 -33t-34 -40t-17.5 -35.5v-63.5v-73t0.5 -66.5t0.5 -43z" />
    <glyph glyph-name="c" unicode="c" horiz-adv-x="551" 
d="M69 275q0 60 18 112t51 90.5t79.5 60.5t103.5 22q45 0 74.5 -9.5t47 -23.5t25 -30t10.5 -29q5 -31 -8 -44.5t-38 -7.5v5q0 2 0.5 5t0.5 5q0 12 -5.5 27t-18.5 27.5t-34.5 21t-53.5 8.5q-44 0 -80 -16.5t-62 -47.5t-40.5 -75.5t-14.5 -100.5q-1 -115 49 -177.5t136 -62.5
q35 0 62.5 7t47.5 16q22 11 39 24q5 -2 9 -6q3 -4 5.5 -10t0.5 -15q-2 -10 -14 -20.5t-33.5 -19.5t-51 -15t-65.5 -6q-54 0 -98.5 17t-76 52.5t-48.5 89t-17 126.5z" />
    <glyph glyph-name="d" unicode="d" horiz-adv-x="616" 
d="M286 -10q-52 0 -93.5 22t-70 61t-44 92t-14.5 115q1 65 18.5 117t47 88t68.5 55.5t83 19.5q45 0 77.5 -13.5t54 -31t33 -35t16.5 -25.5h7q-1 28 -0.5 65t0.5 71t0.5 59.5t-0.5 30.5q-2 14 1.5 21.5t17.5 7.5q20 0 26.5 -6.5t6.5 -20.5q-1 -4 -1 -42t-0.5 -96t-1 -129
l-1 -142t-0.5 -135.5v-108.5q0 -10 1 -21.5t-8 -15.5q-6 -3 -19 -3q-14 0 -19.5 8.5t-7 22.5t0 31.5t0.5 34.5h-5q-15 -28 -39 -49q-21 -18 -54 -33t-81 -15zM297 35q37 0 68.5 14.5t54.5 38t36 53.5t13 61v169q-5 11 -17 35t-34 48t-54 42.5t-77 18.5q-32 0 -62.5 -15
t-54.5 -44.5t-38.5 -73t-14.5 -100.5q0 -54 12 -99.5t35 -78.5t56.5 -51t76.5 -18z" />
    <glyph glyph-name="e" unicode="e" horiz-adv-x="595" 
d="M71 278q0 60 16.5 111.5t47.5 89.5t75.5 59.5t99.5 21.5q49 0 87.5 -17t64.5 -45t39.5 -63.5t13.5 -71.5q0 -32 -2.5 -49.5t-7.5 -25.5t-12.5 -9t-17.5 -1h-349l-2 -3q0 -48 11 -91.5t35 -76.5t61.5 -52.5t91.5 -19.5q33 0 60 8t47 18t31.5 18.5t12.5 9.5q2 0 6 -2
q2 -2 5.5 -4t6.5 -7q4 -6 3 -15.5t-9 -17.5q-6 -6 -21 -15.5t-36 -17.5t-48.5 -14t-58.5 -6q-66 0 -113.5 21.5t-78 60t-45 91.5t-14.5 115zM460 323q0 5 1 12q0 5 0.5 12.5t0.5 15.5q0 27 -9.5 54.5t-29 49t-48 35t-65.5 13.5q-49 0 -82.5 -20.5t-55 -50.5t-32 -63
t-11.5 -58h331z" />
    <glyph glyph-name="f" unicode="f" horiz-adv-x="377" 
d="M138 28v34v76.5v98.5v100t0.5 81.5t0.5 41.5h-31.5t-38.5 -1q-11 -1 -13.5 2.5t-2.5 11.5v9q0 6 1.5 9t7.5 4l77 12v48q0 32 8.5 60.5t26 49.5t43 33t60.5 12q28 0 49.5 -2.5t33.5 -4.5q2 -12 0 -21q-2 -8 -7 -14.5t-16 -6.5q-15 0 -30 2t-30 2q-38 0 -63.5 -26.5
t-25.5 -83.5v-50h124q11 0 16 -3.5t4 -14.5l-1 -12q-1 -9 -5 -12t-11 -3h-129v-60v-85.5t0.5 -95.5t0.5 -90v-68.5v-31.5q0 -12 -2.5 -20.5t-15.5 -8.5h-12q-14 0 -16.5 8t-2.5 20z" />
    <glyph glyph-name="g" unicode="g" horiz-adv-x="615" 
d="M81 -30q0 32 13.5 52t29.5 31q18 13 43 20v5q-12 5 -22 15q-8 8 -14.5 20.5t-6.5 31.5q0 23 10 38.5t23 24.5q15 11 34 15v5q-33 9 -59 28q-23 17 -41 46t-18 77q0 36 13 69t40 58t67.5 39.5t96.5 14.5h238q5 -15 3 -26q-2 -10 -10 -17.5t-29 -7.5q-29 0 -52 6t-30 7
l-1 -4q10 -5 27.5 -15t34 -27.5t28.5 -41.5t12 -55q0 -45 -18.5 -77t-51 -53t-76.5 -31t-95 -10t-72 -13.5t-21 -45.5q0 -19 17.5 -29.5t55.5 -10.5h129q79 0 119 -30t40 -86q0 -30 -15 -57.5t-45 -48.5t-74 -34t-102 -13q-106 0 -164 34.5t-57 95.5zM282 253
q91 0 133.5 33.5t42.5 92.5t-42 97.5t-126 38.5q-49 0 -81 -12.5t-50.5 -32.5t-26 -44t-7.5 -47q0 -35 12.5 -59t34 -39t50 -21.5t60.5 -6.5zM134 -20q0 -43 42.5 -69t125.5 -26q46 0 80 9.5t57 25t34.5 34.5t11.5 39q0 10 -4 22.5t-15.5 23.5t-32.5 18t-54 7h-169
q-3 -1 -15 -4.5t-25.5 -13t-24.5 -25.5t-11 -41z" />
    <glyph glyph-name="h" unicode="h" horiz-adv-x="644" 
d="M98 33q0 7 1 21t1.5 31t1 35t0.5 35q0 27 0.5 72t0.5 98v109v105v86v52q0 13 2 23t20 10q20 0 26 -9t4 -23q-3 -45 -3 -101t-1 -116h7q4 4 18 20t38 33.5t57.5 31.5t77.5 14q96 0 149 -51t53 -159v-319q0 -7 1 -14t0 -13t-6.5 -10t-18.5 -4q-22 0 -25 9.5t-3 29.5v322
q0 34 -9.5 64t-28.5 52.5t-48 35t-69 12.5q-41 0 -73.5 -13.5t-56.5 -33.5t-39.5 -43.5t-22.5 -42.5q0 -33 -0.5 -71t-0.5 -73.5v-63.5v-40q0 -15 -0.5 -32t-0.5 -31.5v-25v-12.5q2 -23 -5 -28t-17 -5h-8q-16 0 -19.5 8t-2.5 25z" />
    <glyph glyph-name="i" unicode="i" horiz-adv-x="283" 
d="M146 641q-19 0 -30 7.5t-11 37.5q0 29 10 37.5t27 8.5t29.5 -7.5t12.5 -38.5q0 -30 -11 -37.5t-27 -7.5zM114 36q0 7 0.5 20.5t1 30t0.5 34v34.5v94v105v96v67q0 13 1.5 23t19.5 10q20 0 25.5 -4.5t3.5 -18.5q-2 -51 -2 -107.5t0.5 -109.5t0.5 -99v-77t0.5 -59t0.5 -39
q0 -20 -5 -28t-17 -8h-7q-17 0 -20.5 9.5t-2.5 26.5z" />
    <glyph glyph-name="j" unicode="j" horiz-adv-x="298" 
d="M163 641q-19 0 -29.5 7.5t-10.5 37.5q0 31 10.5 38.5t27.5 7.5t29 -7.5t12 -38.5q0 -30 -11 -37.5t-28 -7.5zM28 -112q8 0 18 -1.5t23 -1.5q27 0 46 22t20 71q0 26 0.5 70t0.5 96.5t-0.5 109.5t-1 109t-0.5 95v67q0 12 3.5 18.5t17.5 6.5q23 0 26.5 -5t2.5 -21
q-1 -26 -1.5 -65.5t-0.5 -87t0.5 -100t1 -103t1 -96.5t0.5 -81q0 -76 -33 -114t-83 -38q-22 0 -38 2.5t-24 4.5q-2 11 0 21q2 8 6 14.5t15 6.5z" />
    <glyph glyph-name="k" unicode="k" horiz-adv-x="610" 
d="M97 35q0 10 0.5 60.5t1 121.5t1 151t1 148.5t1 114.5t0.5 49q0 11 2 20.5t18 9.5q21 0 26 -7t5 -21q0 -8 -0.5 -37t-1 -65t-1 -71t-0.5 -55h7q10 18 26.5 37t41 34.5t56.5 25t72 9.5q43 0 77 -13t57.5 -35t36 -52.5t12.5 -64.5q0 -50 -23.5 -82.5t-51.5 -51.5
q-33 -22 -75 -34q6 -12 22.5 -35t37.5 -50.5t43.5 -57.5t41.5 -55q2 -4 5.5 -7.5l6.5 -6.5q4 -4 7 -8q-2 -5 -6 -9q-4 -3 -10 -5.5t-16 -2.5q-14 0 -23.5 5.5t-15.5 13.5q-12 14 -33 44t-44.5 64.5t-46 68.5t-37.5 56l7 14q24 1 51.5 8.5t50.5 24t38 42.5t15 64
q0 24 -9 45.5t-25.5 38t-40.5 26.5t-54 10q-55 0 -93 -18.5t-62 -50t-35 -74.5t-11 -91q0 -72 -0.5 -130.5t-0.5 -115.5v-11t-1.5 -11t-5.5 -9t-13 -4h-9q-17 0 -20 9t-3 26z" />
    <glyph glyph-name="l" unicode="l" horiz-adv-x="293" 
d="M98 65v47.5t0.5 77t1 96t1 104t1 102t1 89t0.5 65.5v31q-1 19 1.5 26t19.5 7q13 0 20 -3.5t9.5 -8.5t2 -11.5t-0.5 -13.5q-1 -11 -1.5 -49t-1 -92t-1.5 -118t-1.5 -127.5t-1 -121.5t-0.5 -99q0 -25 15.5 -29t48.5 3q11 2 14.5 -0.5t4.5 -7.5l1 -15q0 -7 -1 -9.5t-7 -5.5
t-22 -7.5t-32 -4.5q-32 0 -52 15.5t-20 59.5z" />
    <glyph glyph-name="m" unicode="m" horiz-adv-x="966" 
d="M94 35q0 7 1 20.5t1.5 30t1 34.5t0.5 35v66v78v79.5t0.5 71.5t0.5 53v24q0 13 1 23t18 10q20 0 26 -8.5t6 -23.5q0 -14 -1.5 -33t-1.5 -34h7q3 4 14 20.5t32 33.5t52 31t75 14q68 0 106 -28t57 -71h5q3 4 17 20.5t37.5 33.5t56 31t72.5 14q97 0 142 -57t45 -152
q0 -30 -0.5 -62.5t-1 -71t-0.5 -84v-101.5q0 -7 1.5 -14.5t1 -13.5t-5.5 -10t-18 -4q-22 0 -26 9.5t-4 23.5q0 75 0.5 155t0.5 173q0 72 -36 118t-103 46q-32 0 -59.5 -10t-49.5 -25.5t-37.5 -34t-23.5 -34.5q2 -6 3 -23t1 -40q0 -30 -0.5 -63.5t-0.5 -72t-0.5 -84
t-0.5 -100.5q0 -19 -3.5 -23.5t-14.5 -4.5h-15q-14 0 -17 7t-3 21q0 27 0.5 71t1.5 91t1.5 91t0.5 70q0 36 -8 66t-24.5 51.5t-41.5 34t-59 12.5q-43 0 -73 -13t-50.5 -33t-33 -43.5t-19.5 -43.5q0 -29 -0.5 -64t-1 -69.5t-0.5 -65v-49.5q0 -31 -0.5 -60t0.5 -39
q2 -23 -3.5 -29t-16.5 -6h-11q-14 0 -18 9t-3 26z" />
    <glyph glyph-name="n" unicode="n" horiz-adv-x="640" 
d="M94 35q0 7 1 20.5t1.5 30t1 34.5t0.5 35v64.5v77.5t0.5 80t0.5 72v53.5v24.5q0 13 1.5 23t16.5 10q22 0 27.5 -7.5t5.5 -24.5t-1.5 -34.5t-1.5 -32.5h7q4 4 17.5 20t37 33.5t57.5 31.5t79 14q96 0 149.5 -52.5t52.5 -156.5q0 -31 -0.5 -71.5t-0.5 -84v-86.5v-78
q0 -7 1 -14t0.5 -13t-5 -10t-15.5 -4q-13 0 -19.5 3t-9.5 7t-3 8.5v8.5v334q0 34 -9.5 64t-28.5 52.5t-48 35t-69 12.5q-41 0 -73.5 -13.5t-56.5 -33.5t-39.5 -43.5t-22.5 -42.5q0 -27 -0.5 -62t-0.5 -70t-0.5 -66t-0.5 -50v-101q1 -11 -1 -22t-19 -11h-12q-16 0 -18.5 12.5
t-1.5 22.5z" />
    <glyph glyph-name="o" unicode="o" horiz-adv-x="613" 
d="M68 279q1 58 16 109t44.5 89.5t73.5 60.5t103 22q60 0 105 -22t75.5 -59.5t45.5 -89t14 -109.5q-1 -62 -16 -115.5t-45 -92.5t-74.5 -61t-103.5 -22q-60 0 -105 22t-75 60.5t-44.5 91.5t-13.5 116zM121 279q0 -49 9.5 -93t31 -77.5t56.5 -53.5t87 -20t88 20t58 53.5
t32 77.5t10 93q0 48 -11 91t-34 75t-58.5 51t-83.5 19q-52 0 -87.5 -19t-57 -51.5t-31 -75t-9.5 -90.5z" />
    <glyph glyph-name="p" unicode="p" horiz-adv-x="619" 
d="M97 -123q0 2 1 39t1.5 93.5t1.5 127.5t1.5 141.5t0.5 134v107.5q0 10 -1.5 21.5t6.5 15.5q4 2 10 2.5t11 0.5q20 0 23.5 -27.5t2.5 -69.5h5q14 27 39 48q20 18 53 33.5t80 15.5q51 0 92 -22t69.5 -61t43.5 -92t15 -115q0 -65 -17.5 -116.5t-47 -88t-68.5 -56t-82 -19.5
q-45 0 -77 13.5t-53 31t-33 35t-16 25.5h-7q1 -28 0.5 -62.5t-1 -66.5t-1 -56.5t-0.5 -32.5q1 -20 -6 -23.5t-13 -3.5h-12q-9 0 -15.5 4.5t-5.5 22.5zM151 179q5 -12 17.5 -36t34.5 -48t53.5 -42t74.5 -18q33 0 63.5 15.5t53.5 45.5t37 73t14 99q0 55 -12 100.5t-35 78
t-56 50.5t-76 18q-35 0 -65.5 -14.5t-53.5 -37.5t-36.5 -53.5t-13.5 -61.5v-169z" />
    <glyph glyph-name="q" unicode="q" horiz-adv-x="609" 
d="M63 264q0 66 20 120.5t55 93.5t82.5 60.5t103.5 21.5q48 0 83.5 -13t59 -36.5t34.5 -55t11 -67.5v-67.5v-101.5v-115v-108.5t0.5 -82.5t0.5 -36q1 -18 -3 -22.5t-10 -7.5q-3 -2 -10.5 -4.5t-11.5 -2.5q-7 0 -11.5 4.5t-4.5 24.5t1 68.5t1 138.5h-7q-9 -14 -24.5 -29
t-37.5 -27.5t-50 -21t-63 -8.5q-106 0 -162.5 70.5t-56.5 203.5zM119 263q-1 -57 12 -99.5t36 -71t54 -43t66 -14.5q38 0 67.5 12t51.5 30.5t36 41.5t21 45v233q0 24 -9.5 45t-27.5 37.5t-43.5 26t-58.5 9.5q-48 0 -85.5 -19.5t-64 -53.5t-40.5 -80t-15 -99z" />
    <glyph glyph-name="r" unicode="r" horiz-adv-x="460" 
d="M93 35q0 4 0.5 15t1.5 25.5t1.5 30t0.5 27.5v299q1 20 0.5 44.5t-1.5 38.5q-2 25 1.5 35t23.5 10q11 0 17 -3.5t8 -14t1 -30t-3 -50.5h8q7 16 18.5 33.5t28.5 31.5t39 23.5t51 9.5q63 0 96 -35.5t33 -86.5q0 -23 -7 -31.5t-26 -8.5q-18 0 -19.5 9t-1.5 28q0 34 -22 57
t-66 23q-28 0 -50.5 -15t-39.5 -38t-27 -49.5t-12 -49.5q-1 -30 -1.5 -71.5t-0.5 -86.5v-89.5v-80.5q0 -16 -0.5 -25.5t-18.5 -9.5h-12q-11 0 -16.5 7.5t-4.5 27.5z" />
    <glyph glyph-name="s" unicode="s" horiz-adv-x="525" 
d="M78 52q-4 14 2 23.5t13 13.5q15 -16 36 -27q18 -11 45 -19t65 -8q76 0 117 31t41 80q0 19 -9 34t-24 26t-34 19.5t-39 15.5l-101 37q-56 20 -86.5 50t-30.5 83q0 30 12.5 57t37 47.5t60 32.5t81.5 12q36 0 62.5 -5t45 -11.5t30 -14t17.5 -12.5q7 -6 8.5 -13.5t-0.5 -15
t-6.5 -13t-10.5 -7.5q-16 12 -38 23q-19 9 -46 16.5t-62 7.5q-67 0 -102.5 -31t-35.5 -73q0 -32 22.5 -53t65.5 -36l97 -34q35 -12 61 -25t43 -29.5t25.5 -37.5t8.5 -49q0 -33 -13 -61.5t-39.5 -49.5t-66 -33.5t-91.5 -12.5q-36 0 -64.5 6t-49 15t-32.5 20t-15 21z" />
    <glyph glyph-name="t" unicode="t" horiz-adv-x="444" 
d="M133 141q0 18 0.5 51t1.5 72t2 80.5t1.5 76t1 58t0.5 27.5h-79q-14 0 -15.5 4t-1.5 11v13q0 4 2.5 8t10.5 4q32 0 50.5 5t27.5 16t11.5 28t2.5 42q0 8 6 14.5t20 6.5q9 0 14.5 -4t5.5 -18q0 -20 -1 -43t-1 -43q6 0 27 -0.5t47.5 -0.5t54 0.5t47.5 0.5q18 0 18 -15v-15
q0 -5 -2.5 -10t-15.5 -5h-179q-2 -30 -2.5 -74t-1.5 -93.5t-1 -101v-97.5q0 -57 16 -80.5t54 -23.5q27 0 52.5 9t39.5 18q11 7 16.5 6t10.5 -12l4 -9q5 -11 2.5 -15t-9.5 -9q-16 -11 -48.5 -22t-67.5 -11q-65 0 -94.5 33.5t-27.5 117.5z" />
    <glyph glyph-name="u" unicode="u" 
d="M82 200q0 30 0.5 77t1 96t1.5 93.5t2 70.5q1 14 5.5 18.5t14.5 4.5q15 0 23.5 -6t7.5 -21q-2 -75 -3 -158t-1 -176q0 -79 36.5 -121.5t111.5 -42.5q40 0 72 12.5t55.5 32t39.5 43t24 44.5q0 28 0.5 63t0.5 69.5t0.5 65.5t0.5 51v99q-2 23 3.5 29t17.5 6h11q14 0 18.5 -8
t3.5 -25q0 -7 -1 -21t-1.5 -31t-1 -35.5t-0.5 -34.5q0 -27 -0.5 -64.5t-0.5 -78.5t-1 -81t-1 -73t-0.5 -54.5t-0.5 -24.5q0 -13 -2.5 -21t-19.5 -8q-29 0 -29 34q0 20 2.5 38t2.5 27h-7q-3 -5 -17.5 -21t-38.5 -33t-57.5 -31t-75.5 -14q-97 0 -146.5 49.5t-50.5 160.5z" />
    <glyph glyph-name="v" unicode="v" horiz-adv-x="558" 
d="M234 25q-8 19 -25.5 61.5t-38.5 94.5t-44 109t-43 106t-34 83.5t-18 43.5q-5 11 -4 19t14 8h18q9 0 14 -3.5t10 -14.5q3 -8 16 -40t31 -78t39.5 -99.5t41 -104t36 -92.5t24.5 -63h7q9 21 25 61.5t35.5 89.5t40 101t38.5 98t32 80.5t19 46.5q5 11 10 14.5t15 3.5h20
q9 0 12.5 -7t-1.5 -17q-4 -9 -19 -44t-35.5 -84t-44.5 -106t-45.5 -109.5t-39 -94.5t-24.5 -61q-5 -11 -12 -19t-25 -8h-8q-19 0 -26.5 8.5t-10.5 16.5z" />
    <glyph glyph-name="w" unicode="w" horiz-adv-x="900" 
d="M193 29q-5 17 -16.5 54t-27 84.5t-33.5 100t-34 101.5t-29 88.5t-20 60.5q-4 11 -3 21.5t15 10.5h12q14 0 19.5 -6t9.5 -18q3 -9 14 -45t27 -85.5t34 -106.5t34 -107.5t28 -89t16 -51.5h5q4 10 16.5 46.5t29 86t34.5 106.5t34.5 107.5t28 88t15.5 49.5q4 13 11 19t24 6
h18q17 0 24.5 -7.5t10.5 -17.5q2 -8 13.5 -43t28 -84.5l35.5 -106.5l36 -108t29.5 -89.5t16.5 -51.5h5q5 10 16 43t25.5 79t31 100t31.5 104t28 92t20 65q5 12 10.5 18.5t19.5 6.5h11q16 0 17 -11.5t-2 -19.5q-5 -14 -17 -50l-28 -84l-34 -102t-34 -103t-29 -88l-19 -57
q-4 -11 -12 -23t-31 -12h-17q-15 0 -24.5 7.5t-14.5 19.5q-4 12 -14.5 45t-25 78.5t-31 97.5t-32.5 102t-28.5 92.5t-19.5 67.5h-6q-7 -23 -20 -65t-29 -92.5t-33.5 -104t-33 -99.5t-26.5 -79.5t-14 -43.5q-8 -26 -38 -26h-15q-21 0 -31 10.5t-12 18.5z" />
    <glyph glyph-name="x" unicode="x" horiz-adv-x="534" 
d="M55 23q3 5 14.5 21.5t28 39.5t36 50.5t38.5 54t35.5 50.5l27.5 40q-18 24 -44 59l-52 70t-49 65.5t-35 47.5q-9 12 -3.5 20.5t16.5 8.5h14q11 0 17.5 -4t11.5 -11q6 -9 25 -36t43 -60t47.5 -66t37.5 -54h5q15 21 34.5 47.5t39.5 55t39.5 56.5t36.5 52q4 6 11.5 13t21.5 7
h17q16 0 15.5 -9.5t-7.5 -19.5l-24 -32t-49.5 -65.5t-57.5 -77t-47 -66.5l180 -256q4 -6 1.5 -15t-18.5 -9h-14q-7 0 -14 2.5t-18 18.5q-8 12 -27.5 41t-42 62.5t-44 65t-33.5 49.5h-4q-11 -16 -32.5 -47.5t-45.5 -66t-45.5 -65.5t-31.5 -47q-3 -5 -7.5 -9t-15.5 -4h-21
q-8 0 -12 7.5t1 15.5z" />
    <glyph glyph-name="y" unicode="y" horiz-adv-x="526" 
d="M59 -100q4 14 11 13.5t13 -4.5q17 -11 37 -17.5t43 -6.5q20 0 36.5 8t31.5 26.5t28 48t26 72.5h-11q-14 0 -21.5 5t-12.5 19q-4 11 -20 47.5t-38 84t-47 101.5t-47 100.5t-38 80t-19 41.5q-5 11 -5 21t16 10h13q17 0 19.5 -5.5l7.5 -16.5q3 -7 17 -37.5t34 -74
t43.5 -94.5t46 -99.5t40.5 -88.5t27 -61h6q8 25 20.5 62.5t26 81t27.5 89.5t26.5 88t23 77l16.5 55q4 12 7 18t20 6h12q18 0 19 -8t-4 -22q-6 -17 -17 -51.5t-25.5 -78.5t-30.5 -94.5t-32 -98.5t-29.5 -90.5t-23.5 -71.5q-15 -48 -29.5 -84.5t-33.5 -61t-45 -37t-64 -12.5
q-30 0 -52.5 7t-39.5 16q-16 8 -15 13.5t3 12.5z" />
    <glyph glyph-name="z" unicode="z" horiz-adv-x="482" 
d="M52 38q1 3 14.5 23t34.5 51t47.5 70.5t54 81t54.5 82t49.5 73.5t37 56t18.5 30h-287q-7 0 -11.5 3t-4.5 14v13q0 15 17 15h323q17 0 21 -6t5 -18v-19q-2 -2 -15 -20.5t-33 -48t-46 -67.5t-53 -78l-54 -80t-49.5 -74t-39 -59t-22.5 -35h281q9 0 15.5 -2t6.5 -16v-9
q0 -17 -9.5 -17.5t-13.5 -0.5h-317q-14 0 -19 4t-5 17v17z" />
    <glyph glyph-name="braceleft" unicode="{" horiz-adv-x="401" 
d="M139 12q0 18 3 40t6.5 44.5t6.5 43.5t3 37q0 35 -19.5 54t-57.5 19q-17 0 -17 19v36q0 10 4.5 13t12.5 3q38 0 57.5 18.5t19.5 53.5q0 12 -3 31.5t-6.5 43t-6.5 47t-3 43.5q0 80 38 116t107 36q22 0 45 -3.5t36 -8.5q19 -6 13 -22l-3 -8q-5 -14 -9.5 -15.5t-14.5 0.5
l-27.5 5t-39.5 3q-47 0 -70 -24.5t-23 -78.5q0 -16 3 -36t6.5 -41.5t6.5 -44t3 -43.5q0 -37 -13 -57.5t-29 -31.5q-18 -12 -42 -16v-7q24 -4 42 -16q16 -11 29 -31.5t13 -56.5q0 -21 -3 -43.5t-6.5 -44.5t-6.5 -41.5t-3 -35.5q0 -54 23 -78.5t70 -24.5q26 0 41 3t26 5
q9 2 14 0t9 -13l3 -9q5 -16 -13 -23q-11 -5 -30.5 -8.5t-49.5 -3.5q-33 0 -59.5 7.5t-45.5 25.5t-29.5 47t-10.5 72z" />
    <glyph glyph-name="bar" unicode="|" horiz-adv-x="269" 
d="M110 -108q0 10 0.5 48.5t0.5 94t0.5 124t0.5 139t0.5 138t0.5 122t-0.5 90.5t-0.5 44q-1 18 3.5 23t15.5 5h9q11 0 15.5 -5.5t3.5 -22.5q0 -8 -0.5 -44t-1 -91t-1 -122.5t-1 -138.5t-1 -139t-0.5 -124v-93.5t1 -47.5q1 -13 -4 -17.5t-13 -4.5h-11q-9 0 -13.5 4.5
t-3.5 17.5z" />
    <glyph glyph-name="braceright" unicode="}" horiz-adv-x="401" 
d="M50 -83q11 -2 26 -5t41 -3q47 0 70 24.5t23 78.5q0 16 -3 35.5t-6.5 41.5t-6.5 44.5t-3 43.5q0 36 13 56.5t29 31.5q18 12 42 16v7q-24 4 -42 16q-16 11 -29 31.5t-13 57.5q0 21 3 43.5t6.5 44t6.5 41.5t3 36q0 54 -23 78.5t-70 24.5q-23 0 -39.5 -3l-27.5 -5
q-10 -2 -14.5 -0.5t-9.5 15.5l-3 8q-6 16 13 22q13 5 36 8.5t45 3.5q69 0 107 -36t38 -116q0 -20 -3 -43.5t-6.5 -47t-6.5 -43t-3 -31.5q0 -35 19.5 -53.5t57.5 -18.5q8 0 12.5 -3t4.5 -13v-36q0 -19 -17 -19q-38 0 -57.5 -19t-19.5 -54q0 -16 3 -37t6.5 -43.5t6.5 -44.5
t3 -40q0 -43 -10.5 -72t-29.5 -47t-45.5 -25.5t-59.5 -7.5q-30 0 -49.5 3.5t-30.5 8.5q-18 7 -13 23l3 9q4 11 9 13t14 0z" />
    <glyph glyph-name="asciitilde" unicode="~" horiz-adv-x="469" 
d="M49 291q-8 8 -9.5 11.5t1.5 10.5q4 9 14.5 20.5t25.5 21.5t33 17t38 7q28 0 50 -11t40 -24t34.5 -24t33.5 -11q14 0 25.5 5t20.5 11.5t15.5 14t10.5 13.5q3 5 10 10t17 -6l6 -7q4 -5 7 -11t-2 -14q-4 -6 -13.5 -16.5t-23.5 -20.5t-32.5 -17.5t-40.5 -7.5q-27 0 -47 11
t-38 24t-35 24t-37 11q-29 0 -47 -16t-27 -30q-4 -6 -10 -8t-14 6z" />
    <glyph glyph-name="uni00A0" unicode="&#xa0;" horiz-adv-x="356" 
 />
    <glyph glyph-name="exclamdown" unicode="&#xa1;" horiz-adv-x="317" 
d="M137 438q-12 0 -23.5 1.5t-19.5 8t-13.5 19t-5.5 34.5q0 20 4.5 32t12.5 18t18.5 7.5t22.5 1.5q13 0 24 -1.5t19 -7.5t13 -18t5 -32q1 -22 -3.5 -34.5t-12.5 -19t-18.5 -8t-22.5 -1.5zM93 -83q0 26 1.5 66t4.5 88t6.5 100.5t7.5 104.5l30 1q2 -38 5 -89.5t5.5 -105
t4 -102t0.5 -79.5q0 -25 -8.5 -33t-23.5 -8q-5 0 -11 1.5t-11 7t-8 17t-3 31.5z" />
    <glyph glyph-name="cent" unicode="&#xa2;" horiz-adv-x="539" 
d="M153 -41q3 7 7 17l7.5 20t11.5 26q-52 31 -81 93.5t-29 159.5q0 60 18 112t50 90.5t77.5 60.5t101.5 22q22 0 42 -3l17 47q5 17 13.5 18.5t17.5 -0.5l5 -2q8 -2 11 -11.5t-1 -18.5l-18 -45q36 -14 50 -37t17 -40q5 -31 -8 -44.5t-37 -7.5v5q0 2 0.5 5t0.5 5q0 12 -5.5 27
t-18.5 27.5t-34 21t-52 8.5q-43 0 -78 -16.5t-60.5 -47.5t-39.5 -75.5t-14 -100.5q-1 -115 48 -177.5t133 -62.5q35 0 61.5 7t45.5 16q22 11 39 24q5 -2 9 -6q3 -4 5.5 -10t0.5 -15q-2 -10 -14 -20.5t-33 -19.5t-50 -15t-64 -6q-23 0 -44.5 3.5t-41.5 9.5l-22 -59
q-4 -9 -10.5 -14.5t-20.5 0.5l-5 2q-12 5 -11.5 12.5t3.5 14.5z" />
    <glyph glyph-name="sterling" unicode="&#xa3;" horiz-adv-x="563" 
d="M38 27q0 14 8.5 18t19.5 4h62v51.5v65.5v72v72h-58q-17 0 -20 3.5t-3 16.5v8q0 13 3.5 16.5t14.5 3.5h62v112q0 46 11 86t36.5 70t66.5 47t100 17q33 0 61 -5.5t50 -14t37.5 -19t24.5 -20.5q13 -15 -1 -38q-2 -4 -5.5 -6.5t-5.5 -4.5q-4 -3 -6 -5q-16 18 -38 32
q-20 12 -48.5 22t-68.5 10q-48 0 -79 -13.5t-48.5 -36.5t-24 -55t-6.5 -68v-110q80 0 146.5 0.5t98.5 0.5q23 0 23 -17v-11q0 -8 -4 -14t-19 -6h-30h-58h-75t-82 -1v-74v-73.5v-65.5v-48h63h85h89t75 1q17 0 17 -21v-9q0 -13 -4 -16.5t-21 -3.5h-433q-16 0 -16 21v6z" />
    <glyph glyph-name="currency" unicode="&#xa4;" horiz-adv-x="613" 
d="M100 119q-21 19 3 42l46 45q-4 5 -11 15.5t-14 26t-12 37.5t-5 49q0 23 4 42.5t10.5 35t13 26.5t10.5 18l-50 47q-13 14 -13.5 21.5t10.5 18.5l3 4q11 10 20.5 10t20.5 -12l46 -49q4 3 14.5 9.5t26.5 12.5t36.5 10.5t44.5 4.5q50 0 79.5 -13.5t38.5 -19.5l50 49
q13 13 20 14t18 -10l5 -4q10 -10 9.5 -20t-14.5 -22l-49 -48q3 -5 10 -13.5t14 -23.5t12 -36.5t5 -51.5q0 -23 -4.5 -42.5t-10.5 -35.5t-12.5 -27t-9.5 -15q5 -5 13 -12.5t15.5 -15.5t13.5 -14.5t7 -7.5q13 -13 14 -20.5t-10 -18.5l-4 -4q-20 -22 -40 2l-46 49q-4 -3 -14 -9
t-25.5 -12t-36.5 -10.5t-47 -4.5q-20 0 -39 3.5t-34.5 9t-26.5 10.5t-15 8l-47 -48q-13 -14 -21 -14.5t-18 10.5zM305 182q37 0 64.5 12t45.5 32.5t27 48t9 59.5q0 31 -9 59t-27 48.5t-46 32.5t-65 12t-64.5 -12t-46 -32.5t-27.5 -48.5t-9 -59t9 -58.5t27.5 -48.5t46 -33
t65.5 -12z" />
    <glyph glyph-name="yen" unicode="&#xa5;" horiz-adv-x="564" 
d="M105 161q0 18 5.5 20t19.5 2h126v83h-127q-11 0 -17.5 3.5t-6.5 14.5v10q0 18 5.5 20t19.5 2h110q-14 23 -34 56.5t-42.5 69.5t-44.5 72.5t-40.5 66t-30.5 50t-15 24.5q-2 2 -3 6.5t0 8.5t4.5 7t11.5 3h19q14 0 20 -6t11 -15q4 -8 17 -29.5t30 -51.5t37 -64.5t39 -67.5
t35 -60.5t26 -43.5h6q9 15 26 43t37 62t41 70.5t39 67t30.5 52t15.5 26.5q5 9 10.5 13t19.5 4h17q11 0 14 -7t-2 -15t-18.5 -30t-32 -53t-40 -67t-43 -71.5t-40.5 -67t-33 -53.5h127q24 0 24 -16v-17q0 -5 -2.5 -11t-13.5 -6h-153v-83h145q24 0 24 -16v-17q0 -5 -2.5 -11
t-13.5 -6h-153v-61t1 -32q0 -6 1 -13t0 -13t-5 -10t-13 -4h-17q-14 0 -18 12t-3 24v97h-126q-11 0 -17.5 3.5t-6.5 14.5v10z" />
    <glyph glyph-name="brokenbar" unicode="&#xa6;" horiz-adv-x="301" 
d="M140 399q-13 0 -13 18q1 13 1.5 36.5t0.5 51.5v57.5t-0.5 53.5t-0.5 41v19q0 16 3.5 20t15.5 4h6q20 0 21 -25q0 -3 0.5 -20t0.5 -41.5v-54v-57.5t-0.5 -51t-0.5 -35q0 -17 -12 -17h-22zM126 -127v25t0.5 48.5t0.5 61.5t0.5 64.5t0.5 57v38.5q0 17 12 17h21q12 0 12 -18
v-38.5t-0.5 -56.5t-0.5 -64v-61v-47.5t1 -24.5q1 -11 -3 -18t-17 -7h-10q-11 0 -14 9.5t-3 13.5z" />
    <glyph glyph-name="section" unicode="&#xa7;" horiz-adv-x="612" 
d="M109 -71q0 9 3.5 14.5t8.5 9.5t12 6q18 -20 42 -35q20 -14 50 -24.5t69 -10.5q36 0 68 6.5t56 20.5t38 35.5t14 51.5q0 22 -10 40.5t-27 32.5t-40 24t-48 15l-134 29q-37 8 -61 21t-38 29t-19.5 34.5t-5.5 37.5q0 24 8.5 44t22 35t30 25.5t32.5 15.5q-17 8 -34 19.5
t-30 27.5t-21 37.5t-8 49.5q0 37 14.5 68.5t41.5 54t65 35t86 12.5q61 0 97.5 -10.5t63.5 -26.5q12 -8 21.5 -20t3.5 -26q-6 -12 -14 -17q-4 -4 -9 -5q-17 16 -41 28q-20 11 -50.5 19.5t-71.5 8.5q-35 0 -62.5 -9.5t-47 -26t-30.5 -38.5t-11 -47q0 -41 30.5 -66t83.5 -34
l128 -26q74 -15 107.5 -45.5t33.5 -85.5q0 -26 -9 -47t-21.5 -36.5t-27 -27t-25.5 -17.5q37 -17 60 -47t23 -84q0 -42 -17.5 -72.5t-48 -51t-73 -30.5t-93.5 -10q-60 0 -102.5 16.5t-61.5 31.5q-22 18 -21 41zM143 274q0 -31 18 -47.5t51.5 -27t81.5 -19.5t107 -24
q7 4 18.5 13t22.5 21.5t19.5 29t8.5 34.5q0 31 -18.5 49t-51 30t-77.5 20.5t-99 19.5q-9 -4 -23 -10t-27 -17.5t-22 -28.5t-9 -43z" />
    <glyph glyph-name="dieresis" unicode="&#xa8;" horiz-adv-x="614" 
d="M427 642q-19 0 -29.5 6.5t-11.5 34.5q-2 28 9.5 34.5t28.5 6.5t28 -6.5t12 -34.5t-10 -34.5t-27 -6.5zM190 642q-18 0 -29 6.5t-12 34.5t10 34.5t27 6.5q17 0 28.5 -6.5t13.5 -34.5q1 -28 -10.5 -34.5t-27.5 -6.5z" />
    <glyph glyph-name="copyright" unicode="&#xa9;" horiz-adv-x="810" 
d="M45 351q0 82 25.5 148.5t72.5 113t113.5 72t149.5 25.5q82 0 148.5 -25.5t113 -72t72 -113t25.5 -148.5q0 -83 -25.5 -149.5t-72 -113.5t-113 -72.5t-148.5 -25.5q-83 0 -149.5 25.5t-113.5 72.5t-72.5 113.5t-25.5 149.5zM97 351q0 -71 21.5 -129.5t61.5 -100.5
t97.5 -65t128.5 -23t128 23t96.5 65t61 100.5t21.5 129.5t-21.5 129t-61 99.5t-96.5 64t-128 22.5t-128.5 -22.5t-97.5 -64t-61.5 -99.5t-21.5 -129zM230 354q0 46 13 84.5t36 66.5t55.5 44t70.5 16q29 0 53 -6t38 -14q11 -7 15.5 -15t-0.5 -23q-2 -5 -3.5 -8t-3.5 -5
q-2 -3 -4 -4q-12 8 -27 15q-13 5 -30.5 10t-38.5 5q-51 0 -85 -44t-34 -122q0 -77 32 -120.5t89 -43.5q23 0 44 5.5t33 11.5q15 8 22 -7l5 -11q7 -16 -4 -22q-9 -5 -35.5 -13.5t-64.5 -8.5q-41 0 -73.5 16t-55.5 44t-35 66.5t-12 82.5z" />
    <glyph glyph-name="ordfeminine" unicode="&#xaa;" horiz-adv-x="382" 
d="M157 376q-52 0 -76.5 28t-23.5 65q0 43 31 67.5t84 24.5q32 0 59.5 -6t34.5 -9v35q0 38 -22.5 54t-55.5 16q-20 0 -37 -3.5t-29 -8.5q-14 -5 -25 -12l-4 3.5t-6.5 9t-2 12.5t8.5 15q12 10 37.5 16.5t63.5 6.5q59 0 87.5 -30t28.5 -81q0 -18 -0.5 -42.5t-0.5 -49v-46
t1 -32.5q0 -7 1.5 -13t0 -10.5t-6.5 -7t-18 -2.5q-19 0 -21 14.5t1 34.5h-3q-13 -14 -30 -25q-14 -9 -33.5 -16.5t-43.5 -7.5zM171 412q16 0 31.5 5.5t28.5 14t22 18t13 18.5v45q-7 2 -30 9t-52 7q-40 0 -62 -16t-22 -42q0 -25 18 -42t53 -17z" />
    <glyph glyph-name="guillemotleft" unicode="&#xab;" horiz-adv-x="656" 
d="M341 229q-14 14 -16 21.5t-2 18.5v12q0 10 2 16.5t16 21.5q11 12 27.5 31t34.5 40.5t37 44.5t34.5 42.5t27 33.5t15.5 19q8 11 16.5 17t21.5 -3l7 -5q8 -6 4.5 -16.5t-8.5 -17.5q-10 -11 -30.5 -37t-46 -58t-53 -67t-51.5 -64v-8q25 -31 54 -68t55 -70t45 -57.5t25 -30.5
q6 -8 11.5 -17t-7.5 -19l-4 -3q-7 -5 -11 -6.5t-8 0t-8.5 7t-11.5 13.5q-6 6 -27.5 32.5t-48.5 59.5t-54.5 66t-45.5 51zM93 228q-14 14 -16 21.5t-2 18.5v12q0 10 2 16.5t16 21.5q11 12 27.5 31t34.5 40.5t37 44.5t34.5 42.5t27 33.5t15.5 19q8 11 16.5 17t21.5 -3l7 -5
q8 -6 4.5 -16.5t-8.5 -17.5q-10 -11 -30.5 -37t-46 -58t-53 -67t-51.5 -64v-8q25 -31 54 -68t55 -70t45 -57.5t25 -30.5q6 -8 11.5 -17t-7.5 -19l-4 -3q-7 -5 -11 -6.5t-8 0t-8.5 7t-11.5 13.5q-6 6 -27.5 32.5t-48.5 59.5t-54.5 66t-45.5 51z" />
    <glyph glyph-name="logicalnot" unicode="&#xac;" horiz-adv-x="610" 
d="M131 321q-16 0 -19.5 4t-3.5 15v9q0 15 5.5 17.5t19.5 1.5q9 0 37 -0.5t65 -0.5h78h76.5t59.5 0.5t27 0.5q12 0 18 -4.5t6 -18.5v-162q1 -19 -3.5 -22.5t-16.5 -4.5h-11q-11 0 -15 6t-4 22v137h-319z" />
    <glyph glyph-name="uni00AD" unicode="&#xad;" horiz-adv-x="462" 
d="M104 315q-9 0 -12 3.5t-3 14.5v13q0 10 3 13t14 3h254q14 0 14 -20v-11q0 -10 -3 -13t-14 -3h-253z" />
    <glyph glyph-name="registered" unicode="&#xae;" horiz-adv-x="610" 
d="M305 218q-57 0 -102.5 17.5t-77.5 49.5t-49 77.5t-17 102.5q0 56 17 101t49 77t77.5 49.5t102.5 17.5q55 0 100.5 -17.5t77.5 -49.5t50 -77t18 -101q0 -57 -18 -102.5t-50 -77.5t-77.5 -49.5t-100.5 -17.5zM305 256q46 0 83 15t63 42.5t40 66t14 85.5q0 46 -14 84
t-40 65.5t-63 42.5t-83 15q-47 0 -84 -15t-63 -42.5t-40 -65.5t-14 -84q0 -47 14 -85.5t40 -66t63 -42.5t84 -15zM231 343q-11 0 -12.5 6t-1.5 15q0 11 0.5 43.5t1 68t1 64.5t0.5 33q0 10 2 19.5t17 9.5h65q44 0 69.5 -23.5t25.5 -60.5q0 -32 -19.5 -51.5t-38.5 -24.5
l35 -59q4 -7 10 -8.5t14 -1.5q2 -18 -6.5 -25.5t-19.5 -7.5q-21 0 -34 24l-38 71h-43v-71q1 -13 -1.5 -17t-11.5 -4h-15zM295 466q32 0 45 15t13 33q0 24 -13 37.5t-42 13.5h-38q0 -4 -0.5 -17t-0.5 -28.5v-30.5v-23h36z" />
    <glyph glyph-name="macron" unicode="&#xaf;" horiz-adv-x="614" 
d="M161 662q-6 0 -9.5 5t-3.5 12v15q0 10 5.5 13t11.5 3h27.5t48 -0.5t58.5 -0.5h60h52h35q11 1 15 -2t4 -19v-9q0 -16 -14 -16h-22t-37.5 -0.5t-47 -0.5h-50.5h-133z" />
    <glyph glyph-name="degree" unicode="&#xb0;" horiz-adv-x="476" 
d="M241 326q-45 0 -76 13.5t-51 37.5t-29.5 57.5t-10.5 73.5q-1 38 9 71.5t31 58t52 38.5t72 14t71.5 -14t50.5 -38.5t30.5 -57.5t11.5 -72t-10 -72.5t-32 -58t-51.5 -38t-67.5 -13.5zM240 368q31 0 51.5 12.5t33.5 32.5t18.5 45t5.5 51q0 25 -5.5 50t-18.5 45t-34 32
t-52 12q-33 0 -55 -12t-35 -32t-18.5 -45t-5.5 -50q0 -26 5.5 -51t18.5 -45t35.5 -32.5t55.5 -12.5z" />
    <glyph glyph-name="plusminus" unicode="&#xb1;" horiz-adv-x="600" 
d="M293 264q-17 0 -16 22q-1 32 -0.5 66.5t0.5 81.5h-57t-48 -0.5t-35.5 -0.5h-18.5q-10 0 -13.5 3.5t-3.5 14.5v13q1 11 6.5 14t14.5 3q6 0 20.5 -0.5t35 -0.5t46 -0.5t53.5 -0.5l-1 161q0 23 18 23h12q17 0 17 -24q0 -8 -0.5 -52t-0.5 -108q62 0 107 1t50 0q20 2 20 -21
v-10q0 -19 -20 -17q-3 0 -16.5 0.5t-34.5 0.5h-48.5h-57.5q0 -48 0.5 -84t0.5 -66q1 -12 -3 -15.5t-12 -3.5h-15zM122 111q-12 0 -15 2.5t-3 15.5v14q0 17 22 16h35h66h80.5h79t61.5 0.5t28 0.5q13 1 17 -2.5t4 -16.5v-14q0 -17 -21 -15h-30h-63t-80 -0.5t-80.5 -0.5h-65.5
h-35z" />
    <glyph glyph-name="uni00B2" unicode="&#xb2;" horiz-adv-x="273" 
d="M58 446q-13 0 -13 13v27q10 10 21.5 20t23.5 21q16 14 32.5 29.5t30 32t22 33t8.5 32.5q0 21 -13 34t-38 13q-28 0 -49 -10.5t-26 -14.5q-1 0 -2 2q-1 1 -1.5 2.5t-1.5 3.5q-5 11 -3.5 22t12.5 17q5 3 24 10.5t47 6.5q40 0 68 -20.5t28 -59.5q0 -23 -10 -44t-26 -40.5
t-34.5 -36.5t-35.5 -32l-22 -19v-3h57t58 2q10 2 10 -13v-18q-1 -6 -3 -8t-10 -2h-154z" />
    <glyph glyph-name="uni00B3" unicode="&#xb3;" horiz-adv-x="286" 
d="M62 459q-19 11 -14 31q1 5 3.5 8t4.5 5q13 -7 27 -12q12 -5 27 -8t32 -3q34 0 47.5 14t13.5 37t-16.5 32.5t-39.5 10.5h-42q-4 0 -4 7v26q0 5 3 5h41q23 0 36 12.5t13 33.5q0 20 -12 31.5t-41 11.5q-37 0 -56 -10.5t-22 -12.5q-1 0 -2 2q-1 1 -1.5 2.5t-1.5 3.5
q-6 11 -4 20t8 14q7 5 27.5 12.5t51.5 7.5q52 0 73 -22.5t21 -56.5q0 -19 -7 -30.5t-15 -18.5q-10 -8 -21 -13v-3q0 -1 8.5 -3t18.5 -9.5t18.5 -21t8.5 -36.5q0 -36 -29.5 -60t-74.5 -24q-32 0 -53.5 7t-26.5 10z" />
    <glyph glyph-name="acute" unicode="&#xb4;" horiz-adv-x="616" 
d="M215 625q-11 -6 -14 -2.5t-7 10.5l-3 6q-10 18 4 25t41 21t57 29.5t57.5 29.5t41.5 22q11 6 16.5 3.5t9.5 -11.5l8 -18q4 -9 1.5 -15.5t-7.5 -8.5q-54 -25 -98 -44q-19 -8 -37 -16t-33 -15t-25 -11t-12 -5z" />
    <glyph glyph-name="mu" unicode="&#xb5;" horiz-adv-x="626" 
d="M146 39v-34t0.5 -46t0.5 -46v-34q0 -19 -5.5 -24t-13.5 -5h-12q-8 0 -14 4t-6 24q-3 168 -1.5 323.5t0.5 317.5q0 7 -0.5 14t1 13t6 10t15.5 4q22 0 25.5 -9.5t3.5 -17.5q0 -76 -1 -158.5t-1 -175.5q0 -35 7.5 -64.5t24.5 -52t44.5 -35t67.5 -12.5q38 0 69 12.5t55 32
t40.5 43t24.5 44.5q0 28 0.5 63t0.5 70t0.5 65.5t0.5 50.5q0 31 -0.5 54t-0.5 45q0 14 3 24.5t15 10.5h14q13 0 16.5 -9t3.5 -26q0 -7 -0.5 -20.5t-0.5 -30t-0.5 -35t-0.5 -34.5v-64.5t-0.5 -78.5t-1 -81t-1 -73t-0.5 -54.5v-24.5q0 -13 -2 -21t-18 -8q-31 0 -31 34
q0 23 2.5 35.5t2.5 29.5h-7q-3 -6 -17.5 -22t-38 -33t-56 -30.5t-72.5 -13.5q-35 0 -60.5 6t-42 14t-26 16t-13.5 13z" />
    <glyph glyph-name="paragraph" unicode="&#xb6;" horiz-adv-x="616" 
d="M454 -128v49t0.5 96t0.5 126.5v141v139.5v121.5v88v38.5q0 18 4.5 23t13.5 5h10q9 0 14.5 -5.5t5.5 -22.5q0 -6 -0.5 -41.5t-1 -90t-1 -122.5t-1 -139t-1 -140t-0.5 -125v-94t1 -48q1 -13 -1.5 -17.5t-12.5 -4.5h-15q-11 0 -13.5 4.5t-2.5 17.5zM261 473h-53
q-51 0 -74 33.5t-24 81.5q0 51 28 81.5t81 30.5h55q23 0 28 -9t5 -26v-790q0 -17 -3.5 -21t-17.5 -4h-10q-10 0 -12.5 4t-2.5 21v598z" />
    <glyph glyph-name="periodcentered" unicode="&#xb7;" horiz-adv-x="301" 
d="M151 282q-13 0 -24 2t-19.5 8.5t-13 19t-4.5 33.5q-1 21 3.5 33.5t12.5 19t19.5 8.5t24.5 2t24 -2t19.5 -8.5t13 -19t4.5 -33.5t-4.5 -33.5t-12.5 -19t-19 -8.5t-24 -2z" />
    <glyph glyph-name="cedilla" unicode="&#xb8;" 
d="M244 -114q5 -2 11 -4q10 -3 31 -3q27 0 41.5 10t14.5 23q0 9 -7.5 15t-18.5 9.5t-22.5 5t-19.5 1.5q-6 0 -7 4t1 9q1 4 4 11t6 15t5.5 14.5t3.5 9.5q0 2 6.5 2.5t14 0t13.5 -1.5t5 -3q-1 -3 -4 -9.5t-5.5 -13t-4 -11t-0.5 -4.5q31 -2 52 -13.5t21 -40.5q0 -32 -27.5 -52
t-71.5 -20q-26 0 -37.5 7.5t-11.5 18.5q0 10 3 15q2 3 4 5z" />
    <glyph glyph-name="uni00B9" unicode="&#xb9;" horiz-adv-x="216" 
d="M131 446q-10 0 -11.5 8.5t-1.5 16.5q2 41 2 98.5t1 115.5l-67 -32q-7 -4 -12 4l-5 12q-7 14 2 18q6 3 19 9t28 13.5t28.5 14.5t18.5 11h16q9 0 11.5 -7.5t2.5 -15.5v-245q0 -8 -0.5 -14.5t-11.5 -6.5h-20z" />
    <glyph glyph-name="ordmasculine" unicode="&#xba;" horiz-adv-x="413" 
d="M206 376q-37 0 -64.5 12t-46 33.5t-27.5 50.5t-9 63q1 32 10 60.5t27 49.5t45.5 33t63.5 12q37 0 65 -12t46.5 -33t28 -49t8.5 -61q0 -34 -9.5 -63t-28 -50.5t-46 -33.5t-63.5 -12zM205 412q30 0 49.5 10t31 27t16 39.5t4.5 46.5t-5.5 45.5t-17.5 38t-31 26t-46 9.5
q-30 0 -49 -9.5t-30.5 -26t-16 -38t-4.5 -45.5t4.5 -46.5t15.5 -39.5t30.5 -27t48.5 -10z" />
    <glyph glyph-name="guillemotright" unicode="&#xbb;" horiz-adv-x="656" 
d="M97 9q-7 5 -8 10t0.5 9.5t5 8.5t6.5 8q6 6 25 30.5t45 57.5t55 70t54 68v8q-24 29 -51.5 64t-53 67t-46 58t-30.5 37q-5 7 -8.5 17.5t4.5 16.5l7 5q13 9 21.5 3t16.5 -17q4 -5 15.5 -19t27 -33.5t34.5 -42.5t37 -44.5t34.5 -40.5t27.5 -31q14 -15 16 -21.5t2 -16.5v-12
q0 -11 -2 -18.5t-16 -21.5q-18 -18 -45.5 -51t-54.5 -66t-48.5 -59.5t-27.5 -32.5q-14 -17 -20 -21t-19 7zM345 8q-7 5 -8 10t0.5 9.5t5 8.5t6.5 8q6 6 25 30.5t45 57.5t55 70t54 68v8q-24 29 -51.5 64t-53 67t-46 58t-30.5 37q-5 7 -8.5 17.5t4.5 16.5l7 5q13 9 21.5 3
t16.5 -17q4 -5 15.5 -19t27 -33.5t34.5 -42.5t37 -44.5t34.5 -40.5t27.5 -31q14 -15 16 -21.5t2 -16.5v-12q0 -11 -2 -18.5t-16 -21.5q-18 -18 -45.5 -51t-54.5 -66t-48.5 -59.5t-27.5 -32.5q-14 -17 -20 -21t-19 7z" />
    <glyph glyph-name="onequarter" unicode="&#xbc;" horiz-adv-x="808" 
d="M182 398q-10 0 -11.5 8.5t-1.5 16.5q2 41 2 98.5t1 115.5l-67 -32q-7 -4 -12 4l-5 12q-7 14 2 18q6 3 19 9t28 13.5t28.5 14.5t18.5 11h16q9 0 10.5 -7.5t1.5 -15.5v-245q0 -8 -0.5 -14.5t-11.5 -6.5h-18zM207 35q13 26 37 75.5t52.5 110t59 127t58 126t49 107t31.5 70.5
q4 9 9.5 19t17.5 10h19q24 0 7 -35q-9 -18 -30.5 -63t-49.5 -105t-60 -128t-61 -131.5t-53 -115t-36 -78.5q-8 -17 -14.5 -20.5t-19.5 -3.5h-8q-18 0 -18.5 7.5t10.5 27.5zM497 123q1 11 2.5 34.5t3 48t2.5 44t1 22.5q0 8 1.5 12.5t9.5 4.5h17q11 0 11 -13q0 -9 -1.5 -29.5
t-3 -44t-2.5 -44t-1 -29.5q23 0 44.5 0.5t44.5 0.5q2 19 1.5 40.5t-0.5 44.5q0 9 1.5 13.5t9.5 4.5h16q16 0 14 -18v-84h39q8 0 7 -9v-16q0 -9 -6 -9q-3 0 -9.5 0.5t-13.5 0.5h-12.5h-5.5v-72q0 -9 -1 -17.5t-12 -8.5h-17q-9 0 -10 8.5t-1 16.5v72q-7 0 -23.5 -0.5t-34.5 -1
t-34 -0.5h-23q-9 0 -12 8.5t-2 19.5z" />
    <glyph glyph-name="onehalf" unicode="&#xbd;" horiz-adv-x="810" 
d="M205 397q-10 0 -11.5 8.5t-1.5 16.5q2 41 2 98.5t1 115.5l-67 -32q-7 -4 -12 4l-5 12q-7 14 2 18q6 3 19 9t28 13.5t28.5 14.5t18.5 11h16q9 0 11.5 -7.5t2.5 -15.5v-245q0 -8 -0.5 -14.5t-11.5 -6.5h-20zM231 35q13 26 37 75.5t52.5 110t59 127t58 126t49 107t31.5 70.5
q4 9 9.5 19t17.5 10h19q24 0 7 -35q-9 -18 -30.5 -63t-49.5 -105t-60 -128t-61 -131.5t-53 -115t-36 -78.5q-8 -17 -14.5 -20.5t-19.5 -3.5h-8q-18 0 -18.5 7.5t10.5 27.5zM520 40q10 10 21.5 20t23.5 21q16 14 32.5 29.5t30 32t22 33t8.5 32.5q0 21 -13 34t-38 13
q-28 0 -49 -10.5t-26 -14.5q-1 0 -2 2q-1 1 -1.5 2.5t-1.5 3.5q-5 11 -3.5 22t12.5 17q5 3 24 10.5t47 6.5q40 0 67 -20.5t27 -59.5q0 -23 -10 -44t-25 -40.5t-33.5 -36.5t-35.5 -32l-22 -19v-3h57t58 2q10 2 10 -13v-18q-1 -6 -3 -8t-10 -2h-154q-13 0 -13 13v27z" />
    <glyph glyph-name="threequarters" unicode="&#xbe;" horiz-adv-x="806" 
d="M91 409q-19 11 -14 31q1 5 3.5 8t4.5 5q13 -7 27 -12q12 -5 27 -8t32 -3q34 0 47.5 14t13.5 37t-16.5 32.5t-39.5 10.5h-42q-4 0 -4 7v26q0 5 3 5h41q23 0 36 12.5t13 33.5q0 20 -12 31.5t-41 11.5q-37 0 -56 -10.5t-22 -12.5q-1 0 -2 2q-1 1 -1.5 2.5t-1.5 3.5
q-6 11 -4 20t8 14q7 5 27.5 12.5t51.5 7.5q52 0 73 -22.5t21 -56.5q0 -19 -7 -30.5t-15 -18.5q-10 -8 -22 -13v-3q0 -1 8.5 -3t19 -9.5t19 -21t8.5 -36.5q0 -36 -29.5 -60t-74.5 -24q-32 0 -53.5 7t-26.5 10zM218 35q13 26 37 75.5t52.5 110t59 127t58 126t49 107t31.5 70.5
q4 9 9.5 19t17.5 10h19q24 0 7 -35q-9 -18 -30.5 -63t-49.5 -105t-60 -128t-61 -131.5t-53 -115t-36 -78.5q-8 -17 -14.5 -20.5t-19.5 -3.5h-8q-18 0 -18.5 7.5t10.5 27.5zM508 123q1 11 2.5 34.5t3 48t2.5 44t1 22.5q0 8 1.5 12.5t9.5 4.5h17q11 0 11 -13q0 -9 -1.5 -29.5
t-3 -44t-2.5 -44t-1 -29.5q23 0 44 0.5t44 0.5q2 19 1.5 40.5t-0.5 44.5q0 9 1.5 13.5t9.5 4.5h16q16 0 14 -18v-84h40q8 0 7 -9v-16q0 -9 -6 -9q-3 0 -10 0.5t-14 0.5h-12.5h-5.5v-72q0 -9 -1 -17.5t-12 -8.5h-17q-9 0 -10 8.5t-1 16.5v72q-7 0 -23 -0.5t-34 -1t-34 -0.5
h-23q-9 0 -12 8.5t-2 19.5z" />
    <glyph glyph-name="questiondown" unicode="&#xbf;" horiz-adv-x="487" 
d="M257 438q-12 0 -23.5 1.5t-20 8t-13.5 19t-6 34.5q0 20 4.5 32t12.5 18t19 7.5t23 1.5q13 0 24 -1.5t19 -7.5t13 -18t5 -32q1 -22 -3.5 -34.5t-12.5 -19t-18.5 -8t-22.5 -1.5zM57 18q1 29 13 56t30 51t38.5 45.5t38 41.5t30 38t13.5 35l6 3q3 2 6.5 3t8.5 1q30 0 30 -26
q0 -23 -24.5 -50.5t-54.5 -59t-54.5 -66.5t-24.5 -72q0 -47 31 -78t95 -31q38 0 66 10t48 22q23 14 39 33q12 -6 18 -15q5 -8 5 -18t-11 -22q-10 -11 -27 -21.5t-38.5 -19t-47 -13.5t-52.5 -5q-88 0 -136 43.5t-46 114.5z" />
    <glyph glyph-name="Agrave" unicode="&#xc0;" horiz-adv-x="661" 
d="M420 743q-5 2 -37 16t-70 31q-44 19 -98 44q-5 2 -7.5 8.5t1.5 15.5l8 18q4 9 9.5 11.5t16.5 -3.5q14 -8 41 -22t57 -29.5t57.5 -29.5t41.5 -21t4 -25l-3 -6q-4 -7 -7 -10.5t-14 2.5zM48 0q-19 0 -7 27q1 3 12 30.5t28 70.5t38.5 97t44 110.5t44.5 111.5t39.5 99t29.5 74
t14 36q4 12 11 18t24 6h6q22 0 28 -8t12 -25q2 -5 13.5 -34t29 -73t39.5 -99t45 -112t45 -111.5t39.5 -97.5t28.5 -70.5t12 -30.5q2 -6 -1 -12.5t-16 -6.5h-12q-16 0 -19.5 7t-5.5 12q-5 12 -14 33t-19 44.5t-19 46l-15 37.5h-347q-9 -23 -19 -48t-19 -47t-16 -39.5
t-10 -24.5q-5 -15 -12.5 -18t-12.5 -3h-19zM488 227q-24 59 -48.5 122t-46 118.5t-38 98t-23.5 61.5h-6q-7 -17 -22.5 -59t-36.5 -98t-45.5 -119.5t-49.5 -123.5h316z" />
    <glyph glyph-name="Aacute" unicode="&#xc1;" horiz-adv-x="661" 
d="M237 743q-11 -6 -14 -2.5t-7 10.5l-3 6q-10 18 4 25t41 21t57 29.5t57.5 29.5t41.5 22q11 6 16.5 3.5t9.5 -11.5l8 -18q4 -9 1.5 -15.5t-7.5 -8.5q-54 -25 -98 -44q-19 -8 -37 -16t-33 -15t-25 -11t-12 -5zM48 0q-19 0 -7 27q1 3 12 30.5t28 70.5t38.5 97t44 110.5
t44.5 111.5t39.5 99t29.5 74t14 36q4 12 11 18t24 6h6q22 0 28 -8t12 -25q2 -5 13.5 -34t29 -73t39.5 -99t45 -112t45 -111.5t39.5 -97.5t28.5 -70.5t12 -30.5q2 -6 -1 -12.5t-16 -6.5h-12q-16 0 -19.5 7t-5.5 12q-5 12 -14 33t-19 44.5t-19 46l-15 37.5h-347
q-9 -23 -19 -48t-19 -47t-16 -39.5t-10 -24.5q-5 -15 -12.5 -18t-12.5 -3h-19zM488 227q-24 59 -48.5 122t-46 118.5t-38 98t-23.5 61.5h-6q-7 -17 -22.5 -59t-36.5 -98t-45.5 -119.5t-49.5 -123.5h316z" />
    <glyph glyph-name="Acircumflex" unicode="&#xc2;" horiz-adv-x="661" 
d="M174 776q-8 14 5 22q28 21 68 48.5t73 52.5q7 5 11 5q5 0 8 -1.5t5 -3.5q38 -26 73.5 -53t66.5 -49q8 -6 8.5 -12t-3.5 -13l-3 -5q-8 -12 -24 -3q-4 2 -20 12.5t-36.5 23t-41 26t-33.5 21.5l-130 -83q-15 -10 -23 5zM48 0q-19 0 -7 27q1 3 12 30.5t28 70.5t38.5 97
t44 110.5t44.5 111.5t39.5 99t29.5 74t14 36q4 12 11 18t24 6h6q22 0 28 -8t12 -25q2 -5 13.5 -34t29 -73t39.5 -99t45 -112t45 -111.5t39.5 -97.5t28.5 -70.5t12 -30.5q2 -6 -1 -12.5t-16 -6.5h-12q-16 0 -19.5 7t-5.5 12q-5 12 -14 33t-19 44.5t-19 46l-15 37.5h-347
q-9 -23 -19 -48t-19 -47t-16 -39.5t-10 -24.5q-5 -15 -12.5 -18t-12.5 -3h-19zM488 227q-24 59 -48.5 122t-46 118.5t-38 98t-23.5 61.5h-6q-7 -17 -22.5 -59t-36.5 -98t-45.5 -119.5t-49.5 -123.5h316z" />
    <glyph glyph-name="Atilde" unicode="&#xc3;" horiz-adv-x="661" 
d="M200 793q-8 7 -8 12t3 12q9 20 30 37.5t50 17.5q23 0 41 -11t33 -24t28.5 -24t26.5 -11q21 0 31 13.5t14 21.5t9.5 10.5t12.5 -4.5l10 -10q8 -8 8 -13t-5 -13q-8 -15 -27 -33t-53 -18q-23 0 -40 11t-32 24t-28.5 24t-28.5 11q-11 0 -18.5 -4t-12.5 -10t-8.5 -13t-6.5 -12
q-7 -11 -19 -2zM48 0q-19 0 -7 27q1 3 12 30.5t28 70.5t38.5 97t44 110.5t44.5 111.5t39.5 99t29.5 74t14 36q4 12 11 18t24 6h6q22 0 28 -8t12 -25q2 -5 13.5 -34t29 -73t39.5 -99t45 -112t45 -111.5t39.5 -97.5t28.5 -70.5t12 -30.5q2 -6 -1 -12.5t-16 -6.5h-12
q-16 0 -19.5 7t-5.5 12q-5 12 -14 33t-19 44.5t-19 46l-15 37.5h-347q-9 -23 -19 -48t-19 -47t-16 -39.5t-10 -24.5q-5 -15 -12.5 -18t-12.5 -3h-19zM488 227q-24 59 -48.5 122t-46 118.5t-38 98t-23.5 61.5h-6q-7 -17 -22.5 -59t-36.5 -98t-45.5 -119.5t-49.5 -123.5h316z
" />
    <glyph glyph-name="Adieresis" unicode="&#xc4;" horiz-adv-x="661" 
d="M444 754q-19 0 -29.5 6.5t-11.5 33.5q-2 28 9.5 35t28.5 7t28 -6.5t12 -35.5q1 -27 -10 -33.5t-27 -6.5zM207 754q-18 0 -29 6.5t-12 33.5q-1 28 10 35t27 7q17 0 28.5 -6.5t13.5 -35.5q1 -27 -10.5 -33.5t-27.5 -6.5zM48 0q-19 0 -7 27q1 3 12 30.5t28 70.5t38.5 97
t44 110.5t44.5 111.5t39.5 99t29.5 74t14 36q4 12 11 18t24 6h6q22 0 28 -8t12 -25q2 -5 13.5 -34t29 -73t39.5 -99t45 -112t45 -111.5t39.5 -97.5t28.5 -70.5t12 -30.5q2 -6 -1 -12.5t-16 -6.5h-12q-16 0 -19.5 7t-5.5 12q-5 12 -14 33t-19 44.5t-19 46l-15 37.5h-347
q-9 -23 -19 -48t-19 -47t-16 -39.5t-10 -24.5q-5 -15 -12.5 -18t-12.5 -3h-19zM488 227q-24 59 -48.5 122t-46 118.5t-38 98t-23.5 61.5h-6q-7 -17 -22.5 -59t-36.5 -98t-45.5 -119.5t-49.5 -123.5h316z" />
    <glyph glyph-name="Aring" unicode="&#xc5;" horiz-adv-x="661" 
d="M336 720q-34 0 -58.5 8.5t-40 23t-22.5 34t-7 41.5q0 45 31.5 77t94.5 32t94.5 -31.5t31.5 -77.5q0 -45 -33.5 -76t-90.5 -31zM335 759q25 0 41.5 6t26 16t13 22.5t3.5 24.5t-3.5 24.5t-13 22t-26 15.5t-41.5 6q-28 0 -45 -6t-26 -15.5t-11.5 -22t-2.5 -24.5t2.5 -24.5
t11.5 -22.5t26 -16t45 -6zM48 0q-19 0 -7 27q1 3 12 30.5t28 70.5t38.5 97t44 110.5t44.5 111.5t39.5 99t29.5 74t14 36q4 12 11 18t24 6h6q22 0 28 -8t12 -25q2 -5 13.5 -34t29 -73t39.5 -99t45 -112t45 -111.5t39.5 -97.5t28.5 -70.5t12 -30.5q2 -6 -1 -12.5t-16 -6.5h-12
q-16 0 -19.5 7t-5.5 12q-5 12 -14 33t-19 44.5t-19 46l-15 37.5h-347q-9 -23 -19 -48t-19 -47t-16 -39.5t-10 -24.5q-5 -15 -12.5 -18t-12.5 -3h-19zM488 227q-24 59 -48.5 122t-46 118.5t-38 98t-23.5 61.5h-6q-7 -17 -22.5 -59t-36.5 -98t-45.5 -119.5t-49.5 -123.5h316z
" />
    <glyph glyph-name="AE" unicode="&#xc6;" horiz-adv-x="913" 
d="M36 27q5 10 27 52t53.5 101t68 129t72 135.5t65 121t46.5 85.5q7 13 21 21t40 8h389q11 0 14 -7t3 -16v-6q0 -20 -17 -20h-357l-2 -269h37h60.5t70.5 0.5t67.5 0.5h51h21.5q6 1 12.5 -4.5t6.5 -14.5v-12q1 -9 -5 -14t-13 -5h-309v-262h358q16 1 16 -20v-9q0 -11 -2 -16.5
t-14 -5.5h-386q-14 0 -19.5 8.5t-5.5 22.5v149h-234q-13 -27 -27 -53q-12 -23 -26 -49.5t-25 -49.5q-5 -12 -9.5 -20t-16.5 -8h-22q-10 0 -12.5 8t2.5 19zM407 227q0 26 0.5 62.5t1 77l1 81t1 75.5t0.5 60.5v35.5h-7q-8 -13 -23.5 -40.5t-35 -63t-41 -76.5t-41.5 -80.5
t-37 -74t-28 -57.5h209z" />
    <glyph glyph-name="Ccedilla" unicode="&#xc7;" horiz-adv-x="675" 
d="M301 -114q5 -2 11 -4q10 -3 31 -3q27 0 41.5 10t14.5 23q0 9 -7.5 15t-18.5 9.5t-22.5 5t-19.5 1.5q-6 0 -7 4t1 9t6 17t8 21q-67 9 -116.5 38.5t-82 75t-49 104.5t-17.5 128q-1 72 19 136t60.5 111.5t101.5 75t144 27.5q36 0 65.5 -5t52.5 -12t39.5 -15.5t26.5 -14.5
q15 -10 18.5 -21.5t-13.5 -28.5q-2 -2 -3.5 -3t-3.5 -3l-3 -3q-21 16 -48 28q-23 11 -57 20t-78 9q-65 0 -114.5 -22.5t-83 -62.5t-50.5 -95t-17 -120q0 -66 19 -121.5t53.5 -95.5t84 -62.5t110.5 -22.5q49 0 84.5 12t55.5 24q8 5 15.5 6t14.5 -10l10 -14q10 -14 -7 -25
q-5 -3 -18.5 -10t-35 -14t-51.5 -12.5t-68 -5.5h-10t-10 1q-4 -9 -7 -17t-1 -8q31 -2 52 -13.5t21 -40.5q0 -32 -27.5 -52t-71.5 -20q-26 0 -37.5 7.5t-11.5 18.5q0 10 3 15q2 3 4 5z" />
    <glyph glyph-name="Egrave" unicode="&#xc8;" 
d="M414 743q-5 2 -37 16t-70 31q-44 19 -98 44q-5 2 -7.5 8.5t1.5 15.5l8 18q4 9 9.5 11.5t16.5 -3.5q14 -8 41 -22t57 -29.5t57.5 -29.5t41.5 -21t4 -25l-3 -6q-4 -7 -7 -10.5t-14 2.5zM114 36v36.5v72.5v96t-0.5 107t-0.5 105.5v92.5v66.5v27.5q0 6 0.5 13t3 13t7.5 10
t15 4h388q11 0 14 -5.5t3 -12.5v-12q0 -11 -2.5 -15t-13.5 -4h-362l1 -270h87t97.5 0.5t84.5 0.5h47q14 0 14 -17v-18q0 -13 -14 -13h-47.5h-84h-97.5h-88q0 -70 -1 -139t0 -126h55.5h69h74h69.5t56.5 0.5t35.5 0.5q18 0 18 -20v-14q0 -10 -3.5 -13t-14.5 -3h-388
q-14 0 -19 12t-4 24z" />
    <glyph glyph-name="Eacute" unicode="&#xc9;" 
d="M234 743q-11 -6 -14 -2.5t-7 10.5l-3 6q-10 18 4 25t41 21t57 29.5t57.5 29.5t41.5 22q11 6 16.5 3.5t9.5 -11.5l8 -18q4 -9 1.5 -15.5t-7.5 -8.5q-54 -25 -98 -44q-19 -8 -37 -16t-33 -15t-25 -11t-12 -5zM114 36v36.5v72.5v96t-0.5 107t-0.5 105.5v92.5v66.5v27.5
q0 6 0.5 13t3 13t7.5 10t15 4h388q11 0 14 -5.5t3 -12.5v-12q0 -11 -2.5 -15t-13.5 -4h-362l1 -270h87t97.5 0.5t84.5 0.5h47q14 0 14 -17v-18q0 -13 -14 -13h-47.5h-84h-97.5h-88q0 -70 -1 -139t0 -126h55.5h69h74h69.5t56.5 0.5t35.5 0.5q18 0 18 -20v-14q0 -10 -3.5 -13
t-14.5 -3h-388q-14 0 -19 12t-4 24z" />
    <glyph glyph-name="Ecircumflex" unicode="&#xca;" 
d="M163 776q-8 14 5 22q28 21 68 48.5t73 52.5q7 5 11 5q5 0 8 -1.5t5 -3.5q38 -26 73.5 -53t66.5 -49q8 -6 8.5 -12t-3.5 -13l-3 -5q-8 -12 -24 -3q-4 2 -20 12.5t-36.5 23t-41 26t-33.5 21.5l-130 -83q-15 -10 -23 5zM114 36v36.5v72.5v96t-0.5 107t-0.5 105.5v92.5v66.5
v27.5q0 6 0.5 13t3 13t7.5 10t15 4h388q11 0 14 -5.5t3 -12.5v-12q0 -11 -2.5 -15t-13.5 -4h-362l1 -270h87t97.5 0.5t84.5 0.5h47q14 0 14 -17v-18q0 -13 -14 -13h-47.5h-84h-97.5h-88q0 -70 -1 -139t0 -126h55.5h69h74h69.5t56.5 0.5t35.5 0.5q18 0 18 -20v-14
q0 -10 -3.5 -13t-14.5 -3h-388q-14 0 -19 12t-4 24z" />
    <glyph glyph-name="Edieresis" unicode="&#xcb;" 
d="M450 754q-19 0 -29.5 6.5t-11.5 33.5q-2 28 9.5 35t28.5 7t28 -6.5t12 -35.5q1 -27 -10 -33.5t-27 -6.5zM213 754q-18 0 -29 6.5t-12 33.5q-1 28 10 35t27 7q17 0 28.5 -6.5t13.5 -35.5q1 -27 -10.5 -33.5t-27.5 -6.5zM114 36v36.5v72.5v96t-0.5 107t-0.5 105.5v92.5
v66.5v27.5q0 6 0.5 13t3 13t7.5 10t15 4h388q11 0 14 -5.5t3 -12.5v-12q0 -11 -2.5 -15t-13.5 -4h-362l1 -270h87t97.5 0.5t84.5 0.5h47q14 0 14 -17v-18q0 -13 -14 -13h-47.5h-84h-97.5h-88q0 -70 -1 -139t0 -126h55.5h69h74h69.5t56.5 0.5t35.5 0.5q18 0 18 -20v-14
q0 -10 -3.5 -13t-14.5 -3h-388q-14 0 -19 12t-4 24z" />
    <glyph glyph-name="Igrave" unicode="&#xcc;" horiz-adv-x="297" 
d="M251 743q-5 2 -37 16t-70 31q-44 19 -98 44q-5 2 -7.5 8.5t1.5 15.5l8 18q4 9 9.5 11.5t16.5 -3.5q14 -8 41 -22t57 -29.5t57.5 -29.5t41.5 -21t4 -25l-3 -6q-4 -7 -7 -10.5t-14 2.5zM121 36q0 10 0.5 49.5t0.5 96.5t0.5 123.5t0.5 130.5v118v86q0 6 -0.5 13t0.5 13t5 10
t13 4h16q14 0 17 -11.5t2 -23.5q-1 -31 -1.5 -76.5t-0.5 -99.5v-112.5v-115.5t-0.5 -109t-0.5 -92q0 -6 1 -13t0 -13t-5 -10t-13 -4h-16q-14 0 -17 12t-2 24z" />
    <glyph glyph-name="Iacute" unicode="&#xcd;" horiz-adv-x="297" 
d="M48 743q-11 -6 -14 -2.5t-7 10.5l-3 6q-10 18 4 25t41 21t57 29.5t57.5 29.5t41.5 22q11 6 16.5 3.5t9.5 -11.5l8 -18q4 -9 1.5 -15.5t-7.5 -8.5q-54 -25 -98 -44q-19 -8 -37 -16t-33 -15t-25 -11t-12 -5zM121 36q0 10 0.5 49.5t0.5 96.5t0.5 123.5t0.5 130.5v118v86
q0 6 -0.5 13t0.5 13t5 10t13 4h16q14 0 17 -11.5t2 -23.5q-1 -31 -1.5 -76.5t-0.5 -99.5v-112.5v-115.5t-0.5 -109t-0.5 -92q0 -6 1 -13t0 -13t-5 -10t-13 -4h-16q-14 0 -17 12t-2 24z" />
    <glyph glyph-name="Icircumflex" unicode="&#xce;" horiz-adv-x="297" 
d="M22 764q-15 -10 -23 5l-4 7q-8 14 5 22q28 21 68 48.5t73 52.5q7 5 11 5q5 0 8 -1.5t5 -3.5q38 -26 73.5 -53t66.5 -49q8 -6 8.5 -12t-3.5 -13l-3 -5q-8 -12 -24 -3q-4 2 -20 12.5t-36.5 23t-41 26t-33.5 21.5zM121 36q0 10 0.5 49.5t0.5 96.5t0.5 123.5t0.5 130.5v118
v86q0 6 -0.5 13t0.5 13t5 10t13 4h16q14 0 17 -11.5t2 -23.5q-1 -31 -1.5 -76.5t-0.5 -99.5v-112.5v-115.5t-0.5 -109t-0.5 -92q0 -6 1 -13t0 -13t-5 -10t-13 -4h-16q-14 0 -17 12t-2 24z" />
    <glyph glyph-name="Idieresis" unicode="&#xcf;" horiz-adv-x="297" 
d="M269 754q-19 0 -29.5 6.5t-11.5 33.5q-2 28 9.5 35t28.5 7t28 -6.5t12 -35.5q1 -27 -10 -33.5t-27 -6.5zM32 754q-18 0 -29 6.5t-12 33.5q-1 28 10 35t27 7q17 0 28.5 -6.5t13.5 -35.5q1 -27 -10.5 -33.5t-27.5 -6.5zM121 36q0 10 0.5 49.5t0.5 96.5t0.5 123.5t0.5 130.5
v118v86q0 6 -0.5 13t0.5 13t5 10t13 4h16q14 0 17 -11.5t2 -23.5q-1 -31 -1.5 -76.5t-0.5 -99.5v-112.5v-115.5t-0.5 -109t-0.5 -92q0 -6 1 -13t0 -13t-5 -10t-13 -4h-16q-14 0 -17 12t-2 24z" />
    <glyph glyph-name="Eth" unicode="&#xd0;" horiz-adv-x="725" 
d="M112 36q0 7 0.5 32.5t1 63t0.5 84v96.5l-74 -1q-10 0 -14 4.5t-4 10.5v20q0 8 6 10.5t19 2.5q11 0 31 -0.5t37 -0.5v282q0 24 9.5 32t29.5 8h122q105 0 177 -25t116 -69.5t63 -105t19 -130.5q0 -78 -19 -142t-63.5 -110.5t-116.5 -72t-177 -25.5h-127q-14 0 -25 9t-11 27
zM279 49q90 0 151 22t97.5 61.5t52 95t15.5 122.5q0 57 -15 108t-51.5 89.5t-97 61t-151.5 22.5h-113v-120.5t-1 -153.5q44 0 80.5 1t65.5 1q18 0 22 -5t4 -13v-15q0 -9 -5.5 -11.5t-19.5 -2.5h-147q-1 -72 -1 -140t1 -123h113z" />
    <glyph glyph-name="Ntilde" unicode="&#xd1;" horiz-adv-x="776" 
d="M242 793q-8 7 -8 12t3 12q9 20 30 37.5t50 17.5q23 0 41 -11t33 -24t28.5 -24t26.5 -11q21 0 31 13.5t14 21.5t9.5 10.5t12.5 -4.5l10 -10q8 -8 8 -13t-5 -13q-8 -15 -27 -33t-53 -18q-23 0 -40 11t-32 24t-28.5 24t-28.5 11q-11 0 -18.5 -4t-12.5 -10t-8.5 -13t-6.5 -12
q-7 -11 -19 -2zM113 36v58.5v116v143.5t-0.5 141.5t-0.5 109.5v47q2 28 28 28h20l441 -549h8v52.5v93t-0.5 114t-1 114t-1 93.5t-0.5 53q0 6 1 17.5t13 11.5h20q14 0 17.5 -11.5t3.5 -23.5v-71v-116v-136.5t0.5 -132t1 -102t0.5 -47.5t0.5 -13t-0.5 -13t-5 -10t-13 -4h-19
q-7 0 -10.5 3t-5 8t-2.5 10.5t-2 10.5q-2 5 -19 29t-45 60t-63 80.5t-72.5 91.5t-75 93.5t-69 85.5t-54.5 68t-33 41h-10v-63t0.5 -105t0.5 -124t0.5 -119.5t1 -91t0.5 -38.5q-1 -6 -0.5 -13t-1 -13t-5.5 -10t-13 -4h-16q-14 0 -17 12t-2 24z" />
    <glyph glyph-name="Ograve" unicode="&#xd2;" horiz-adv-x="752" 
d="M250 834q-5 2 -7.5 8.5t1.5 15.5l8 18q4 9 9.5 11.5t16.5 -3.5q14 -8 41 -22t57 -29.5t57.5 -29.5t41.5 -21t4 -25l-3 -6q-4 -7 -7 -10.5t-14 2.5q-5 2 -37 16t-70 31q-44 19 -98 44zM74 340q-1 74 18 138t57.5 111t96.5 74t135 27q72 0 127 -26.5t92.5 -73.5t57 -111
t20.5 -139t-18.5 -139t-58.5 -111t-95.5 -73.5t-129.5 -26.5q-79 0 -135.5 26.5t-93.5 73t-54.5 111t-18.5 139.5zM131 341q0 -60 13 -115t42.5 -96.5t77 -66t115.5 -24.5q64 0 110 25t75.5 67t43.5 96.5t14 113.5q0 61 -14 115.5t-43.5 95.5t-75.5 65t-110 24
q-68 0 -115 -24t-76.5 -65t-43 -95.5t-13.5 -115.5z" />
    <glyph glyph-name="Oacute" unicode="&#xd3;" horiz-adv-x="752" 
d="M276 743q-11 -6 -14 -2.5t-7 10.5l-3 6q-10 18 4 25t41 21t57 29.5t57.5 29.5t41.5 22q11 6 16.5 3.5t9.5 -11.5l8 -18q4 -9 1.5 -15.5t-7.5 -8.5q-54 -25 -98 -44q-19 -8 -37 -16t-33 -15t-25 -11t-12 -5zM74 340q-1 74 18 138t57.5 111t96.5 74t135 27q72 0 127 -26.5
t92.5 -73.5t57 -111t20.5 -139t-18.5 -139t-58.5 -111t-95.5 -73.5t-129.5 -26.5q-79 0 -135.5 26.5t-93.5 73t-54.5 111t-18.5 139.5zM131 341q0 -60 13 -115t42.5 -96.5t77 -66t115.5 -24.5q64 0 110 25t75.5 67t43.5 96.5t14 113.5q0 61 -14 115.5t-43.5 95.5t-75.5 65
t-110 24q-68 0 -115 -24t-76.5 -65t-43 -95.5t-13.5 -115.5z" />
    <glyph glyph-name="Ocircumflex" unicode="&#xd4;" horiz-adv-x="752" 
d="M217 776q-8 14 5 22q28 21 68 48.5t73 52.5q7 5 11 5q5 0 8 -1.5t5 -3.5q38 -26 73.5 -53t66.5 -49q8 -6 8.5 -12t-3.5 -13l-3 -5q-8 -12 -24 -3q-4 2 -20 12.5t-36.5 23t-41 26t-33.5 21.5l-130 -83q-15 -10 -23 5zM74 340q-1 74 18 138t57.5 111t96.5 74t135 27
q72 0 127 -26.5t92.5 -73.5t57 -111t20.5 -139t-18.5 -139t-58.5 -111t-95.5 -73.5t-129.5 -26.5q-79 0 -135.5 26.5t-93.5 73t-54.5 111t-18.5 139.5zM131 341q0 -60 13 -115t42.5 -96.5t77 -66t115.5 -24.5q64 0 110 25t75.5 67t43.5 96.5t14 113.5q0 61 -14 115.5
t-43.5 95.5t-75.5 65t-110 24q-68 0 -115 -24t-76.5 -65t-43 -95.5t-13.5 -115.5z" />
    <glyph glyph-name="Otilde" unicode="&#xd5;" horiz-adv-x="752" 
d="M235 793q-8 7 -8 12t3 12q9 20 30 37.5t50 17.5q23 0 41 -11t33 -24t28.5 -24t26.5 -11q21 0 31 13.5t14 21.5t9.5 10.5t12.5 -4.5l10 -10q8 -8 8 -13t-5 -13q-8 -15 -27 -33t-53 -18q-23 0 -40 11t-32 24t-28.5 24t-28.5 11q-11 0 -18.5 -4t-12.5 -10t-8.5 -13t-6.5 -12
q-7 -11 -19 -2zM74 340q-1 74 18 138t57.5 111t96.5 74t135 27q72 0 127 -26.5t92.5 -73.5t57 -111t20.5 -139t-18.5 -139t-58.5 -111t-95.5 -73.5t-129.5 -26.5q-79 0 -135.5 26.5t-93.5 73t-54.5 111t-18.5 139.5zM131 341q0 -60 13 -115t42.5 -96.5t77 -66t115.5 -24.5
q64 0 110 25t75.5 67t43.5 96.5t14 113.5q0 61 -14 115.5t-43.5 95.5t-75.5 65t-110 24q-68 0 -115 -24t-76.5 -65t-43 -95.5t-13.5 -115.5z" />
    <glyph glyph-name="Odieresis" unicode="&#xd6;" horiz-adv-x="752" 
d="M496 754q-19 0 -29.5 6.5t-11.5 33.5q-2 28 9.5 35t28.5 7t28 -6.5t12 -35.5q1 -27 -10 -33.5t-27 -6.5zM259 754q-18 0 -29 6.5t-12 33.5q-1 28 10 35t27 7q17 0 28.5 -6.5t13.5 -35.5q1 -27 -10.5 -33.5t-27.5 -6.5zM74 340q-1 74 18 138t57.5 111t96.5 74t135 27
q72 0 127 -26.5t92.5 -73.5t57 -111t20.5 -139t-18.5 -139t-58.5 -111t-95.5 -73.5t-129.5 -26.5q-79 0 -135.5 26.5t-93.5 73t-54.5 111t-18.5 139.5zM131 341q0 -60 13 -115t42.5 -96.5t77 -66t115.5 -24.5q64 0 110 25t75.5 67t43.5 96.5t14 113.5q0 61 -14 115.5
t-43.5 95.5t-75.5 65t-110 24q-68 0 -115 -24t-76.5 -65t-43 -95.5t-13.5 -115.5z" />
    <glyph glyph-name="multiply" unicode="&#xd7;" horiz-adv-x="600" 
d="M128 159q-8 8 -7.5 15.5t10.5 17.5q2 2 22 21.5t43.5 43.5t44.5 45t25 26l-131 138q-11 11 -13 18t8 17l8 8q9 9 15.5 7.5t15.5 -12.5q3 -4 22 -25t41 -45t41 -45.5t23 -25.5l14 14l25.5 25.5t30.5 31.5t30 31.5t23.5 24.5t11.5 12q11 13 16.5 13t15.5 -10l8 -8
q10 -10 7 -17.5t-14 -18.5q-2 -2 -11.5 -11t-23 -23t-29.5 -29.5t-30 -29.5l-24.5 -24.5t-12.5 -13.5q4 -4 24.5 -25.5t44.5 -46.5t43.5 -45.5t21.5 -23.5q11 -12 12.5 -19.5t-8.5 -15.5l-8 -7q-6 -5 -13.5 -5t-18.5 11l-130 142l-133 -140q-11 -11 -18.5 -11.5t-14.5 7.5z
" />
    <glyph glyph-name="Oslash" unicode="&#xd8;" horiz-adv-x="752" 
d="M115 22q5 9 16.5 24.5t23.5 32.5l-1 1q-41 48 -60 114t-20 146q-1 74 18 138t57.5 111t96.5 74t135 27q51 0 93 -13.5t76 -38.5q11 18 20.5 33t13.5 22q6 9 12 13.5t18 -2.5l15 -8q12 -6 12 -13.5t-7 -18.5q-5 -9 -16.5 -25t-25.5 -39q42 -48 63.5 -114.5t22.5 -145.5
q1 -75 -18.5 -139t-58.5 -111t-95.5 -73.5t-129.5 -26.5q-56 0 -100.5 13t-78.5 38q-1 -1 -3 1l-31 -50q-9 -14 -15 -15t-13 4l-12 8q-15 10 -14.5 16.5t6.5 16.5zM131 341q0 -60 13 -115t42.5 -96.5t77 -66t115.5 -24.5q64 0 110 25t75.5 67t43.5 96.5t14 113.5
q0 61 -14 115.5t-43.5 95.5t-75.5 65t-110 24q-68 0 -115 -24t-76.5 -65t-43 -95.5t-13.5 -115.5z" />
    <glyph glyph-name="Ugrave" unicode="&#xd9;" horiz-adv-x="748" 
d="M262 834q-5 2 -7.5 8.5t1.5 15.5l8 18q4 9 9.5 11.5t16.5 -3.5q14 -8 41 -22t57 -29.5t57.5 -29.5t41.5 -21t4 -25l-3 -6q-4 -7 -7 -10.5t-14 2.5q-5 2 -37 16t-70 31q-44 19 -98 44zM105 317q0 50 0.5 107t0.5 106v83v39q2 28 18 28h18q14 0 15.5 -7t1.5 -19v-35v-72
t0.5 -103t0.5 -127q0 -63 10 -114t34.5 -87.5t66 -56.5t104.5 -20q58 0 98.5 19.5t66 55.5t37 88t11.5 117v122t-0.5 103.5t-0.5 74v33.5q0 28 16 28h16q14 0 19 -7t4 -19v-28t-0.5 -56.5t0 -72.5t0 -75t-0.5 -64v-40q-1 -74 -14 -134.5t-43.5 -103.5t-81.5 -66.5
t-128 -23.5q-78 0 -130 23t-83 66t-43.5 103.5t-12.5 134.5z" />
    <glyph glyph-name="Uacute" unicode="&#xda;" horiz-adv-x="748" 
d="M282 743q-11 -6 -14 -2.5t-7 10.5l-3 6q-10 18 4 25t41 21t57 29.5t57.5 29.5t41.5 22q11 6 16.5 3.5t9.5 -11.5l8 -18q4 -9 1.5 -15.5t-7.5 -8.5q-54 -25 -98 -44q-19 -8 -37 -16t-33 -15t-25 -11t-12 -5zM105 317q0 50 0.5 107t0.5 106v83v39q2 28 18 28h18
q14 0 15.5 -7t1.5 -19v-35v-72t0.5 -103t0.5 -127q0 -63 10 -114t34.5 -87.5t66 -56.5t104.5 -20q58 0 98.5 19.5t66 55.5t37 88t11.5 117v122t-0.5 103.5t-0.5 74v33.5q0 28 16 28h16q14 0 19 -7t4 -19v-28t-0.5 -56.5t0 -72.5t0 -75t-0.5 -64v-40q-1 -74 -14 -134.5
t-43.5 -103.5t-81.5 -66.5t-128 -23.5q-78 0 -130 23t-83 66t-43.5 103.5t-12.5 134.5z" />
    <glyph glyph-name="Ucircumflex" unicode="&#xdb;" horiz-adv-x="748" 
d="M216 776q-8 14 5 22q28 21 68 48.5t73 52.5q7 5 11 5q5 0 8 -1.5t5 -3.5q38 -26 73.5 -53t66.5 -49q8 -6 8.5 -12t-3.5 -13l-3 -5q-8 -12 -24 -3q-4 2 -20 12.5t-36.5 23t-41 26t-33.5 21.5l-130 -83q-15 -10 -23 5zM105 317q0 50 0.5 107t0.5 106v83v39q2 28 18 28h18
q14 0 15.5 -7t1.5 -19v-35v-72t0.5 -103t0.5 -127q0 -63 10 -114t34.5 -87.5t66 -56.5t104.5 -20q58 0 98.5 19.5t66 55.5t37 88t11.5 117v122t-0.5 103.5t-0.5 74v33.5q0 28 16 28h16q14 0 19 -7t4 -19v-28t-0.5 -56.5t0 -72.5t0 -75t-0.5 -64v-40q-1 -74 -14 -134.5
t-43.5 -103.5t-81.5 -66.5t-128 -23.5q-78 0 -130 23t-83 66t-43.5 103.5t-12.5 134.5z" />
    <glyph glyph-name="Udieresis" unicode="&#xdc;" horiz-adv-x="748" 
d="M494 754q-19 0 -29.5 6.5t-11.5 33.5q-2 28 9.5 35t28.5 7t28 -6.5t12 -35.5q1 -27 -10 -33.5t-27 -6.5zM257 754q-18 0 -29 6.5t-12 33.5q-1 28 10 35t27 7q17 0 28.5 -6.5t13.5 -35.5q1 -27 -10.5 -33.5t-27.5 -6.5zM105 317q0 50 0.5 107t0.5 106v83v39q2 28 18 28h18
q14 0 15.5 -7t1.5 -19v-35v-72t0.5 -103t0.5 -127q0 -63 10 -114t34.5 -87.5t66 -56.5t104.5 -20q58 0 98.5 19.5t66 55.5t37 88t11.5 117v122t-0.5 103.5t-0.5 74v33.5q0 28 16 28h16q14 0 19 -7t4 -19v-28t-0.5 -56.5t0 -72.5t0 -75t-0.5 -64v-40q-1 -74 -14 -134.5
t-43.5 -103.5t-81.5 -66.5t-128 -23.5q-78 0 -130 23t-83 66t-43.5 103.5t-12.5 134.5z" />
    <glyph glyph-name="Yacute" unicode="&#xdd;" horiz-adv-x="620" 
d="M218 743q-11 -6 -14 -2.5t-7 10.5l-3 6q-10 18 4 25t41 21t57 29.5t57.5 29.5t41.5 22q11 6 16.5 3.5t9.5 -11.5l8 -18q4 -9 1.5 -15.5t-7.5 -8.5q-54 -25 -98 -44q-19 -8 -37 -16t-33 -15t-25 -11t-12 -5zM283 36v23.5v44.5v55t0.5 55.5t0.5 46.5v27q-11 16 -33 48.5
t-49 71.5t-56 81t-54 77t-42 59.5t-20 29.5q-2 2 -3 6.5t0 8.5t5 7t12 3h17q14 0 21 -6t12 -15q4 -8 18.5 -29.5t34.5 -51.5l43 -64.5l45 -67.5t41 -60.5t30 -43.5h8q10 15 29.5 43t42.5 62t47.5 70.5t45 67t35 52t17.5 26.5q6 9 11.5 13t19.5 4h16q12 0 14.5 -7t-2.5 -15
q-6 -9 -24.5 -36t-44 -64t-54 -79t-55 -80t-47 -68t-29.5 -43v-28t0.5 -46.5t0 -55.5t0 -54t0.5 -43v-21q0 -6 1 -13t0 -13t-5 -10t-13 -4h-16q-14 0 -18.5 12t-2.5 24z" />
    <glyph glyph-name="Thorn" unicode="&#xde;" horiz-adv-x="630" 
d="M117 36v36.5v72.5t-0.5 96t-1 107t-1 105.5t-0.5 92.5v66.5v27.5q0 6 -1 13t0 13t5 10t14 4h14q11 0 15.5 -4t6 -10t1 -13.5t-0.5 -14.5v-51h156q57 0 102 -18t76 -49.5t47.5 -73.5t16.5 -91q1 -48 -15 -91t-46 -74.5t-74 -50t-100 -18.5h-160v-18t0.5 -27.5t0.5 -26.5
v-14v-24t-16 -11h-20q-14 0 -17 12t-2 24zM332 169q43 0 76.5 13.5t56 38.5t34.5 59t12 75q0 40 -12 74t-36 59t-59 38.5t-81 13.5h-154v-41v-66.5t0.5 -79t0.5 -78.5v-66v-40h162z" />
    <glyph glyph-name="germandbls" unicode="&#xdf;" horiz-adv-x="596" 
d="M98 35q0 7 0.5 32.5t0.5 62t1 79.5t1 84.5t0.5 78t0.5 59.5q0 66 15.5 118t43.5 88t67 54.5t86 18.5q40 0 74 -11t59.5 -32t40 -51.5t14.5 -70.5q0 -32 -11 -60.5t-24.5 -53t-24.5 -44.5t-11 -34q0 -15 17.5 -33t39 -43t39 -57t17.5 -75q0 -76 -51 -115.5t-135 -39.5
q-43 0 -73.5 12.5t-34.5 27.5q-4 14 2.5 21.5t11.5 11.5q12 -8 26 -14q12 -5 29 -9.5t39 -4.5q63 0 98.5 28.5t35.5 79.5q0 37 -17.5 64.5t-39 51t-39 46t-17.5 49.5q0 18 11 40t24.5 46.5t24.5 51t11 53.5t-10.5 49t-29 37.5t-43.5 24.5t-53 9q-33 0 -62.5 -13.5t-51.5 -42
t-35 -73t-13 -105.5q0 -19 -0.5 -51.5t-1 -72t-0.5 -82t-0.5 -80t-0.5 -67v-43.5q0 -21 -2.5 -28t-15.5 -7h-14q-16 0 -17.5 8t-1.5 27z" />
    <glyph glyph-name="agrave" unicode="&#xe0;" horiz-adv-x="573" 
d="M396 625q-5 2 -37 16t-70 31q-44 19 -98 44q-5 2 -7.5 8.5t1.5 15.5l8 18q4 9 9.5 11.5t16.5 -3.5q14 -8 41 -22t57 -29.5t57.5 -29.5t41.5 -21t4 -25l-3 -6q-4 -7 -7 -10.5t-14 2.5zM57 161q3 73 54 118t143 47q31 0 60 -3.5t52 -9t38.5 -10.5t20.5 -8v64
q0 81 -37 117.5t-107 36.5q-40 0 -70.5 -7.5t-52.5 -16.5q-26 -11 -45 -24q-2 1 -7 6.5t-8 13t-2 16t12 16.5q21 16 66 29.5t111 13.5q99 0 147.5 -54t46.5 -147q-1 -34 -2 -82.5t-1 -97.5t1 -91t3 -63q2 -19 -2 -27t-27 -8q-13 0 -19 8t-7 20.5t1 27.5t4 28h-5
q-25 -24 -56 -42q-26 -16 -61.5 -29t-75.5 -13q-48 0 -81.5 14.5t-55 38t-31 54.5t-7.5 64zM110 161q-1 -55 32 -90.5t99 -35.5q32 0 61.5 9t53.5 23.5t42 32.5t27 36v116q-6 2 -20.5 7t-36.5 10t-49.5 8.5t-59.5 3.5q-66 0 -107 -31t-42 -89z" />
    <glyph glyph-name="aacute" unicode="&#xe1;" horiz-adv-x="573" 
d="M181 625q-11 -6 -14 -2.5t-7 10.5l-3 6q-10 18 4 25t41 21t57 29.5t57.5 29.5t41.5 22q11 6 16.5 3.5t9.5 -11.5l8 -18q4 -9 1.5 -15.5t-7.5 -8.5q-54 -25 -98 -44q-19 -8 -37 -16t-33 -15t-25 -11t-12 -5zM57 161q3 73 54 118t143 47q31 0 60 -3.5t52 -9t38.5 -10.5
t20.5 -8v64q0 81 -37 117.5t-107 36.5q-40 0 -70.5 -7.5t-52.5 -16.5q-26 -11 -45 -24q-2 1 -7 6.5t-8 13t-2 16t12 16.5q21 16 66 29.5t111 13.5q99 0 147.5 -54t46.5 -147q-1 -34 -2 -82.5t-1 -97.5t1 -91t3 -63q2 -19 -2 -27t-27 -8q-13 0 -19 8t-7 20.5t1 27.5t4 28h-5
q-25 -24 -56 -42q-26 -16 -61.5 -29t-75.5 -13q-48 0 -81.5 14.5t-55 38t-31 54.5t-7.5 64zM110 161q-1 -55 32 -90.5t99 -35.5q32 0 61.5 9t53.5 23.5t42 32.5t27 36v116q-6 2 -20.5 7t-36.5 10t-49.5 8.5t-59.5 3.5q-66 0 -107 -31t-42 -89z" />
    <glyph glyph-name="acircumflex" unicode="&#xe2;" horiz-adv-x="573" 
d="M127 643q-8 14 5 22q28 21 68 48.5t73 52.5q7 5 11 5q5 0 8 -1.5t5 -3.5q38 -26 73.5 -53t66.5 -49q8 -6 8.5 -12t-3.5 -13l-3 -5q-8 -12 -24 -3q-4 2 -20 12.5t-36.5 23t-41 26t-33.5 21.5l-130 -83q-15 -10 -23 5zM57 161q3 73 54 118t143 47q31 0 60 -3.5t52 -9
t38.5 -10.5t20.5 -8v64q0 81 -37 117.5t-107 36.5q-40 0 -70.5 -7.5t-52.5 -16.5q-26 -11 -45 -24q-2 1 -7 6.5t-8 13t-2 16t12 16.5q21 16 66 29.5t111 13.5q99 0 147.5 -54t46.5 -147q-1 -34 -2 -82.5t-1 -97.5t1 -91t3 -63q2 -19 -2 -27t-27 -8q-13 0 -19 8t-7 20.5
t1 27.5t4 28h-5q-25 -24 -56 -42q-26 -16 -61.5 -29t-75.5 -13q-48 0 -81.5 14.5t-55 38t-31 54.5t-7.5 64zM110 161q-1 -55 32 -90.5t99 -35.5q32 0 61.5 9t53.5 23.5t42 32.5t27 36v116q-6 2 -20.5 7t-36.5 10t-49.5 8.5t-59.5 3.5q-66 0 -107 -31t-42 -89z" />
    <glyph glyph-name="atilde" unicode="&#xe3;" horiz-adv-x="573" 
d="M143 659q-8 7 -8 12t3 12q9 20 30 37.5t50 17.5q23 0 41 -11t33 -24t28.5 -24t26.5 -11q21 0 31 13.5t14 21.5t9.5 10.5t12.5 -4.5l10 -10q8 -8 8 -13t-5 -13q-8 -15 -27 -33t-53 -18q-23 0 -40 11t-32 24t-28.5 24t-28.5 11q-11 0 -18.5 -4t-12.5 -10t-8.5 -12.5
t-6.5 -12.5q-6 -12 -20 -1zM57 161q3 73 54 118t143 47q31 0 60 -3.5t52 -9t38.5 -10.5t20.5 -8v64q0 81 -37 117.5t-107 36.5q-40 0 -70.5 -7.5t-52.5 -16.5q-26 -11 -45 -24q-2 1 -7 6.5t-8 13t-2 16t12 16.5q21 16 66 29.5t111 13.5q99 0 147.5 -54t46.5 -147
q-1 -34 -2 -82.5t-1 -97.5t1 -91t3 -63q2 -19 -2 -27t-27 -8q-13 0 -19 8t-7 20.5t1 27.5t4 28h-5q-25 -24 -56 -42q-26 -16 -61.5 -29t-75.5 -13q-48 0 -81.5 14.5t-55 38t-31 54.5t-7.5 64zM110 161q-1 -55 32 -90.5t99 -35.5q32 0 61.5 9t53.5 23.5t42 32.5t27 36v116
q-6 2 -20.5 7t-36.5 10t-49.5 8.5t-59.5 3.5q-66 0 -107 -31t-42 -89z" />
    <glyph glyph-name="adieresis" unicode="&#xe4;" horiz-adv-x="573" 
d="M406 642q-19 0 -29.5 6.5t-11.5 34.5q-2 28 9.5 34.5t28.5 6.5t28 -6.5t12 -34.5t-10 -34.5t-27 -6.5zM169 642q-18 0 -29 6.5t-12 34.5t10 34.5t27 6.5q17 0 28.5 -6.5t13.5 -34.5q1 -28 -10.5 -34.5t-27.5 -6.5zM57 161q3 73 54 118t143 47q31 0 60 -3.5t52 -9
t38.5 -10.5t20.5 -8v64q0 81 -37 117.5t-107 36.5q-40 0 -70.5 -7.5t-52.5 -16.5q-26 -11 -45 -24q-2 1 -7 6.5t-8 13t-2 16t12 16.5q21 16 66 29.5t111 13.5q99 0 147.5 -54t46.5 -147q-1 -34 -2 -82.5t-1 -97.5t1 -91t3 -63q2 -19 -2 -27t-27 -8q-13 0 -19 8t-7 20.5
t1 27.5t4 28h-5q-25 -24 -56 -42q-26 -16 -61.5 -29t-75.5 -13q-48 0 -81.5 14.5t-55 38t-31 54.5t-7.5 64zM110 161q-1 -55 32 -90.5t99 -35.5q32 0 61.5 9t53.5 23.5t42 32.5t27 36v116q-6 2 -20.5 7t-36.5 10t-49.5 8.5t-59.5 3.5q-66 0 -107 -31t-42 -89z" />
    <glyph glyph-name="aring" unicode="&#xe5;" horiz-adv-x="573" 
d="M294 632q-34 0 -58.5 8.5t-40 23t-22.5 34t-7 41.5q0 45 31.5 77t94.5 32t94.5 -31.5t31.5 -77.5q0 -45 -33.5 -76t-90.5 -31zM293 671q25 0 41.5 6t26 16t13 22.5t3.5 24.5t-3.5 24.5t-13 22t-26 15.5t-41.5 6q-28 0 -45 -6t-26 -15.5t-11.5 -22t-2.5 -24.5t2.5 -24.5
t11.5 -22.5t26 -16t45 -6zM57 161q3 73 54 118t143 47q31 0 60 -3.5t52 -9t38.5 -10.5t20.5 -8v64q0 81 -37 117.5t-107 36.5q-40 0 -70.5 -7.5t-52.5 -16.5q-26 -11 -45 -24q-2 1 -7 6.5t-8 13t-2 16t12 16.5q21 16 66 29.5t111 13.5q99 0 147.5 -54t46.5 -147
q-1 -34 -2 -82.5t-1 -97.5t1 -91t3 -63q2 -19 -2 -27t-27 -8q-13 0 -19 8t-7 20.5t1 27.5t4 28h-5q-25 -24 -56 -42q-26 -16 -61.5 -29t-75.5 -13q-48 0 -81.5 14.5t-55 38t-31 54.5t-7.5 64zM110 161q-1 -55 32 -90.5t99 -35.5q32 0 61.5 9t53.5 23.5t42 32.5t27 36v116
q-6 2 -20.5 7t-36.5 10t-49.5 8.5t-59.5 3.5q-66 0 -107 -31t-42 -89z" />
    <glyph glyph-name="ae" unicode="&#xe6;" horiz-adv-x="933" 
d="M57 161q3 73 52.5 118t138.5 47q30 0 58 -3.5t50.5 -9t37.5 -10.5t20 -8v76q0 72 -38.5 107t-97.5 35q-38 0 -67.5 -7.5t-49.5 -16.5q-24 -11 -42 -24l-4.5 5t-8.5 12t-3.5 16.5t11.5 18.5q20 17 62.5 30t105.5 13q36 0 65 -10.5t51 -28t36 -40.5t20 -48q9 25 27 48
t43 40.5t56.5 28t67.5 10.5q52 0 90.5 -16.5t64 -44.5t38 -63.5t12.5 -72.5q0 -32 -2.5 -49.5t-7.5 -25.5t-12.5 -9t-17.5 -1h-349l-2 -3q0 -48 11.5 -91.5t36.5 -76.5t63.5 -52.5t92.5 -19.5q33 0 61 8t49.5 18t34 18.5t14.5 9.5q2 0 6 -2q2 -2 5.5 -4t6.5 -7q4 -6 3 -15.5
t-9 -17.5q-6 -6 -22 -15.5t-38.5 -17.5t-51 -14t-60.5 -6q-44 0 -78.5 10.5t-61 27.5t-45.5 38.5t-32 43.5h-6q-21 -34 -53 -60q-27 -23 -68.5 -41.5t-98.5 -18.5q-44 0 -76 14.5t-52 38t-29.5 54.5t-7.5 64zM798 323q0 7 1 15q0 6 0.5 13t0.5 12q0 32 -10 59.5t-29 48
t-47.5 32.5t-65.5 12q-46 0 -79 -21t-54.5 -51t-32.5 -63t-13 -57h329zM110 160q0 -55 31.5 -90t94.5 -35q30 0 58.5 11.5t52 29t41 37.5t26.5 38v101q-6 2 -20 7t-34.5 10t-47.5 8.5t-58 3.5q-63 0 -103.5 -31t-40.5 -90z" />
    <glyph glyph-name="ccedilla" unicode="&#xe7;" horiz-adv-x="551" 
d="M225 -114q5 -2 11 -4q10 -3 31 -3q27 0 41.5 10t14.5 23q0 9 -7.5 15t-18.5 9.5t-22.5 5t-19.5 1.5q-6 0 -7 4t1 9t6 16.5t8 20.5q-89 13 -141.5 82.5t-52.5 199.5q0 60 18 112t51 90.5t79.5 60.5t103.5 22q45 0 74.5 -9.5t47 -23.5t25 -30t10.5 -29q5 -31 -8 -44.5
t-38 -7.5v5q0 2 0.5 5t0.5 5q0 12 -5.5 27t-18.5 27.5t-34.5 21t-53.5 8.5q-44 0 -80 -16.5t-62 -47.5t-40.5 -75.5t-14.5 -100.5q-1 -115 49 -177.5t136 -62.5q35 0 62.5 7t47.5 16q22 11 39 24q5 -2 9 -6q3 -4 5.5 -10t0.5 -15q-2 -10 -14 -20.5t-33.5 -19.5t-51 -15
t-65.5 -6h-8q-4 -8 -7 -16t-1 -8q31 -2 52 -13.5t21 -40.5q0 -32 -27.5 -52t-71.5 -20q-26 0 -37.5 7.5t-11.5 18.5q0 10 3 15q2 3 4 5z" />
    <glyph glyph-name="egrave" unicode="&#xe8;" horiz-adv-x="595" 
d="M211 716q-5 2 -7.5 8.5t1.5 15.5l8 18q4 9 9.5 11.5t16.5 -3.5q14 -8 41 -22t57 -29.5t57.5 -29.5t41.5 -21t4 -25l-3 -6q-4 -7 -7 -10.5t-14 2.5q-5 2 -37 16t-70 31q-44 19 -98 44zM71 278q0 60 16.5 111.5t47.5 89.5t75.5 59.5t99.5 21.5q49 0 87.5 -17t64.5 -45
t39.5 -63.5t13.5 -71.5q0 -32 -2.5 -49.5t-7.5 -25.5t-12.5 -9t-17.5 -1h-349l-2 -3q0 -48 11 -91.5t35 -76.5t61.5 -52.5t91.5 -19.5q33 0 60 8t47 18t31.5 18.5t12.5 9.5q2 0 6 -2q2 -2 5.5 -4t6.5 -7q4 -6 3 -15.5t-9 -17.5q-6 -6 -21 -15.5t-36 -17.5t-48.5 -14
t-58.5 -6q-66 0 -113.5 21.5t-78 60t-45 91.5t-14.5 115zM460 323q0 5 1 12q0 5 0.5 12.5t0.5 15.5q0 27 -9.5 54.5t-29 49t-48 35t-65.5 13.5q-49 0 -82.5 -20.5t-55 -50.5t-32 -63t-11.5 -58h331z" />
    <glyph glyph-name="eacute" unicode="&#xe9;" horiz-adv-x="595" 
d="M211 625q-11 -6 -14 -2.5t-7 10.5l-3 6q-10 18 4 25t41 21t57 29.5t57.5 29.5t41.5 22q11 6 16.5 3.5t9.5 -11.5l8 -18q4 -9 1.5 -15.5t-7.5 -8.5q-54 -25 -98 -44q-19 -8 -37 -16t-33 -15t-25 -11t-12 -5zM71 278q0 60 16.5 111.5t47.5 89.5t75.5 59.5t99.5 21.5
q49 0 87.5 -17t64.5 -45t39.5 -63.5t13.5 -71.5q0 -32 -2.5 -49.5t-7.5 -25.5t-12.5 -9t-17.5 -1h-349l-2 -3q0 -48 11 -91.5t35 -76.5t61.5 -52.5t91.5 -19.5q33 0 60 8t47 18t31.5 18.5t12.5 9.5q2 0 6 -2q2 -2 5.5 -4t6.5 -7q4 -6 3 -15.5t-9 -17.5q-6 -6 -21 -15.5
t-36 -17.5t-48.5 -14t-58.5 -6q-66 0 -113.5 21.5t-78 60t-45 91.5t-14.5 115zM460 323q0 5 1 12q0 5 0.5 12.5t0.5 15.5q0 27 -9.5 54.5t-29 49t-48 35t-65.5 13.5q-49 0 -82.5 -20.5t-55 -50.5t-32 -63t-11.5 -58h331z" />
    <glyph glyph-name="ecircumflex" unicode="&#xea;" horiz-adv-x="595" 
d="M158 643q-8 14 5 22q28 21 68 48.5t73 52.5q7 5 11 5q5 0 8 -1.5t5 -3.5q38 -26 73.5 -53t66.5 -49q8 -6 8.5 -12t-3.5 -13l-3 -5q-8 -12 -24 -3q-4 2 -20 12.5t-36.5 23t-41 26t-33.5 21.5l-130 -83q-15 -10 -23 5zM71 278q0 60 16.5 111.5t47.5 89.5t75.5 59.5
t99.5 21.5q49 0 87.5 -17t64.5 -45t39.5 -63.5t13.5 -71.5q0 -32 -2.5 -49.5t-7.5 -25.5t-12.5 -9t-17.5 -1h-349l-2 -3q0 -48 11 -91.5t35 -76.5t61.5 -52.5t91.5 -19.5q33 0 60 8t47 18t31.5 18.5t12.5 9.5q2 0 6 -2q2 -2 5.5 -4t6.5 -7q4 -6 3 -15.5t-9 -17.5
q-6 -6 -21 -15.5t-36 -17.5t-48.5 -14t-58.5 -6q-66 0 -113.5 21.5t-78 60t-45 91.5t-14.5 115zM460 323q0 5 1 12q0 5 0.5 12.5t0.5 15.5q0 27 -9.5 54.5t-29 49t-48 35t-65.5 13.5q-49 0 -82.5 -20.5t-55 -50.5t-32 -63t-11.5 -58h331z" />
    <glyph glyph-name="edieresis" unicode="&#xeb;" horiz-adv-x="595" 
d="M437 642q-19 0 -29.5 6.5t-11.5 34.5q-2 28 9.5 34.5t28.5 6.5t28 -6.5t12 -34.5t-10 -34.5t-27 -6.5zM200 642q-18 0 -29 6.5t-12 34.5t10 34.5t27 6.5q17 0 28.5 -6.5t13.5 -34.5q1 -28 -10.5 -34.5t-27.5 -6.5zM71 278q0 60 16.5 111.5t47.5 89.5t75.5 59.5t99.5 21.5
q49 0 87.5 -17t64.5 -45t39.5 -63.5t13.5 -71.5q0 -32 -2.5 -49.5t-7.5 -25.5t-12.5 -9t-17.5 -1h-349l-2 -3q0 -48 11 -91.5t35 -76.5t61.5 -52.5t91.5 -19.5q33 0 60 8t47 18t31.5 18.5t12.5 9.5q2 0 6 -2q2 -2 5.5 -4t6.5 -7q4 -6 3 -15.5t-9 -17.5q-6 -6 -21 -15.5
t-36 -17.5t-48.5 -14t-58.5 -6q-66 0 -113.5 21.5t-78 60t-45 91.5t-14.5 115zM460 323q0 5 1 12q0 5 0.5 12.5t0.5 15.5q0 27 -9.5 54.5t-29 49t-48 35t-65.5 13.5q-49 0 -82.5 -20.5t-55 -50.5t-32 -63t-11.5 -58h331z" />
    <glyph glyph-name="igrave" unicode="&#xec;" horiz-adv-x="283" 
d="M234 625q-5 2 -37 16t-70 31q-44 19 -98 44q-5 2 -7.5 8.5t1.5 15.5l8 18q4 9 9.5 11.5t16.5 -3.5q14 -8 41 -22t57 -29.5t57.5 -29.5t41.5 -21t4 -25l-3 -6q-4 -7 -7 -10.5t-14 2.5zM115 36q0 7 0.5 20.5t1 30t0.5 34v34.5v94v105v96v67q0 13 1.5 23t19.5 10
q20 0 25.5 -4.5t3.5 -18.5q-2 -51 -2 -107.5t0.5 -109.5t0.5 -99v-77t0.5 -59t0.5 -39q0 -20 -5 -28t-17 -8h-7q-17 0 -20.5 9.5t-2.5 26.5z" />
    <glyph glyph-name="iacute" unicode="&#xed;" horiz-adv-x="283" 
d="M49 625q-11 -6 -14 -2.5t-7 10.5l-3 6q-10 18 4 25t41 21t57 29.5t57.5 29.5t41.5 22q11 6 16.5 3.5t9.5 -11.5l8 -18q4 -9 1.5 -15.5t-7.5 -8.5q-54 -25 -98 -44q-19 -8 -37 -16t-33 -15t-25 -11t-12 -5zM115 36q0 7 0.5 20.5t1 30t0.5 34v34.5v94v105v96v67
q0 13 1.5 23t19.5 10q20 0 25.5 -4.5t3.5 -18.5q-2 -51 -2 -107.5t0.5 -109.5t0.5 -99v-77t0.5 -59t0.5 -39q0 -20 -5 -28t-17 -8h-7q-17 0 -20.5 9.5t-2.5 26.5z" />
    <glyph glyph-name="icircumflex" unicode="&#xee;" horiz-adv-x="283" 
d="M14 631q-15 -10 -23 5l-4 7q-8 14 5 22q28 21 68 48.5t73 52.5q7 5 11 5q5 0 8 -1.5t5 -3.5q38 -26 73.5 -53t66.5 -49q8 -6 8.5 -12t-3.5 -13l-3 -5q-8 -12 -24 -3q-4 2 -20 12.5t-36.5 23t-41 26t-33.5 21.5zM115 36q0 7 0.5 20.5t1 30t0.5 34v34.5v94v105v96v67
q0 13 1.5 23t19.5 10q20 0 25.5 -4.5t3.5 -18.5q-2 -51 -2 -107.5t0.5 -109.5t0.5 -99v-77t0.5 -59t0.5 -39q0 -20 -5 -28t-17 -8h-7q-17 0 -20.5 9.5t-2.5 26.5z" />
    <glyph glyph-name="idieresis" unicode="&#xef;" horiz-adv-x="283" 
d="M264 642q-19 0 -29.5 6.5t-11.5 34.5q-2 28 9.5 34.5t28.5 6.5t28 -6.5t12 -34.5t-10 -34.5t-27 -6.5zM27 642q-18 0 -29 6.5t-12 34.5t10 34.5t27 6.5q17 0 28.5 -6.5t13.5 -34.5q1 -28 -10.5 -34.5t-27.5 -6.5zM115 36q0 7 0.5 20.5t1 30t0.5 34v34.5v94v105v96v67
q0 13 1.5 23t19.5 10q20 0 25.5 -4.5t3.5 -18.5q-2 -51 -2 -107.5t0.5 -109.5t0.5 -99v-77t0.5 -59t0.5 -39q0 -20 -5 -28t-17 -8h-7q-17 0 -20.5 9.5t-2.5 26.5z" />
    <glyph glyph-name="eth" unicode="&#xf0;" horiz-adv-x="613" 
d="M60 215q0 55 19.5 95t51 66t71.5 38.5t81 12.5q54 0 89.5 -17t58.5 -37q26 -24 42 -54h8q0 44 -8 86t-23.5 78.5t-38 66.5t-52.5 51q-10 -16 -18 -30.5t-14 -24.5q-5 -8 -7.5 -13t-5.5 -6.5t-7.5 0t-12.5 5.5l-8 4q-12 6 -10.5 14t7.5 18l34 56q-40 17 -86 17
q-31 0 -55.5 -5.5t-41.5 -12.5q-20 -8 -37 -18q-2 1 -5 4l-5 5t-5 8q-14 27 17 42q20 9 54 17.5t78 8.5q31 0 58.5 -6t52.5 -17l20 32q9 15 14.5 24.5t21.5 0.5l11 -6q6 -4 10.5 -11.5t-8.5 -24.5q-5 -5 -11.5 -15.5t-14.5 -23.5q36 -25 64 -61t46.5 -79t28 -91.5t9.5 -98.5
q0 -158 -65.5 -240.5t-184.5 -82.5q-45 0 -85.5 17t-71 47t-48.5 71.5t-18 89.5zM117 215q0 -35 10.5 -66.5t31.5 -56t52 -39t72 -14.5q36 0 69 11.5t58.5 33.5t40 54t14.5 73q0 29 -10.5 58.5t-31.5 53t-54 38.5t-78 15q-33 0 -64 -9.5t-55.5 -29t-39.5 -50t-15 -72.5z" />
    <glyph glyph-name="ntilde" unicode="&#xf1;" horiz-adv-x="640" 
d="M179 659q-8 7 -8 12t3 12q9 20 30 37.5t50 17.5q23 0 41 -11t33 -24t28.5 -24t26.5 -11q21 0 31 13.5t14 21.5t9.5 10.5t12.5 -4.5l10 -10q8 -8 8 -13t-5 -13q-8 -15 -27 -33t-53 -18q-23 0 -40 11t-32 24t-28.5 24t-28.5 11q-11 0 -18.5 -4t-12.5 -10t-8.5 -12.5
t-6.5 -12.5q-6 -12 -20 -1zM94 35q0 7 1 20.5t1.5 30t1 34.5t0.5 35v64.5v77.5t0.5 80t0.5 72v53.5v24.5q0 13 1.5 23t16.5 10q22 0 27.5 -7.5t5.5 -24.5t-1.5 -34.5t-1.5 -32.5h7q4 4 17.5 20t37 33.5t57.5 31.5t79 14q96 0 149.5 -52.5t52.5 -156.5q0 -31 -0.5 -71.5
t-0.5 -84v-86.5v-78q0 -7 1 -14t0.5 -13t-5 -10t-15.5 -4q-13 0 -19.5 3t-9.5 7t-3 8.5v8.5v334q0 34 -9.5 64t-28.5 52.5t-48 35t-69 12.5q-41 0 -73.5 -13.5t-56.5 -33.5t-39.5 -43.5t-22.5 -42.5q0 -27 -0.5 -62t-0.5 -70t-0.5 -66t-0.5 -50v-101q1 -11 -1 -22t-19 -11
h-12q-16 0 -18.5 12.5t-1.5 22.5z" />
    <glyph glyph-name="ograve" unicode="&#xf2;" horiz-adv-x="613" 
d="M399 625q-5 2 -37 16t-70 31q-44 19 -98 44q-5 2 -7.5 8.5t1.5 15.5l8 18q4 9 9.5 11.5t16.5 -3.5q14 -8 41 -22t57 -29.5t57.5 -29.5t41.5 -21t4 -25l-3 -6q-4 -7 -7 -10.5t-14 2.5zM68 279q1 58 16 109t44.5 89.5t73.5 60.5t103 22q60 0 105 -22t75.5 -59.5t45.5 -89
t14 -109.5q-1 -62 -16 -115.5t-45 -92.5t-74.5 -61t-103.5 -22q-60 0 -105 22t-75 60.5t-44.5 91.5t-13.5 116zM121 279q0 -49 9.5 -93t31 -77.5t56.5 -53.5t87 -20t88 20t58 53.5t32 77.5t10 93q0 48 -11 91t-34 75t-58.5 51t-83.5 19q-52 0 -87.5 -19t-57 -51.5t-31 -75
t-9.5 -90.5z" />
    <glyph glyph-name="oacute" unicode="&#xf3;" horiz-adv-x="613" 
d="M214 625q-11 -6 -14 -2.5t-7 10.5l-3 6q-10 18 4 25t41 21t57 29.5t57.5 29.5t41.5 22q11 6 16.5 3.5t9.5 -11.5l8 -18q4 -9 1.5 -15.5t-7.5 -8.5q-54 -25 -98 -44q-19 -8 -37 -16t-33 -15t-25 -11t-12 -5zM68 279q1 58 16 109t44.5 89.5t73.5 60.5t103 22q60 0 105 -22
t75.5 -59.5t45.5 -89t14 -109.5q-1 -62 -16 -115.5t-45 -92.5t-74.5 -61t-103.5 -22q-60 0 -105 22t-75 60.5t-44.5 91.5t-13.5 116zM121 279q0 -49 9.5 -93t31 -77.5t56.5 -53.5t87 -20t88 20t58 53.5t32 77.5t10 93q0 48 -11 91t-34 75t-58.5 51t-83.5 19q-52 0 -87.5 -19
t-57 -51.5t-31 -75t-9.5 -90.5z" />
    <glyph glyph-name="ocircumflex" unicode="&#xf4;" horiz-adv-x="613" 
d="M148 643q-8 14 5 22q28 21 68 48.5t73 52.5q7 5 11 5q5 0 8 -1.5t5 -3.5q38 -26 73.5 -53t66.5 -49q8 -6 8.5 -12t-3.5 -13l-3 -5q-8 -12 -24 -3q-4 2 -20 12.5t-36.5 23t-41 26t-33.5 21.5l-130 -83q-15 -10 -23 5zM68 279q1 58 16 109t44.5 89.5t73.5 60.5t103 22
q60 0 105 -22t75.5 -59.5t45.5 -89t14 -109.5q-1 -62 -16 -115.5t-45 -92.5t-74.5 -61t-103.5 -22q-60 0 -105 22t-75 60.5t-44.5 91.5t-13.5 116zM121 279q0 -49 9.5 -93t31 -77.5t56.5 -53.5t87 -20t88 20t58 53.5t32 77.5t10 93q0 48 -11 91t-34 75t-58.5 51t-83.5 19
q-52 0 -87.5 -19t-57 -51.5t-31 -75t-9.5 -90.5z" />
    <glyph glyph-name="otilde" unicode="&#xf5;" horiz-adv-x="613" 
d="M166 659q-8 7 -8 12t3 12q9 20 30 37.5t50 17.5q23 0 41 -11t33 -24t28.5 -24t26.5 -11q21 0 31 13.5t14 21.5t9.5 10.5t12.5 -4.5l10 -10q8 -8 8 -13t-5 -13q-8 -15 -27 -33t-53 -18q-23 0 -40 11t-32 24t-28.5 24t-28.5 11q-11 0 -18.5 -4t-12.5 -10t-8.5 -12.5
t-6.5 -12.5q-6 -12 -20 -1zM68 279q1 58 16 109t44.5 89.5t73.5 60.5t103 22q60 0 105 -22t75.5 -59.5t45.5 -89t14 -109.5q-1 -62 -16 -115.5t-45 -92.5t-74.5 -61t-103.5 -22q-60 0 -105 22t-75 60.5t-44.5 91.5t-13.5 116zM121 279q0 -49 9.5 -93t31 -77.5t56.5 -53.5
t87 -20t88 20t58 53.5t32 77.5t10 93q0 48 -11 91t-34 75t-58.5 51t-83.5 19q-52 0 -87.5 -19t-57 -51.5t-31 -75t-9.5 -90.5z" />
    <glyph glyph-name="odieresis" unicode="&#xf6;" horiz-adv-x="613" 
d="M424 642q-19 0 -29.5 6.5t-11.5 34.5q-2 28 9.5 34.5t28.5 6.5t28 -6.5t12 -34.5t-10 -34.5t-27 -6.5zM187 642q-18 0 -29 6.5t-12 34.5t10 34.5t27 6.5q17 0 28.5 -6.5t13.5 -34.5q1 -28 -10.5 -34.5t-27.5 -6.5zM68 279q1 58 16 109t44.5 89.5t73.5 60.5t103 22
q60 0 105 -22t75.5 -59.5t45.5 -89t14 -109.5q-1 -62 -16 -115.5t-45 -92.5t-74.5 -61t-103.5 -22q-60 0 -105 22t-75 60.5t-44.5 91.5t-13.5 116zM121 279q0 -49 9.5 -93t31 -77.5t56.5 -53.5t87 -20t88 20t58 53.5t32 77.5t10 93q0 48 -11 91t-34 75t-58.5 51t-83.5 19
q-52 0 -87.5 -19t-57 -51.5t-31 -75t-9.5 -90.5z" />
    <glyph glyph-name="divide" unicode="&#xf7;" horiz-adv-x="600" 
d="M306 503q-23 0 -40 9.5t-15 45.5q-1 18 3 29t11.5 17t17.5 8t22 2q10 0 20 -2t18 -8t12.5 -17t4.5 -29q0 -36 -15.5 -45.5t-38.5 -9.5zM124 315q-15 -1 -18.5 2.5t-3.5 19.5v6q0 14 6 17t20 2q8 -1 36.5 -1h65.5t78.5 0.5t77 0.5t60 0.5t27.5 0.5q16 1 20.5 -2.5
t4.5 -20.5v-6q0 -20 -26 -19h-30.5h-61.5h-77.5h-78.5h-64.5h-35.5zM251 120q-1 18 3 29t11.5 17t17.5 8t22 2q10 0 20 -2t18 -8t12.5 -17t4.5 -29q0 -36 -15.5 -45.5t-38.5 -9.5t-40 9.5t-15 45.5z" />
    <glyph glyph-name="oslash" unicode="&#xf8;" horiz-adv-x="613" 
d="M132 65q-33 39 -49.5 93.5t-14.5 120.5q1 58 16 109t44.5 89.5t73.5 60.5t103 22q32 0 59 -6.5t50 -17.5q5 7 12.5 19t11.5 18q5 10 13 15t20 -2l11 -6q20 -11 4 -34l-28 -39q44 -38 66 -97t21 -130q-1 -62 -16 -115.5t-45 -92.5t-74.5 -61t-103.5 -22q-41 0 -74.5 10
t-59.5 29l-21 -32q-8 -15 -18 -16.5t-17 2.5l-8 5q-8 4 -10 13.5t6 21.5zM121 279q0 -49 9.5 -93t31 -77.5t56.5 -53.5t87 -20t88 20t58 53.5t32 77.5t10 93q0 48 -11 91t-34 75t-58.5 51t-83.5 19q-52 0 -87.5 -19t-57 -51.5t-31 -75t-9.5 -90.5z" />
    <glyph glyph-name="ugrave" unicode="&#xf9;" 
d="M203 716q-5 2 -7.5 8.5t1.5 15.5l8 18q4 9 9.5 11.5t16.5 -3.5q14 -8 41 -22t57 -29.5t57.5 -29.5t41.5 -21t4 -25l-3 -6q-4 -7 -7 -10.5t-14 2.5q-5 2 -37 16t-70 31q-44 19 -98 44zM82 200q0 30 0.5 77t1 96t1.5 93.5t2 70.5q1 14 5.5 18.5t14.5 4.5q15 0 23.5 -6
t7.5 -21q-2 -75 -3 -158t-1 -176q0 -79 36.5 -121.5t111.5 -42.5q40 0 72 12.5t55.5 32t39.5 43t24 44.5q0 28 0.5 63t0.5 69.5t0.5 65.5t0.5 51v99q-2 23 3.5 29t17.5 6h11q14 0 18.5 -8t3.5 -25q0 -7 -1 -21t-1.5 -31t-1 -35.5t-0.5 -34.5q0 -27 -0.5 -64.5t-0.5 -78.5
t-1 -81t-1 -73t-0.5 -54.5t-0.5 -24.5q0 -13 -2.5 -21t-19.5 -8q-29 0 -29 34q0 20 2.5 38t2.5 27h-7q-3 -5 -17.5 -21t-38.5 -33t-57.5 -31t-75.5 -14q-97 0 -146.5 49.5t-50.5 160.5z" />
    <glyph glyph-name="uacute" unicode="&#xfa;" 
d="M223 625q-11 -6 -14 -2.5t-7 10.5l-3 6q-10 18 4 25t41 21t57 29.5t57.5 29.5t41.5 22q11 6 16.5 3.5t9.5 -11.5l8 -18q4 -9 1.5 -15.5t-7.5 -8.5q-54 -25 -98 -44q-19 -8 -37 -16t-33 -15t-25 -11t-12 -5zM82 200q0 30 0.5 77t1 96t1.5 93.5t2 70.5q1 14 5.5 18.5
t14.5 4.5q15 0 23.5 -6t7.5 -21q-2 -75 -3 -158t-1 -176q0 -79 36.5 -121.5t111.5 -42.5q40 0 72 12.5t55.5 32t39.5 43t24 44.5q0 28 0.5 63t0.5 69.5t0.5 65.5t0.5 51v99q-2 23 3.5 29t17.5 6h11q14 0 18.5 -8t3.5 -25q0 -7 -1 -21t-1.5 -31t-1 -35.5t-0.5 -34.5
q0 -27 -0.5 -64.5t-0.5 -78.5t-1 -81t-1 -73t-0.5 -54.5t-0.5 -24.5q0 -13 -2.5 -21t-19.5 -8q-29 0 -29 34q0 20 2.5 38t2.5 27h-7q-3 -5 -17.5 -21t-38.5 -33t-57.5 -31t-75.5 -14q-97 0 -146.5 49.5t-50.5 160.5z" />
    <glyph glyph-name="ucircumflex" unicode="&#xfb;" 
d="M155 643q-8 14 5 22q28 21 68 48.5t73 52.5q7 5 11 5q5 0 8 -1.5t5 -3.5q38 -26 73.5 -53t66.5 -49q8 -6 8.5 -12t-3.5 -13l-3 -5q-8 -12 -24 -3q-4 2 -20 12.5t-36.5 23t-41 26t-33.5 21.5l-130 -83q-15 -10 -23 5zM82 200q0 30 0.5 77t1 96t1.5 93.5t2 70.5
q1 14 5.5 18.5t14.5 4.5q15 0 23.5 -6t7.5 -21q-2 -75 -3 -158t-1 -176q0 -79 36.5 -121.5t111.5 -42.5q40 0 72 12.5t55.5 32t39.5 43t24 44.5q0 28 0.5 63t0.5 69.5t0.5 65.5t0.5 51v99q-2 23 3.5 29t17.5 6h11q14 0 18.5 -8t3.5 -25q0 -7 -1 -21t-1.5 -31t-1 -35.5
t-0.5 -34.5q0 -27 -0.5 -64.5t-0.5 -78.5t-1 -81t-1 -73t-0.5 -54.5t-0.5 -24.5q0 -13 -2.5 -21t-19.5 -8q-29 0 -29 34q0 20 2.5 38t2.5 27h-7q-3 -5 -17.5 -21t-38.5 -33t-57.5 -31t-75.5 -14q-97 0 -146.5 49.5t-50.5 160.5z" />
    <glyph glyph-name="udieresis" unicode="&#xfc;" 
d="M431 642q-19 0 -29.5 6.5t-11.5 34.5q-2 28 9.5 34.5t28.5 6.5t28 -6.5t12 -34.5t-10 -34.5t-27 -6.5zM194 642q-18 0 -29 6.5t-12 34.5t10 34.5t27 6.5q17 0 28.5 -6.5t13.5 -34.5q1 -28 -10.5 -34.5t-27.5 -6.5zM82 200q0 30 0.5 77t1 96t1.5 93.5t2 70.5
q1 14 5.5 18.5t14.5 4.5q15 0 23.5 -6t7.5 -21q-2 -75 -3 -158t-1 -176q0 -79 36.5 -121.5t111.5 -42.5q40 0 72 12.5t55.5 32t39.5 43t24 44.5q0 28 0.5 63t0.5 69.5t0.5 65.5t0.5 51v99q-2 23 3.5 29t17.5 6h11q14 0 18.5 -8t3.5 -25q0 -7 -1 -21t-1.5 -31t-1 -35.5
t-0.5 -34.5q0 -27 -0.5 -64.5t-0.5 -78.5t-1 -81t-1 -73t-0.5 -54.5t-0.5 -24.5q0 -13 -2.5 -21t-19.5 -8q-29 0 -29 34q0 20 2.5 38t2.5 27h-7q-3 -5 -17.5 -21t-38.5 -33t-57.5 -31t-75.5 -14q-97 0 -146.5 49.5t-50.5 160.5z" />
    <glyph glyph-name="yacute" unicode="&#xfd;" horiz-adv-x="526" 
d="M178 625q-11 -6 -14 -2.5t-7 10.5l-3 6q-10 18 4 25t41 21t57 29.5t57.5 29.5t41.5 22q11 6 16.5 3.5t9.5 -11.5l8 -18q4 -9 1.5 -15.5t-7.5 -8.5q-54 -25 -98 -44q-19 -8 -37 -16t-33 -15t-25 -11t-12 -5zM59 -100q4 14 11 13.5t13 -4.5q17 -11 37 -17.5t43 -6.5
q20 0 36.5 8t31.5 26.5t28 48t26 72.5h-11q-14 0 -21.5 5t-12.5 19q-4 11 -20 47.5t-38 84t-47 101.5t-47 100.5t-38 80t-19 41.5q-5 11 -5 21t16 10h13q17 0 19.5 -5.5l7.5 -16.5q3 -7 17 -37.5t34 -74t43.5 -94.5t46 -99.5t40.5 -88.5t27 -61h6q8 25 20.5 62.5t26 81
t27.5 89.5t26.5 88t23 77l16.5 55q4 12 7 18t20 6h12q18 0 19 -8t-4 -22q-6 -17 -17 -51.5t-25.5 -78.5t-30.5 -94.5t-32 -98.5t-29.5 -90.5t-23.5 -71.5q-15 -48 -29.5 -84.5t-33.5 -61t-45 -37t-64 -12.5q-30 0 -52.5 7t-39.5 16q-16 8 -15 13.5t3 12.5z" />
    <glyph glyph-name="thorn" unicode="&#xfe;" horiz-adv-x="614" 
d="M97 -128q0 3 0.5 37t0.5 87v120.5t0.5 138.5t0.5 140.5v126.5v97v51v22t8 16q4 2 11 2h12q15 0 16.5 -11.5t1.5 -28.5v-55.5v-65.5t-0.5 -61t-1.5 -42h5q16 31 42 57q22 21 56 39t82 18t87.5 -22t68 -62.5t44.5 -97.5t16 -127q0 -58 -16.5 -106t-46 -82.5t-69.5 -53.5
t-87 -19q-40 0 -71 13t-53 30t-35.5 34t-17.5 25h-6q1 -28 1.5 -63t0.5 -66.5t0.5 -54.5t0.5 -28q2 -20 -6 -25t-14 -5h-16q-16 0 -15 22zM146 183q3 -13 15 -38t34.5 -49.5t55.5 -42.5t77 -18q31 0 61 12t53 38t37.5 67t14.5 100q0 126 -46 194.5t-121 68.5q-37 0 -70 -15
t-57.5 -41.5t-39 -61.5t-14.5 -74v-140z" />
    <glyph glyph-name="ydieresis" unicode="&#xff;" horiz-adv-x="526" 
d="M390 642q-19 0 -29.5 6.5t-11.5 34.5q-2 28 9.5 34.5t28.5 6.5t28 -6.5t12 -34.5t-10 -34.5t-27 -6.5zM153 642q-18 0 -29 6.5t-12 34.5t10 34.5t27 6.5q17 0 28.5 -6.5t13.5 -34.5q1 -28 -10.5 -34.5t-27.5 -6.5zM59 -100q4 14 11 13.5t13 -4.5q17 -11 37 -17.5t43 -6.5
q20 0 36.5 8t31.5 26.5t28 48t26 72.5h-11q-14 0 -21.5 5t-12.5 19q-4 11 -20 47.5t-38 84t-47 101.5t-47 100.5t-38 80t-19 41.5q-5 11 -5 21t16 10h13q17 0 19.5 -5.5l7.5 -16.5q3 -7 17 -37.5t34 -74t43.5 -94.5t46 -99.5t40.5 -88.5t27 -61h6q8 25 20.5 62.5t26 81
t27.5 89.5t26.5 88t23 77l16.5 55q4 12 7 18t20 6h12q18 0 19 -8t-4 -22q-6 -17 -17 -51.5t-25.5 -78.5t-30.5 -94.5t-32 -98.5t-29.5 -90.5t-23.5 -71.5q-15 -48 -29.5 -84.5t-33.5 -61t-45 -37t-64 -12.5q-30 0 -52.5 7t-39.5 16q-16 8 -15 13.5t3 12.5z" />
    <glyph glyph-name="OE" unicode="&#x152;" horiz-adv-x="953" 
d="M73 340q-1 73 16 137t52 111.5t88 74.5t125 27q38 0 70 -5t42 -5h392q11 0 14 -5t3 -16v-9q0 -21 -18 -19h-24h-55.5h-73.5h-77h-66h-40l1 -270h35h56.5t66 0.5t63.5 0.5h48.5h20.5q5 1 11.5 -3t6.5 -13v-17q0 -10 -5.5 -12.5t-12.5 -2.5h-290v-28v-48.5t0.5 -58
t0.5 -57.5v-47v-26h42h66h76h72h55h24q17 0 17 -20v-13q0 -10 -3 -13t-14 -3h-390q-10 0 -34.5 -5t-75.5 -5q-75 0 -129 27t-88.5 74t-50.5 111t-17 138zM355 39q27 0 48.5 2t35.5 4q17 3 29 6v91v97t-0.5 96.5t-0.5 90.5q-1 101 -1 201q-13 3 -31 7q-15 2 -37.5 4.5
t-51.5 2.5q-55 0 -95.5 -22.5t-67.5 -62.5t-40 -95.5t-13 -120.5q0 -66 13 -121.5t40 -95t69.5 -62t102.5 -22.5z" />
    <glyph glyph-name="oe" unicode="&#x153;" horiz-adv-x="1021" 
d="M68 279q1 58 16 109t44.5 89.5t73.5 60.5t103 22q82 0 136.5 -40.5t80.5 -106.5q28 67 82.5 107t131.5 40q49 0 87.5 -17t64.5 -45t39.5 -63.5t13.5 -71.5q0 -32 -2.5 -49.5t-7.5 -25.5t-12.5 -9t-17.5 -1h-349l-2 -3q0 -48 11 -91.5t35 -76.5t61.5 -52.5t91.5 -19.5
q33 0 60 8t47 18t31.5 18.5t12.5 9.5q2 0 6 -2q2 -2 5.5 -4t6.5 -7q4 -6 3 -15.5t-9 -17.5q-6 -6 -21 -15.5t-36 -17.5t-48.5 -14t-58.5 -6q-92 0 -147 39.5t-81 107.5q-26 -68 -79.5 -108t-134.5 -40q-60 0 -105 22t-75 60.5t-44.5 91.5t-13.5 116zM886 323q0 5 1 12
q0 5 0.5 12.5t0.5 15.5q0 27 -9.5 54.5t-29 49t-48 35t-65.5 13.5q-49 0 -82.5 -20.5t-55 -50.5t-32 -63t-11.5 -58h331zM121 279q0 -49 9.5 -93t31 -77.5t56.5 -53.5t87 -20t88 20t58 53.5t32 77.5t10 93q0 48 -11 91t-34 75t-58.5 51t-83.5 19q-52 0 -87.5 -19t-57 -51.5
t-31 -75t-9.5 -90.5z" />
    <glyph glyph-name="Scaron" unicode="&#x160;" horiz-adv-x="588" 
d="M285 757q-5 0 -8 1.5t-5 3.5q-38 26 -73.5 53t-66.5 49q-8 6 -8.5 12t3.5 13l3 5q7 12 24 3q4 -2 20 -12.5t36.5 -23t41 -26t33.5 -21.5l130 83q15 10 23 -5l4 -7q8 -14 -5 -22q-28 -21 -68 -48.5t-73 -52.5q-7 -5 -11 -5zM99 38q-12 10 -16.5 19t-5.5 22q-1 8 3 13.5
t9 9.5t13 7q18 -20 44 -35q22 -14 55.5 -24.5t79.5 -10.5q94 0 146 38t52 100q0 45 -36 79.5t-96 49.5l-122 33q-32 8 -62.5 20.5t-55 31.5t-39.5 47t-15 67q0 38 15.5 71.5t46 59t75 40t102.5 14.5q64 0 103 -10.5t70 -26.5q13 -8 23.5 -20t4.5 -26q-6 -11 -15 -17
q-4 -4 -10 -5q-18 16 -44 28q-22 11 -54.5 19.5t-77.5 8.5q-47 0 -81.5 -10.5t-57 -29t-33.5 -43.5t-11 -53q0 -27 12 -46t31 -32t42 -21.5t45 -14.5l125 -34q81 -23 126 -65t45 -114q0 -43 -18 -77.5t-51 -59t-80 -38t-105 -13.5q-67 0 -114 16.5t-68 31.5z" />
    <glyph glyph-name="scaron" unicode="&#x161;" horiz-adv-x="525" 
d="M258 629q-38 26 -73.5 53t-66.5 49q-8 6 -8.5 12t3.5 13l3 5q7 12 24 3q4 -2 20 -12.5t36.5 -23t41 -26t33.5 -21.5l130 83q15 10 23 -5l4 -7q8 -14 -5 -22q-28 -21 -68 -48.5t-73 -52.5q-7 -5 -11 -5q-5 0 -8 1.5t-5 3.5zM78 52q-4 14 2 23.5t13 13.5q15 -16 36 -27
q18 -11 45 -19t65 -8q76 0 117 31t41 80q0 19 -9 34t-24 26t-34 19.5t-39 15.5l-101 37q-56 20 -86.5 50t-30.5 83q0 30 12.5 57t37 47.5t60 32.5t81.5 12q36 0 62.5 -5t45 -11.5t30 -14t17.5 -12.5q7 -6 8.5 -13.5t-0.5 -15t-6.5 -13t-10.5 -7.5q-16 12 -38 23
q-19 9 -46 16.5t-62 7.5q-67 0 -102.5 -31t-35.5 -73q0 -32 22.5 -53t65.5 -36l97 -34q35 -12 61 -25t43 -29.5t25.5 -37.5t8.5 -49q0 -33 -13 -61.5t-39.5 -49.5t-66 -33.5t-91.5 -12.5q-36 0 -64.5 6t-49 15t-32.5 20t-15 21z" />
    <glyph glyph-name="Ydieresis" unicode="&#x178;" horiz-adv-x="620" 
d="M431 754q-19 0 -29.5 6.5t-11.5 33.5q-2 28 9.5 35t28.5 7t28 -6.5t12 -35.5q1 -27 -10 -33.5t-27 -6.5zM194 754q-18 0 -29 6.5t-12 33.5q-1 28 10 35t27 7q17 0 28.5 -6.5t13.5 -35.5q1 -27 -10.5 -33.5t-27.5 -6.5zM283 36v23.5v44.5v55t0.5 55.5t0.5 46.5v27
q-11 16 -33 48.5t-49 71.5t-56 81t-54 77t-42 59.5t-20 29.5q-2 2 -3 6.5t0 8.5t5 7t12 3h17q14 0 21 -6t12 -15q4 -8 18.5 -29.5t34.5 -51.5l43 -64.5l45 -67.5t41 -60.5t30 -43.5h8q10 15 29.5 43t42.5 62t47.5 70.5t45 67t35 52t17.5 26.5q6 9 11.5 13t19.5 4h16
q12 0 14.5 -7t-2.5 -15q-6 -9 -24.5 -36t-44 -64t-54 -79t-55 -80t-47 -68t-29.5 -43v-28t0.5 -46.5t0 -55.5t0 -54t0.5 -43v-21q0 -6 1 -13t0 -13t-5 -10t-13 -4h-16q-14 0 -18.5 12t-2.5 24z" />
    <glyph glyph-name="Zcaron" unicode="&#x17d;" horiz-adv-x="589" 
d="M297 762q-38 26 -73.5 53t-66.5 49q-8 6 -8.5 12t3.5 13l3 5q7 12 24 3q4 -2 20 -12.5t36.5 -23t41 -26t33.5 -21.5l130 83q15 10 23 -5l4 -7q8 -14 -5 -22q-28 -21 -68 -48.5t-73 -52.5q-7 -5 -11 -5q-5 0 -8 1.5t-5 3.5zM54 56q3 4 20.5 27.5t44.5 60t61 82t70.5 94
t72 97t66.5 90t54 72.5t33 46v6h-373q-9 0 -12 5.5t-3 15.5v12q0 10 3.5 13t14.5 3h413q8 0 12 -6t6 -15v-33q-18 -23 -47.5 -62.5t-65.5 -88t-77.5 -104t-82.5 -111t-79.5 -108t-70.5 -95.5v-8h43h71h84.5h84h68.5t38 1q17 1 17 -18v-16q0 -10 -3.5 -13t-14.5 -3h-431
q-18 0 -19 20z" />
    <glyph glyph-name="zcaron" unicode="&#x17e;" horiz-adv-x="482" 
d="M239 624q-5 0 -8 1.5t-5 3.5q-38 26 -73.5 53t-66.5 49q-8 6 -8.5 12t3.5 13l3 5q7 12 24 3q4 -2 20 -12.5t36.5 -23t41 -26t33.5 -21.5l130 83q15 10 23 -5l4 -7q8 -14 -5 -22q-28 -21 -68 -48.5t-73 -52.5q-7 -5 -11 -5zM52 38q1 3 14.5 23t34.5 51t47.5 70.5t54 81
t54.5 82t49.5 73.5t37 56t18.5 30h-287q-7 0 -11.5 3t-4.5 14v13q0 15 17 15h323q17 0 21 -6t5 -18v-19q-2 -2 -15 -20.5t-33 -48t-46 -67.5t-53 -78l-54 -80t-49.5 -74t-39 -59t-22.5 -35h281q9 0 15.5 -2t6.5 -16v-9q0 -17 -9.5 -17.5t-13.5 -0.5h-317q-14 0 -19 4t-5 17
v17z" />
    <glyph glyph-name="florin" unicode="&#x192;" horiz-adv-x="399" 
d="M44 -111q16 0 29 -2t29 -2q37 0 56.5 26.5t19.5 83.5v32v80.5v106.5t-0.5 109.5t-0.5 89.5v47h-65q-20 0 -20 13v6q0 6 2 10t12 6l71 12v48q0 32 6 60.5t20 49.5t38.5 33t60.5 12q27 0 48.5 -2.5t32.5 -4.5q2 -12 0 -21q-2 -8 -7 -14.5t-16 -6.5q-15 0 -28.5 2t-29.5 2
q-37 0 -56.5 -26.5t-19.5 -83.5v-50h107q10 0 13 -4.5t3 -9.5v-15q0 -16 -14 -16h-109q-1 -25 -1 -79.5t0.5 -121.5t1 -137.5t0.5 -127.5q1 -33 -5 -61t-20.5 -49t-39 -32.5t-60.5 -11.5q-27 0 -47.5 2.5t-33.5 4.5q-3 11 -1 21q2 8 7 14.5t17 6.5z" />
    <glyph glyph-name="circumflex" unicode="&#x2c6;" horiz-adv-x="612" 
d="M148 643q-8 14 5 22q28 21 68 48.5t73 52.5q7 5 11 5q5 0 8 -1.5t5 -3.5q38 -26 73.5 -53t66.5 -49q8 -6 8.5 -12t-3.5 -13l-3 -5q-8 -12 -24 -3q-4 2 -20 12.5t-36.5 23t-41 26t-33.5 21.5l-130 -83q-15 -10 -23 5z" />
    <glyph glyph-name="tilde" unicode="&#x2dc;" horiz-adv-x="614" 
d="M166 659q-8 7 -8 12t3 12q9 20 30 37.5t50 17.5q23 0 41 -11t33 -24t28.5 -24t26.5 -11q21 0 31 13.5t14 21.5t9.5 10.5t12.5 -4.5l10 -10q8 -8 8 -13t-5 -13q-8 -15 -27 -33t-53 -18q-23 0 -40 11t-32 24t-28.5 24t-28.5 11q-11 0 -18.5 -4t-12.5 -10t-8.5 -12.5
t-6.5 -12.5q-6 -12 -20 -1z" />
    <glyph glyph-name="uni03BC" unicode="&#x3bc;" horiz-adv-x="626" 
d="M146 39v-34t0.5 -46t0.5 -46v-34q0 -19 -5.5 -24t-13.5 -5h-12q-8 0 -14 4t-6 24q-3 168 -1.5 323.5t0.5 317.5q0 7 -0.5 14t1 13t6 10t15.5 4q22 0 25.5 -9.5t3.5 -17.5q0 -76 -1 -158.5t-1 -175.5q0 -35 7.5 -64.5t24.5 -52t44.5 -35t67.5 -12.5q38 0 69 12.5t55 32
t40.5 43t24.5 44.5q0 28 0.5 63t0.5 70t0.5 65.5t0.5 50.5q0 31 -0.5 54t-0.5 45q0 14 3 24.5t15 10.5h14q13 0 16.5 -9t3.5 -26q0 -7 -0.5 -20.5t-0.5 -30t-0.5 -35t-0.5 -34.5v-64.5t-0.5 -78.5t-1 -81t-1 -73t-0.5 -54.5v-24.5q0 -13 -2 -21t-18 -8q-31 0 -31 34
q0 23 2.5 35.5t2.5 29.5h-7q-3 -6 -17.5 -22t-38 -33t-56 -30.5t-72.5 -13.5q-35 0 -60.5 6t-42 14t-26 16t-13.5 13z" />
    <glyph glyph-name="endash" unicode="&#x2013;" horiz-adv-x="329" 
d="M19 314q-14 -1 -16.5 3t-2.5 17v11q0 12 5 15t18 2h30h53.5h64.5h62.5t49 0.5t23.5 0.5q14 1 18 -2.5t5 -17.5v-10q0 -21 -23 -18q-4 0 -25 0.5t-50.5 0.5t-63.5 -0.5t-64.5 -1t-53 -0.5h-30.5z" />
    <glyph glyph-name="emdash" unicode="&#x2014;" horiz-adv-x="723" 
d="M147 314q-14 -1 -16 3t-2 17v11q0 11 5.5 14.5t18.5 2.5h40h78.5h96.5h95t74.5 0.5t33.5 0.5q13 1 18 -2.5t5 -17.5v-10q0 -21 -23 -18q-4 0 -35 0.5t-75.5 0.5t-96.5 -0.5t-97.5 -1t-79 -0.5h-40.5z" />
    <glyph glyph-name="quoteleft" unicode="&#x2018;" horiz-adv-x="343" 
d="M168 423q-31 0 -50 22t-19 70q0 50 11 83.5t26.5 54t33.5 29t33 8.5q14 0 21 -5t9 -10q3 -6 1 -14q-27 -2 -47 -16q-17 -12 -31.5 -38t-14.5 -74q42 6 63 -7.5t21 -49.5q0 -25 -16.5 -39t-40.5 -14z" />
    <glyph glyph-name="quoteright" unicode="&#x2019;" horiz-adv-x="343" 
d="M137 423q-15 0 -21.5 4.5t-8.5 9.5q-3 6 -1 15q26 2 46 16q17 12 32 37.5t15 74.5q-42 -6 -63 7.5t-21 49.5q0 25 16.5 39t40.5 14q31 0 50 -22t19 -70q0 -50 -11 -83.5t-26.5 -54t-33.5 -29t-33 -8.5z" />
    <glyph glyph-name="quotesinglbase" unicode="&#x201a;" horiz-adv-x="343" 
d="M115 54q0 25 16.5 39t40.5 14q31 0 50 -22t19 -70q0 -50 -11 -83.5t-26.5 -54t-33.5 -29t-33 -8.5t-21.5 4.5t-8.5 9.5q-3 6 -1 15q26 2 46 16q17 12 32 37.5t15 74.5q-42 -6 -63 7.5t-21 49.5z" />
    <glyph glyph-name="quotedblleft" unicode="&#x201c;" horiz-adv-x="552" 
d="M383 423q-33 0 -51 23t-18 69q0 48 10 81t25 54t33.5 30.5t35.5 9.5q14 0 21 -5t9 -10q3 -6 1 -14q-27 -2 -47 -16q-17 -12 -31.5 -38t-14.5 -74q41 6 62.5 -7.5t21.5 -48.5q0 -26 -16 -40t-41 -14zM167 423q-33 0 -51 23t-18 69q0 48 10 81t25 54t33.5 30.5t35.5 9.5
q14 0 21 -5t9 -10q3 -6 1 -14q-27 -2 -47 -16q-17 -12 -31.5 -38t-14.5 -74q41 6 62.5 -7.5t21.5 -48.5q0 -26 -16 -40t-41 -14z" />
    <glyph glyph-name="quotedblright" unicode="&#x201d;" horiz-adv-x="552" 
d="M345 423q-14 0 -21 4.5t-9 9.5q-3 6 -1 15q26 2 46 16q17 12 32 38t15 74q-41 -6 -62.5 7.5t-21.5 48.5q0 26 16 40t41 14q33 0 51 -23t18 -69q0 -48 -10 -81t-25 -54t-33.5 -30.5t-35.5 -9.5zM129 423q-14 0 -21 4.5t-9 9.5q-3 6 -1 15q26 2 46 16q17 12 32 38t15 74
q-41 -6 -62.5 7.5t-21.5 48.5q0 26 16 40t41 14q33 0 51 -23t18 -69q0 -48 -10 -81t-25 -54t-33.5 -30.5t-35.5 -9.5z" />
    <glyph glyph-name="quotedblbase" unicode="&#x201e;" horiz-adv-x="552" 
d="M323 53q0 26 16 40t41 14q33 0 51 -23t18 -69q0 -48 -10 -81t-25 -54t-33.5 -30.5t-35.5 -9.5q-14 0 -21 4.5t-9 9.5q-3 6 -1 15q26 2 46 16q17 12 32 38t15 74q-41 -6 -62.5 7.5t-21.5 48.5zM107 53q0 26 16 40t41 14q33 0 51 -23t18 -69q0 -48 -10 -81t-25 -54
t-33.5 -30.5t-35.5 -9.5q-14 0 -21 4.5t-9 9.5q-3 6 -1 15q26 2 46 16q17 12 32 38t15 74q-41 -6 -62.5 7.5t-21.5 48.5z" />
    <glyph glyph-name="dagger" unicode="&#x2020;" horiz-adv-x="614" 
d="M285 -134q0 19 -0.5 75.5t-1 129.5t-2 150.5t-2.5 138.5q-29 0 -57.5 0.5t-51.5 0.5h-52q-19 0 -25.5 2t-5.5 18v6q1 12 5.5 14.5t21.5 2.5h166q-2 40 -2.5 82t-1.5 77t-1 58v26q0 13 3 23t15 10h19q14 0 16.5 -11.5t2.5 -23.5q0 -11 -0.5 -37t-1 -59.5t-2 -71.5
t-2.5 -73q23 0 49.5 -0.5t50.5 -0.5t43 0.5t28 0.5q20 2 25.5 -2t5.5 -16v-9q-1 -16 -7.5 -16h-29.5h-164q-1 -41 -1.5 -90.5t-1 -100.5t-1 -100.5t-0.5 -91t0.5 -71.5t1.5 -42q1 -13 -1 -19t-14 -6h-7q-13 0 -15 7t-2 19z" />
    <glyph glyph-name="daggerdbl" unicode="&#x2021;" horiz-adv-x="614" 
d="M87 132q1 12 5.5 14.5t21.5 2.5h169q0 27 -0.5 63t-1 74t-1 73.5t-1.5 61.5h-161q-19 0 -25.5 2t-5.5 18v6q1 12 5.5 14.5t21.5 2.5h167q-1 30 -2 63t-2 60t-1.5 45.5t-0.5 20.5q0 27 18 27h19q14 0 16.5 -8.5t2.5 -20.5q0 -10 -1 -30.5t-2 -47t-2 -55.5t-2 -55h48h50.5
t44.5 0.5t29 0.5q20 2 25.5 -2t5.5 -16v-9q-1 -16 -7.5 -16h-29.5h-164l-4 -272h49h52h44.5h28.5q20 2 25.5 -2t5.5 -16v-9q-1 -15 -7.5 -15.5t-29.5 -0.5h-167v-72v-71.5v-60v-37.5q0 -13 -2 -19t-14 -6h-5q-12 0 -14.5 7t-1.5 19v38t-0.5 60t-1 71t-0.5 70
q-28 0 -57.5 0.5t-53.5 0.5h-55q-19 0 -25.5 2t-5.5 18v6z" />
    <glyph glyph-name="bullet" unicode="&#x2022;" horiz-adv-x="341" 
d="M172 268q-15 0 -29 2.5t-24 10t-15.5 22.5t-5.5 40q-1 25 4.5 40.5t15 23t23.5 10t30 2.5q15 0 28.5 -2.5t23.5 -10t15.5 -23t5.5 -40.5t-5.5 -40t-15 -22.5t-23 -10t-28.5 -2.5z" />
    <glyph glyph-name="ellipsis" unicode="&#x2026;" horiz-adv-x="843" 
d="M607 50q-1 21 3.5 33t12.5 18.5t19.5 8.5t24.5 2t24 -2t19.5 -8.5t13.5 -18.5t5 -33q0 -20 -5 -32t-13 -18t-19 -8t-24 -2t-24 2t-19.5 8t-13 18t-4.5 32zM360 50q0 21 4.5 33t13 18.5t19.5 8.5t25 2q12 0 23 -2t19 -8.5t13.5 -18.5t5.5 -33q0 -20 -4.5 -32t-12.5 -18
t-19 -8t-24 -2t-24.5 2t-20 8t-13.5 18t-5 32zM115 50q-1 21 3.5 33.5t12.5 18.5t19.5 8t24.5 2t24 -2t19.5 -8t13 -18.5t4.5 -33.5t-4.5 -33t-12.5 -18t-19 -7.5t-24 -1.5t-24 1.5t-19.5 7.5t-13 18t-4.5 33z" />
    <glyph glyph-name="perthousand" unicode="&#x2030;" horiz-adv-x="1275" 
d="M241 326q-45 0 -76 13.5t-51 37.5t-29.5 57.5t-10.5 73.5q-1 38 9 71.5t31 58t52 38.5t72 14t71.5 -14t50.5 -38.5t30.5 -57.5t11.5 -72t-10 -72.5t-32 -58t-51.5 -38t-67.5 -13.5zM268 35q13 26 37 75.5t52.5 110t59 127t58 126t49 107t31.5 70.5q4 9 9.5 19t17.5 10h19
q24 0 7 -35q-9 -18 -30.5 -63t-49.5 -105t-60 -128t-61 -131.5t-53 -115t-36 -78.5q-8 -17 -14.5 -20.5t-19.5 -3.5h-8q-18 0 -18.5 7.5t10.5 27.5zM240 368q31 0 51.5 12.5t33.5 32.5t18.5 45t5.5 51q0 25 -5.5 50t-18.5 45t-34 32t-52 12q-33 0 -55 -12t-35 -32t-18.5 -45
t-5.5 -50q0 -26 5.5 -51t18.5 -45t35.5 -32.5t55.5 -12.5zM872 172q-1 38 9.5 71.5t31.5 58t52 38.5t72 14t71.5 -14t50.5 -38.5t30.5 -57.5t11.5 -72t-10 -72.5t-32 -58t-51.5 -38t-67.5 -13.5q-45 0 -76 13.5t-51.5 37.5t-30 57.5t-10.5 73.5zM483 172q-1 38 9.5 71.5
t31.5 58t52 38.5t72 14t71.5 -14t50.5 -38.5t30.5 -57.5t11.5 -72t-10 -72.5t-32 -58t-51.5 -38t-67.5 -13.5q-45 0 -76 13.5t-51.5 37.5t-30 57.5t-10.5 73.5zM924 173q0 -26 5.5 -51t18.5 -45t35.5 -32.5t55.5 -12.5q31 0 51.5 12.5t33.5 32.5t18.5 45t5.5 51
q0 25 -5.5 50t-18.5 45t-34.5 32t-52.5 12q-33 0 -55 -12t-34.5 -32t-18 -45t-5.5 -50zM535 173q0 -26 5.5 -51t18.5 -45t35.5 -32.5t55.5 -12.5q31 0 51.5 12.5t33.5 32.5t18.5 45t5.5 51q0 25 -5.5 50t-18.5 45t-34.5 32t-52.5 12q-33 0 -55 -12t-34.5 -32t-18 -45
t-5.5 -50z" />
    <glyph glyph-name="guilsinglleft" unicode="&#x2039;" horiz-adv-x="408" 
d="M92 229q-14 14 -16 21.5t-2 18.5v12q0 10 2 16.5t16 21.5q11 12 27.5 31t34.5 40.5t37 44.5t34.5 42.5t27 33.5t15.5 19q8 11 16.5 17t21.5 -3l7 -5q8 -6 4.5 -16.5t-8.5 -17.5q-10 -11 -30.5 -37t-46 -58t-53 -67t-51.5 -64v-8q25 -31 54 -68t55 -70t45 -57.5t25 -30.5
q6 -8 11.5 -17t-7.5 -19l-4 -3q-7 -5 -11 -6.5t-8 0t-8.5 7t-11.5 13.5q-6 6 -27.5 32.5t-48.5 59.5t-54.5 66t-45.5 51z" />
    <glyph glyph-name="guilsinglright" unicode="&#x203a;" horiz-adv-x="408" 
d="M97 9q-7 5 -8 10t0.5 9.5t5 8.5t6.5 8q6 6 25 30.5t45 57.5t55 70t54 68v8q-24 29 -51.5 64t-53 67t-46 58t-30.5 37q-5 7 -8.5 17.5t4.5 16.5l7 5q13 9 21.5 3t16.5 -17q4 -5 15.5 -19t27 -33.5t34.5 -42.5t37 -44.5t34.5 -40.5t27.5 -31q14 -15 16 -21.5t2 -16.5v-12
q0 -11 -2 -18.5t-16 -21.5q-18 -18 -45.5 -51t-54.5 -66t-48.5 -59.5t-27.5 -32.5q-14 -17 -20 -21t-19 7z" />
    <glyph glyph-name="Euro" unicode="&#x20ac;" horiz-adv-x="615" 
d="M71 249q-12 0 -16.5 2t-4.5 16v13q0 11 6.5 14t14.5 3h38q-1 11 -1.5 21.5t-0.5 21.5v22.5t1 22.5h-37q-12 0 -16.5 2t-4.5 16v13q0 11 6.5 14t14.5 3h43q9 55 31.5 102.5t57.5 81.5t82.5 53.5t108.5 19.5q32 0 58.5 -5t47 -12t35 -15.5t22.5 -14.5q13 -10 17 -21.5
t-12 -28.5q-2 -2 -3.5 -3t-3.5 -3t-4 -3q-18 16 -42 28q-20 11 -49.5 20t-67.5 9q-92 0 -148 -57.5t-73 -150.5h260q13 0 17 -3.5t4 -13.5v-10q0 -8 -1.5 -14t-18.5 -6h-39.5t-67.5 -0.5t-80.5 -0.5h-79.5q-1 -11 -1.5 -22t-0.5 -22v-22t2 -22h266q13 0 17 -3.5t4 -13.5v-10
q0 -8 -1.5 -14t-18.5 -6h-38t-65 -0.5t-78.5 -0.5h-78.5q10 -48 29.5 -86.5t47.5 -66t64.5 -42.5t79.5 -15q44 0 74.5 12t48.5 24q8 5 14.5 6t13.5 -10l10 -14q9 -14 -6 -25q-5 -3 -17 -10t-31.5 -14t-46 -12.5t-60.5 -5.5q-61 0 -108.5 19t-82 53t-56.5 81.5t-32 105.5h-43
z" />
    <glyph glyph-name="trademark" unicode="&#x2122;" horiz-adv-x="774" 
d="M353 354q-14 0 -17 7.5t-2 18.5q1 9 4.5 30.5t8 49.5t9.5 59t9.5 58.5t8 48t4.5 28.5q4 22 13.5 24t15.5 2h34q5 0 11.5 -2.5t8.5 -12.5q1 -4 3.5 -15t6.5 -26.5t9 -34t10 -37.5q11 -45 26 -99h7q15 52 28 95q6 18 11.5 36.5t10 34.5t8 28t5.5 18q4 12 9.5 14t13.5 2h34
q14 0 20 -11t7 -21q0 -7 2.5 -27.5t5.5 -48t6.5 -58t7 -57.5t6 -47t3.5 -26q3 -12 2 -21.5t-21 -9.5h-5q-15 0 -19.5 5t-6.5 16q-1 7 -3 25.5t-4.5 43.5t-5 53t-5 54t-4.5 47.5t-3 32.5h-6q-2 -12 -11 -42t-19.5 -63t-19.5 -60.5t-11 -33.5q-4 -14 -10 -17t-11 -3h-42
q-7 0 -13 5t-8 16l-9 36t-15 61t-15.5 62t-9.5 39h-6q-3 -17 -8.5 -51t-10.5 -72.5t-9.5 -74t-7.5 -53.5q-2 -11 -5.5 -18.5t-17.5 -7.5h-8zM177 354q-14 0 -15.5 9.5t-1.5 20.5q0 5 0.5 37t0.5 73t0.5 81t0.5 61h-16h-23h-22h-12q-19 0 -19 17v10q0 17 20 17h85
q33 0 64 -0.5t40 0.5q18 1 18 -19v-10q-1 -10 -5.5 -12.5t-15.5 -2.5h-68q-1 -17 -1 -41.5v-52.5v-56.5v-51.5v-38.5v-17.5q0 -11 -1.5 -17.5t-16.5 -6.5h-12z" />
    <glyph glyph-name="glyph223" horiz-adv-x="0" 
 />
    <glyph glyph-name="glyph224" horiz-adv-x="0" 
 />
    </font>
</defs>
</svg>
